<?xml version="1.0" encoding="utf-8" standalone="no"?>
<!DOCTYPE svg PUBLIC "-//W3C//DTD SVG 1.1//EN"
  "http://www.w3.org/Graphics/SVG/1.1/DTD/svg11.dtd">
<svg xmlns:xlink="http://www.w3.org/1999/xlink" width="460.8pt" height="345.6pt" viewBox="0 0 460.8 345.6" xmlns="http://www.w3.org/2000/svg" version="1.1">
 <metadata>
  <rdf:RDF xmlns:dc="http://purl.org/dc/elements/1.1/" xmlns:cc="http://creativecommons.org/ns#" xmlns:rdf="http://www.w3.org/1999/02/22-rdf-syntax-ns#">
   <cc:Work>
    <dc:type rdf:resource="http://purl.org/dc/dcmitype/StillImage"/>
    <dc:date>2026-04-01T17:00:02.121202</dc:date>
    <dc:format>image/svg+xml</dc:format>
    <dc:creator>
     <cc:Agent>
      <dc:title>Matplotlib v3.10.8, https://matplotlib.org/</dc:title>
     </cc:Agent>
    </dc:creator>
   </cc:Work>
  </rdf:RDF>
 </metadata>
 <defs>
  <style type="text/css">*{stroke-linejoin: round; stroke-linecap: butt}</style>
 </defs>
 <g id="figure_1">
  <g id="patch_1">
   <path d="M 0 345.6 
L 460.8 345.6 
L 460.8 0 
L 0 0 
z
" style="fill: #ffffff"/>
  </g>
  <g id="axes_1">
   <g id="patch_2">
    <path d="M 57.6 307.584 
L 414.72 307.584 
L 414.72 41.472 
L 57.6 41.472 
z
" style="fill: #ffffff"/>
   </g>
   <g id="matplotlib.axis_1">
    <g id="xtick_1">
     <g id="text_1">
      <!-- −1.5 -->
      <g style="fill: #262626" transform="translate(46.742656 324.957594) scale(0.11 -0.11)">
       <defs>
        <path id="ArialMT-2212" d="M 3381 1997 
L 356 1997 
L 356 2522 
L 3381 2522 
L 3381 1997 
z
" transform="scale(0.015625)"/>
        <path id="ArialMT-31" d="M 2384 0 
L 1822 0 
L 1822 3584 
Q 1619 3391 1289 3197 
Q 959 3003 697 2906 
L 697 3450 
Q 1169 3672 1522 3987 
Q 1875 4303 2022 4600 
L 2384 4600 
L 2384 0 
z
" transform="scale(0.015625)"/>
        <path id="ArialMT-2e" d="M 581 0 
L 581 641 
L 1222 641 
L 1222 0 
L 581 0 
z
" transform="scale(0.015625)"/>
        <path id="ArialMT-35" d="M 266 1200 
L 856 1250 
Q 922 819 1161 601 
Q 1400 384 1738 384 
Q 2144 384 2425 690 
Q 2706 997 2706 1503 
Q 2706 1984 2436 2262 
Q 2166 2541 1728 2541 
Q 1456 2541 1237 2417 
Q 1019 2294 894 2097 
L 366 2166 
L 809 4519 
L 3088 4519 
L 3088 3981 
L 1259 3981 
L 1013 2750 
Q 1425 3038 1878 3038 
Q 2478 3038 2890 2622 
Q 3303 2206 3303 1553 
Q 3303 931 2941 478 
Q 2500 -78 1738 -78 
Q 1113 -78 717 272 
Q 322 622 266 1200 
z
" transform="scale(0.015625)"/>
       </defs>
       <use xlink:href="#ArialMT-2212"/>
       <use xlink:href="#ArialMT-31" transform="translate(58.398438 0)"/>
       <use xlink:href="#ArialMT-2e" transform="translate(114.013672 0)"/>
       <use xlink:href="#ArialMT-35" transform="translate(141.796875 0)"/>
      </g>
     </g>
    </g>
    <g id="xtick_2">
     <g id="text_2">
      <!-- −1.0 -->
      <g style="fill: #262626" transform="translate(118.166656 324.957594) scale(0.11 -0.11)">
       <defs>
        <path id="ArialMT-30" d="M 266 2259 
Q 266 3072 433 3567 
Q 600 4063 929 4331 
Q 1259 4600 1759 4600 
Q 2128 4600 2406 4451 
Q 2684 4303 2865 4023 
Q 3047 3744 3150 3342 
Q 3253 2941 3253 2259 
Q 3253 1453 3087 958 
Q 2922 463 2592 192 
Q 2263 -78 1759 -78 
Q 1097 -78 719 397 
Q 266 969 266 2259 
z
M 844 2259 
Q 844 1131 1108 757 
Q 1372 384 1759 384 
Q 2147 384 2411 759 
Q 2675 1134 2675 2259 
Q 2675 3391 2411 3762 
Q 2147 4134 1753 4134 
Q 1366 4134 1134 3806 
Q 844 3388 844 2259 
z
" transform="scale(0.015625)"/>
       </defs>
       <use xlink:href="#ArialMT-2212"/>
       <use xlink:href="#ArialMT-31" transform="translate(58.398438 0)"/>
       <use xlink:href="#ArialMT-2e" transform="translate(114.013672 0)"/>
       <use xlink:href="#ArialMT-30" transform="translate(141.796875 0)"/>
      </g>
     </g>
    </g>
    <g id="xtick_3">
     <g id="text_3">
      <!-- −0.5 -->
      <g style="fill: #262626" transform="translate(189.590656 324.957594) scale(0.11 -0.11)">
       <use xlink:href="#ArialMT-2212"/>
       <use xlink:href="#ArialMT-30" transform="translate(58.398438 0)"/>
       <use xlink:href="#ArialMT-2e" transform="translate(114.013672 0)"/>
       <use xlink:href="#ArialMT-35" transform="translate(141.796875 0)"/>
      </g>
     </g>
    </g>
    <g id="xtick_4">
     <g id="text_4">
      <!-- 0.0 -->
      <g style="fill: #262626" transform="translate(264.227 324.957594) scale(0.11 -0.11)">
       <use xlink:href="#ArialMT-30"/>
       <use xlink:href="#ArialMT-2e" transform="translate(55.615234 0)"/>
       <use xlink:href="#ArialMT-30" transform="translate(83.398438 0)"/>
      </g>
     </g>
    </g>
    <g id="xtick_5">
     <g id="text_5">
      <!-- 0.5 -->
      <g style="fill: #262626" transform="translate(335.651 324.957594) scale(0.11 -0.11)">
       <use xlink:href="#ArialMT-30"/>
       <use xlink:href="#ArialMT-2e" transform="translate(55.615234 0)"/>
       <use xlink:href="#ArialMT-35" transform="translate(83.398438 0)"/>
      </g>
     </g>
    </g>
    <g id="xtick_6">
     <g id="text_6">
      <!-- 1.0 -->
      <g style="fill: #262626" transform="translate(407.075 324.957594) scale(0.11 -0.11)">
       <use xlink:href="#ArialMT-31"/>
       <use xlink:href="#ArialMT-2e" transform="translate(55.615234 0)"/>
       <use xlink:href="#ArialMT-30" transform="translate(83.398438 0)"/>
      </g>
     </g>
    </g>
    <g id="text_7">
     <!-- standard-adjusted score -->
     <g style="fill: #262626" transform="translate(171.794062 339.733219) scale(0.12 -0.12)">
      <defs>
       <path id="ArialMT-73" d="M 197 991 
L 753 1078 
Q 800 744 1014 566 
Q 1228 388 1613 388 
Q 2000 388 2187 545 
Q 2375 703 2375 916 
Q 2375 1106 2209 1216 
Q 2094 1291 1634 1406 
Q 1016 1563 777 1677 
Q 538 1791 414 1992 
Q 291 2194 291 2438 
Q 291 2659 392 2848 
Q 494 3038 669 3163 
Q 800 3259 1026 3326 
Q 1253 3394 1513 3394 
Q 1903 3394 2198 3281 
Q 2494 3169 2634 2976 
Q 2775 2784 2828 2463 
L 2278 2388 
Q 2241 2644 2061 2787 
Q 1881 2931 1553 2931 
Q 1166 2931 1000 2803 
Q 834 2675 834 2503 
Q 834 2394 903 2306 
Q 972 2216 1119 2156 
Q 1203 2125 1616 2013 
Q 2213 1853 2448 1751 
Q 2684 1650 2818 1456 
Q 2953 1263 2953 975 
Q 2953 694 2789 445 
Q 2625 197 2315 61 
Q 2006 -75 1616 -75 
Q 969 -75 630 194 
Q 291 463 197 991 
z
" transform="scale(0.015625)"/>
       <path id="ArialMT-74" d="M 1650 503 
L 1731 6 
Q 1494 -44 1306 -44 
Q 1000 -44 831 53 
Q 663 150 594 308 
Q 525 466 525 972 
L 525 2881 
L 113 2881 
L 113 3319 
L 525 3319 
L 525 4141 
L 1084 4478 
L 1084 3319 
L 1650 3319 
L 1650 2881 
L 1084 2881 
L 1084 941 
Q 1084 700 1114 631 
Q 1144 563 1211 522 
Q 1278 481 1403 481 
Q 1497 481 1650 503 
z
" transform="scale(0.015625)"/>
       <path id="ArialMT-61" d="M 2588 409 
Q 2275 144 1986 34 
Q 1697 -75 1366 -75 
Q 819 -75 525 192 
Q 231 459 231 875 
Q 231 1119 342 1320 
Q 453 1522 633 1644 
Q 813 1766 1038 1828 
Q 1203 1872 1538 1913 
Q 2219 1994 2541 2106 
Q 2544 2222 2544 2253 
Q 2544 2597 2384 2738 
Q 2169 2928 1744 2928 
Q 1347 2928 1158 2789 
Q 969 2650 878 2297 
L 328 2372 
Q 403 2725 575 2942 
Q 747 3159 1072 3276 
Q 1397 3394 1825 3394 
Q 2250 3394 2515 3294 
Q 2781 3194 2906 3042 
Q 3031 2891 3081 2659 
Q 3109 2516 3109 2141 
L 3109 1391 
Q 3109 606 3145 398 
Q 3181 191 3288 0 
L 2700 0 
Q 2613 175 2588 409 
z
M 2541 1666 
Q 2234 1541 1622 1453 
Q 1275 1403 1131 1340 
Q 988 1278 909 1158 
Q 831 1038 831 891 
Q 831 666 1001 516 
Q 1172 366 1500 366 
Q 1825 366 2078 508 
Q 2331 650 2450 897 
Q 2541 1088 2541 1459 
L 2541 1666 
z
" transform="scale(0.015625)"/>
       <path id="ArialMT-6e" d="M 422 0 
L 422 3319 
L 928 3319 
L 928 2847 
Q 1294 3394 1984 3394 
Q 2284 3394 2536 3286 
Q 2788 3178 2913 3003 
Q 3038 2828 3088 2588 
Q 3119 2431 3119 2041 
L 3119 0 
L 2556 0 
L 2556 2019 
Q 2556 2363 2490 2533 
Q 2425 2703 2258 2804 
Q 2091 2906 1866 2906 
Q 1506 2906 1245 2678 
Q 984 2450 984 1813 
L 984 0 
L 422 0 
z
" transform="scale(0.015625)"/>
       <path id="ArialMT-64" d="M 2575 0 
L 2575 419 
Q 2259 -75 1647 -75 
Q 1250 -75 917 144 
Q 584 363 401 755 
Q 219 1147 219 1656 
Q 219 2153 384 2558 
Q 550 2963 881 3178 
Q 1213 3394 1622 3394 
Q 1922 3394 2156 3267 
Q 2391 3141 2538 2938 
L 2538 4581 
L 3097 4581 
L 3097 0 
L 2575 0 
z
M 797 1656 
Q 797 1019 1065 703 
Q 1334 388 1700 388 
Q 2069 388 2326 689 
Q 2584 991 2584 1609 
Q 2584 2291 2321 2609 
Q 2059 2928 1675 2928 
Q 1300 2928 1048 2622 
Q 797 2316 797 1656 
z
" transform="scale(0.015625)"/>
       <path id="ArialMT-72" d="M 416 0 
L 416 3319 
L 922 3319 
L 922 2816 
Q 1116 3169 1280 3281 
Q 1444 3394 1641 3394 
Q 1925 3394 2219 3213 
L 2025 2691 
Q 1819 2813 1613 2813 
Q 1428 2813 1281 2702 
Q 1134 2591 1072 2394 
Q 978 2094 978 1738 
L 978 0 
L 416 0 
z
" transform="scale(0.015625)"/>
       <path id="ArialMT-2d" d="M 203 1375 
L 203 1941 
L 1931 1941 
L 1931 1375 
L 203 1375 
z
" transform="scale(0.015625)"/>
       <path id="ArialMT-6a" d="M 419 3928 
L 419 4581 
L 981 4581 
L 981 3928 
L 419 3928 
z
M -294 -1288 
L -188 -809 
Q -19 -853 78 -853 
Q 250 -853 334 -739 
Q 419 -625 419 -169 
L 419 3319 
L 981 3319 
L 981 -181 
Q 981 -794 822 -1034 
Q 619 -1347 147 -1347 
Q -81 -1347 -294 -1288 
z
" transform="scale(0.015625)"/>
       <path id="ArialMT-75" d="M 2597 0 
L 2597 488 
Q 2209 -75 1544 -75 
Q 1250 -75 995 37 
Q 741 150 617 320 
Q 494 491 444 738 
Q 409 903 409 1263 
L 409 3319 
L 972 3319 
L 972 1478 
Q 972 1038 1006 884 
Q 1059 663 1231 536 
Q 1403 409 1656 409 
Q 1909 409 2131 539 
Q 2353 669 2445 892 
Q 2538 1116 2538 1541 
L 2538 3319 
L 3100 3319 
L 3100 0 
L 2597 0 
z
" transform="scale(0.015625)"/>
       <path id="ArialMT-65" d="M 2694 1069 
L 3275 997 
Q 3138 488 2766 206 
Q 2394 -75 1816 -75 
Q 1088 -75 661 373 
Q 234 822 234 1631 
Q 234 2469 665 2931 
Q 1097 3394 1784 3394 
Q 2450 3394 2872 2941 
Q 3294 2488 3294 1666 
Q 3294 1616 3291 1516 
L 816 1516 
Q 847 969 1125 678 
Q 1403 388 1819 388 
Q 2128 388 2347 550 
Q 2566 713 2694 1069 
z
M 847 1978 
L 2700 1978 
Q 2663 2397 2488 2606 
Q 2219 2931 1791 2931 
Q 1403 2931 1139 2672 
Q 875 2413 847 1978 
z
" transform="scale(0.015625)"/>
       <path id="ArialMT-20" transform="scale(0.015625)"/>
       <path id="ArialMT-63" d="M 2588 1216 
L 3141 1144 
Q 3050 572 2676 248 
Q 2303 -75 1759 -75 
Q 1078 -75 664 370 
Q 250 816 250 1647 
Q 250 2184 428 2587 
Q 606 2991 970 3192 
Q 1334 3394 1763 3394 
Q 2303 3394 2647 3120 
Q 2991 2847 3088 2344 
L 2541 2259 
Q 2463 2594 2264 2762 
Q 2066 2931 1784 2931 
Q 1359 2931 1093 2626 
Q 828 2322 828 1663 
Q 828 994 1084 691 
Q 1341 388 1753 388 
Q 2084 388 2306 591 
Q 2528 794 2588 1216 
z
" transform="scale(0.015625)"/>
       <path id="ArialMT-6f" d="M 213 1659 
Q 213 2581 725 3025 
Q 1153 3394 1769 3394 
Q 2453 3394 2887 2945 
Q 3322 2497 3322 1706 
Q 3322 1066 3130 698 
Q 2938 331 2570 128 
Q 2203 -75 1769 -75 
Q 1072 -75 642 372 
Q 213 819 213 1659 
z
M 791 1659 
Q 791 1022 1069 705 
Q 1347 388 1769 388 
Q 2188 388 2466 706 
Q 2744 1025 2744 1678 
Q 2744 2294 2464 2611 
Q 2184 2928 1769 2928 
Q 1347 2928 1069 2612 
Q 791 2297 791 1659 
z
" transform="scale(0.015625)"/>
      </defs>
      <use xlink:href="#ArialMT-73"/>
      <use xlink:href="#ArialMT-74" transform="translate(50 0)"/>
      <use xlink:href="#ArialMT-61" transform="translate(77.783203 0)"/>
      <use xlink:href="#ArialMT-6e" transform="translate(133.398438 0)"/>
      <use xlink:href="#ArialMT-64" transform="translate(189.013672 0)"/>
      <use xlink:href="#ArialMT-61" transform="translate(244.628906 0)"/>
      <use xlink:href="#ArialMT-72" transform="translate(300.244141 0)"/>
      <use xlink:href="#ArialMT-64" transform="translate(333.544922 0)"/>
      <use xlink:href="#ArialMT-2d" transform="translate(389.160156 0)"/>
      <use xlink:href="#ArialMT-61" transform="translate(422.460938 0)"/>
      <use xlink:href="#ArialMT-64" transform="translate(478.076172 0)"/>
      <use xlink:href="#ArialMT-6a" transform="translate(533.691406 0)"/>
      <use xlink:href="#ArialMT-75" transform="translate(555.908203 0)"/>
      <use xlink:href="#ArialMT-73" transform="translate(611.523438 0)"/>
      <use xlink:href="#ArialMT-74" transform="translate(661.523438 0)"/>
      <use xlink:href="#ArialMT-65" transform="translate(689.306641 0)"/>
      <use xlink:href="#ArialMT-64" transform="translate(744.921875 0)"/>
      <use xlink:href="#ArialMT-20" transform="translate(800.537109 0)"/>
      <use xlink:href="#ArialMT-73" transform="translate(828.320312 0)"/>
      <use xlink:href="#ArialMT-63" transform="translate(878.320312 0)"/>
      <use xlink:href="#ArialMT-6f" transform="translate(928.320312 0)"/>
      <use xlink:href="#ArialMT-72" transform="translate(983.935547 0)"/>
      <use xlink:href="#ArialMT-65" transform="translate(1017.236328 0)"/>
     </g>
    </g>
   </g>
   <g id="matplotlib.axis_2">
    <g id="ytick_1">
     <g id="text_8">
      <!-- 0 -->
      <g style="fill: #262626" transform="translate(41.982969 311.520797) scale(0.11 -0.11)">
       <use xlink:href="#ArialMT-30"/>
      </g>
     </g>
    </g>
    <g id="ytick_2">
     <g id="text_9">
      <!-- 1 -->
      <g style="fill: #262626" transform="translate(41.982969 279.364554) scale(0.11 -0.11)">
       <use xlink:href="#ArialMT-31"/>
      </g>
     </g>
    </g>
    <g id="ytick_3">
     <g id="text_10">
      <!-- 2 -->
      <g style="fill: #262626" transform="translate(41.982969 247.20831) scale(0.11 -0.11)">
       <defs>
        <path id="ArialMT-32" d="M 3222 541 
L 3222 0 
L 194 0 
Q 188 203 259 391 
Q 375 700 629 1000 
Q 884 1300 1366 1694 
Q 2113 2306 2375 2664 
Q 2638 3022 2638 3341 
Q 2638 3675 2398 3904 
Q 2159 4134 1775 4134 
Q 1369 4134 1125 3890 
Q 881 3647 878 3216 
L 300 3275 
Q 359 3922 746 4261 
Q 1134 4600 1788 4600 
Q 2447 4600 2831 4234 
Q 3216 3869 3216 3328 
Q 3216 3053 3103 2787 
Q 2991 2522 2730 2228 
Q 2469 1934 1863 1422 
Q 1356 997 1212 845 
Q 1069 694 975 541 
L 3222 541 
z
" transform="scale(0.015625)"/>
       </defs>
       <use xlink:href="#ArialMT-32"/>
      </g>
     </g>
    </g>
    <g id="ytick_4">
     <g id="text_11">
      <!-- 3 -->
      <g style="fill: #262626" transform="translate(41.982969 215.052067) scale(0.11 -0.11)">
       <defs>
        <path id="ArialMT-33" d="M 269 1209 
L 831 1284 
Q 928 806 1161 595 
Q 1394 384 1728 384 
Q 2125 384 2398 659 
Q 2672 934 2672 1341 
Q 2672 1728 2419 1979 
Q 2166 2231 1775 2231 
Q 1616 2231 1378 2169 
L 1441 2663 
Q 1497 2656 1531 2656 
Q 1891 2656 2178 2843 
Q 2466 3031 2466 3422 
Q 2466 3731 2256 3934 
Q 2047 4138 1716 4138 
Q 1388 4138 1169 3931 
Q 950 3725 888 3313 
L 325 3413 
Q 428 3978 793 4289 
Q 1159 4600 1703 4600 
Q 2078 4600 2393 4439 
Q 2709 4278 2876 4000 
Q 3044 3722 3044 3409 
Q 3044 3113 2884 2869 
Q 2725 2625 2413 2481 
Q 2819 2388 3044 2092 
Q 3269 1797 3269 1353 
Q 3269 753 2831 336 
Q 2394 -81 1725 -81 
Q 1122 -81 723 278 
Q 325 638 269 1209 
z
" transform="scale(0.015625)"/>
       </defs>
       <use xlink:href="#ArialMT-33"/>
      </g>
     </g>
    </g>
    <g id="ytick_5">
     <g id="text_12">
      <!-- 4 -->
      <g style="fill: #262626" transform="translate(41.982969 182.895824) scale(0.11 -0.11)">
       <defs>
        <path id="ArialMT-34" d="M 2069 0 
L 2069 1097 
L 81 1097 
L 81 1613 
L 2172 4581 
L 2631 4581 
L 2631 1613 
L 3250 1613 
L 3250 1097 
L 2631 1097 
L 2631 0 
L 2069 0 
z
M 2069 1613 
L 2069 3678 
L 634 1613 
L 2069 1613 
z
" transform="scale(0.015625)"/>
       </defs>
       <use xlink:href="#ArialMT-34"/>
      </g>
     </g>
    </g>
    <g id="ytick_6">
     <g id="text_13">
      <!-- 5 -->
      <g style="fill: #262626" transform="translate(41.982969 150.73958) scale(0.11 -0.11)">
       <use xlink:href="#ArialMT-35"/>
      </g>
     </g>
    </g>
    <g id="ytick_7">
     <g id="text_14">
      <!-- 6 -->
      <g style="fill: #262626" transform="translate(41.982969 118.583337) scale(0.11 -0.11)">
       <defs>
        <path id="ArialMT-36" d="M 3184 3459 
L 2625 3416 
Q 2550 3747 2413 3897 
Q 2184 4138 1850 4138 
Q 1581 4138 1378 3988 
Q 1113 3794 959 3422 
Q 806 3050 800 2363 
Q 1003 2672 1297 2822 
Q 1591 2972 1913 2972 
Q 2475 2972 2870 2558 
Q 3266 2144 3266 1488 
Q 3266 1056 3080 686 
Q 2894 316 2569 119 
Q 2244 -78 1831 -78 
Q 1128 -78 684 439 
Q 241 956 241 2144 
Q 241 3472 731 4075 
Q 1159 4600 1884 4600 
Q 2425 4600 2770 4297 
Q 3116 3994 3184 3459 
z
M 888 1484 
Q 888 1194 1011 928 
Q 1134 663 1356 523 
Q 1578 384 1822 384 
Q 2178 384 2434 671 
Q 2691 959 2691 1453 
Q 2691 1928 2437 2201 
Q 2184 2475 1800 2475 
Q 1419 2475 1153 2201 
Q 888 1928 888 1484 
z
" transform="scale(0.015625)"/>
       </defs>
       <use xlink:href="#ArialMT-36"/>
      </g>
     </g>
    </g>
    <g id="ytick_8">
     <g id="text_15">
      <!-- 7 -->
      <g style="fill: #262626" transform="translate(41.982969 86.427094) scale(0.11 -0.11)">
       <defs>
        <path id="ArialMT-37" d="M 303 3981 
L 303 4522 
L 3269 4522 
L 3269 4084 
Q 2831 3619 2401 2847 
Q 1972 2075 1738 1259 
Q 1569 684 1522 0 
L 944 0 
Q 953 541 1156 1306 
Q 1359 2072 1739 2783 
Q 2119 3494 2547 3981 
L 303 3981 
z
" transform="scale(0.015625)"/>
       </defs>
       <use xlink:href="#ArialMT-37"/>
      </g>
     </g>
    </g>
    <g id="ytick_9">
     <g id="text_16">
      <!-- 8 -->
      <g style="fill: #262626" transform="translate(41.982969 54.27085) scale(0.11 -0.11)">
       <defs>
        <path id="ArialMT-38" d="M 1131 2484 
Q 781 2613 612 2850 
Q 444 3088 444 3419 
Q 444 3919 803 4259 
Q 1163 4600 1759 4600 
Q 2359 4600 2725 4251 
Q 3091 3903 3091 3403 
Q 3091 3084 2923 2848 
Q 2756 2613 2416 2484 
Q 2838 2347 3058 2040 
Q 3278 1734 3278 1309 
Q 3278 722 2862 322 
Q 2447 -78 1769 -78 
Q 1091 -78 675 323 
Q 259 725 259 1325 
Q 259 1772 486 2073 
Q 713 2375 1131 2484 
z
M 1019 3438 
Q 1019 3113 1228 2906 
Q 1438 2700 1772 2700 
Q 2097 2700 2305 2904 
Q 2513 3109 2513 3406 
Q 2513 3716 2298 3927 
Q 2084 4138 1766 4138 
Q 1444 4138 1231 3931 
Q 1019 3725 1019 3438 
z
M 838 1322 
Q 838 1081 952 856 
Q 1066 631 1291 507 
Q 1516 384 1775 384 
Q 2178 384 2440 643 
Q 2703 903 2703 1303 
Q 2703 1709 2433 1975 
Q 2163 2241 1756 2241 
Q 1359 2241 1098 1978 
Q 838 1716 838 1322 
z
" transform="scale(0.015625)"/>
       </defs>
       <use xlink:href="#ArialMT-38"/>
      </g>
     </g>
    </g>
    <g id="text_17">
     <!-- Density -->
     <g style="fill: #262626" transform="translate(35.457344 194.53425) rotate(-90) scale(0.12 -0.12)">
      <defs>
       <path id="ArialMT-44" d="M 494 0 
L 494 4581 
L 2072 4581 
Q 2606 4581 2888 4516 
Q 3281 4425 3559 4188 
Q 3922 3881 4101 3404 
Q 4281 2928 4281 2316 
Q 4281 1794 4159 1391 
Q 4038 988 3847 723 
Q 3656 459 3429 307 
Q 3203 156 2883 78 
Q 2563 0 2147 0 
L 494 0 
z
M 1100 541 
L 2078 541 
Q 2531 541 2789 625 
Q 3047 709 3200 863 
Q 3416 1078 3536 1442 
Q 3656 1806 3656 2325 
Q 3656 3044 3420 3430 
Q 3184 3816 2847 3947 
Q 2603 4041 2063 4041 
L 1100 4041 
L 1100 541 
z
" transform="scale(0.015625)"/>
       <path id="ArialMT-69" d="M 425 3934 
L 425 4581 
L 988 4581 
L 988 3934 
L 425 3934 
z
M 425 0 
L 425 3319 
L 988 3319 
L 988 0 
L 425 0 
z
" transform="scale(0.015625)"/>
       <path id="ArialMT-79" d="M 397 -1278 
L 334 -750 
Q 519 -800 656 -800 
Q 844 -800 956 -737 
Q 1069 -675 1141 -563 
Q 1194 -478 1313 -144 
Q 1328 -97 1363 -6 
L 103 3319 
L 709 3319 
L 1400 1397 
Q 1534 1031 1641 628 
Q 1738 1016 1872 1384 
L 2581 3319 
L 3144 3319 
L 1881 -56 
Q 1678 -603 1566 -809 
Q 1416 -1088 1222 -1217 
Q 1028 -1347 759 -1347 
Q 597 -1347 397 -1278 
z
" transform="scale(0.015625)"/>
      </defs>
      <use xlink:href="#ArialMT-44"/>
      <use xlink:href="#ArialMT-65" transform="translate(72.216797 0)"/>
      <use xlink:href="#ArialMT-6e" transform="translate(127.832031 0)"/>
      <use xlink:href="#ArialMT-73" transform="translate(183.447266 0)"/>
      <use xlink:href="#ArialMT-69" transform="translate(233.447266 0)"/>
      <use xlink:href="#ArialMT-74" transform="translate(255.664062 0)"/>
      <use xlink:href="#ArialMT-79" transform="translate(283.447266 0)"/>
     </g>
    </g>
   </g>
   <g id="line2d_1">
    <path d="M 157.101018 307.555296 
L 158.733533 307.392153 
L 159.713042 307.099629 
L 160.69255 306.525874 
L 161.345556 305.924187 
L 161.998562 305.102404 
L 162.651568 304.019369 
L 163.304574 302.628805 
L 164.284082 299.864918 
L 165.263591 296.21807 
L 166.569603 290.177754 
L 167.875614 283.146708 
L 168.855123 276.824016 
L 169.834632 268.575348 
L 170.814141 257.437087 
L 171.793649 243.104415 
L 173.099661 219.720049 
L 174.405673 192.091472 
L 175.711684 159.683128 
L 178.323708 90.686604 
L 178.976714 77.760843 
L 179.629719 68.050012 
L 180.282725 61.481301 
L 180.935731 57.509772 
L 181.588737 55.370846 
L 182.241743 54.378617 
L 182.568246 54.176439 
L 182.894749 54.143991 
L 183.221252 54.28946 
L 183.547754 54.639086 
L 183.874257 55.23211 
L 184.20076 56.115307 
L 184.853766 58.947401 
L 185.506772 63.493713 
L 186.159778 70.030041 
L 186.812784 78.754001 
L 187.465789 89.807338 
L 188.445298 110.864448 
L 189.75131 146.213591 
L 192.363333 220.630631 
L 193.342842 241.161428 
L 193.995848 251.329867 
L 194.648854 258.743242 
L 195.301859 263.750515 
L 195.954865 266.89276 
L 196.607871 268.800723 
L 197.58738 270.637672 
L 198.566889 272.481204 
L 199.546397 274.92018 
L 200.525906 277.964718 
L 201.831918 282.834823 
L 203.464432 290.117381 
L 205.096947 297.289559 
L 206.076456 300.599085 
L 207.055964 302.997194 
L 208.035473 304.666968 
L 209.014982 305.79472 
L 209.667988 306.284516 
L 210.320994 306.567475 
L 210.973999 306.645326 
L 211.627005 306.532638 
L 212.606514 306.091018 
L 214.239029 305.223437 
L 214.892034 305.069455 
L 215.54504 305.104691 
L 216.198046 305.323934 
L 217.504058 306.101967 
L 218.810069 306.875689 
L 219.789578 307.253202 
L 221.09559 307.493128 
L 222.075098 307.555985 
L 222.075098 307.555985 
" clip-path="url(#p396780dd30)" style="fill: none; stroke: #4c72b0; stroke-width: 1.5; stroke-linecap: round"/>
   </g>
   <g id="line2d_2">
    <path d="M 74.649855 307.575579 
L 88.230488 307.503698 
L 95.020804 307.368002 
L 101.811121 307.053054 
L 108.601437 306.38904 
L 115.391753 305.116016 
L 122.18207 302.894154 
L 128.972386 299.360076 
L 135.762702 294.234445 
L 142.553019 287.460905 
L 149.343335 279.331592 
L 156.133651 270.543485 
L 162.923968 262.139947 
L 169.714284 255.322789 
L 176.5046 251.167509 
L 183.294917 250.326185 
L 190.085233 252.831904 
L 196.875549 258.094938 
L 203.665866 265.100023 
L 210.456182 272.718308 
L 217.246498 279.998993 
L 224.036815 286.334997 
L 230.827131 291.476905 
L 237.617447 295.44224 
L 244.407764 298.393162 
L 251.19808 300.536968 
L 257.988396 302.068669 
L 264.778713 303.149028 
L 271.569029 303.902787 
L 278.359345 304.424602 
L 291.939978 305.041201 
L 312.310927 305.524902 
L 359.843141 306.390248 
L 393.794723 306.69439 
L 461.8 307.110094 
L 461.8 307.110094 
" clip-path="url(#p396780dd30)" style="fill: none; stroke: #dd8452; stroke-width: 1.5; stroke-linecap: round"/>
   </g>
   <g id="line2d_3">
    <path d="M 122.097196 307.569723 
L 126.556551 307.432749 
L 128.786228 307.162764 
L 130.27268 306.790805 
L 131.759132 306.145435 
L 132.502357 305.673241 
L 133.245583 305.069357 
L 133.988809 304.305334 
L 134.732035 303.349527 
L 135.475261 302.167803 
L 136.218486 300.724687 
L 136.961712 298.984983 
L 137.704938 296.915862 
L 139.19139 291.685144 
L 140.677841 284.917699 
L 142.164293 276.707351 
L 144.39397 262.547236 
L 146.623648 248.249476 
L 148.110099 240.016999 
L 148.853325 236.569025 
L 149.596551 233.655402 
L 150.339777 231.316628 
L 151.083002 229.570343 
L 151.826228 228.411542 
L 152.569454 227.814257 
L 153.31268 227.734453 
L 154.055906 228.113753 
L 154.799131 228.883586 
L 155.542357 229.969335 
L 157.028809 232.782183 
L 160.001712 239.005895 
L 161.488164 241.513976 
L 162.231389 242.479144 
L 162.974615 243.221077 
L 163.717841 243.727337 
L 164.461067 243.99376 
L 165.204293 244.023935 
L 165.947518 243.828282 
L 166.690744 243.422702 
L 167.43397 242.826865 
L 168.920422 241.150397 
L 170.406873 238.960169 
L 171.893325 236.373385 
L 174.123002 231.880099 
L 176.35268 226.782034 
L 180.068809 217.970491 
L 181.55526 214.921185 
L 183.041712 212.51648 
L 183.784937 211.639451 
L 184.528163 211.025348 
L 185.271389 210.709232 
L 186.014615 210.725764 
L 186.757841 211.107969 
L 187.501066 211.885537 
L 188.244292 213.082796 
L 188.987518 214.716548 
L 189.730744 216.79404 
L 190.47397 219.31133 
L 191.960421 225.588349 
L 193.446873 233.274043 
L 195.67655 246.466867 
L 198.649453 264.414536 
L 200.135905 272.504103 
L 201.622357 279.597575 
L 203.108808 285.560699 
L 204.59526 290.382939 
L 206.081711 294.150329 
L 207.568163 297.011669 
L 209.054615 299.143844 
L 210.541066 300.721653 
L 212.027518 301.896331 
L 213.513969 302.784816 
L 215.743647 303.752717 
L 217.973324 304.425615 
L 220.946227 305.044069 
L 234.324292 307.244437 
L 237.297195 307.446188 
L 241.013324 307.472838 
L 244.729453 307.276183 
L 253.648162 306.595481 
L 256.621066 306.75605 
L 265.539775 307.495846 
L 269.99913 307.572995 
L 269.99913 307.572995 
" clip-path="url(#p396780dd30)" style="fill: none; stroke: #55a868; stroke-width: 1.5; stroke-linecap: round"/>
   </g>
   <g id="line2d_4">
    <path d="M -1 307.286792 
L 11.463659 307.044801 
L 26.476877 306.526251 
L 41.490096 305.643138 
L 48.996705 305.019638 
L 56.503314 304.251381 
L 64.009923 303.323667 
L 71.516533 302.226225 
L 79.023142 300.955081 
L 86.529751 299.51435 
L 94.03636 297.917707 
L 109.049578 294.364247 
L 131.569406 288.799568 
L 139.076015 287.110701 
L 146.582624 285.60768 
L 154.089234 284.347198 
L 161.595843 283.377226 
L 169.102452 282.733739 
L 176.609061 282.438296 
L 184.11567 282.496699 
L 191.622279 282.89886 
L 199.128889 283.619855 
L 206.635498 284.622029 
L 214.142107 285.857915 
L 221.648716 287.273661 
L 236.661935 290.418833 
L 251.675153 293.629961 
L 266.688371 296.571433 
L 274.19498 297.872527 
L 281.70159 299.041374 
L 289.208199 300.073383 
L 296.714808 300.970409 
L 304.221417 301.739401 
L 319.234636 302.938259 
L 334.247854 303.776833 
L 349.261072 304.367192 
L 371.7809 304.989707 
L 416.820555 305.911862 
L 461.8 306.637938 
L 461.8 306.637938 
" clip-path="url(#p396780dd30)" style="fill: none; stroke: #c44e52; stroke-width: 1.5; stroke-linecap: round"/>
   </g>
   <g id="line2d_5">
    <path d="M 390.259573 307.584 
L 390.259573 41.472 
" clip-path="url(#p396780dd30)" style="fill: none; stroke-dasharray: 5.55,2.4; stroke-dashoffset: 0; stroke: #808080; stroke-width: 1.5"/>
   </g>
   <g id="line2d_6">
    <path clip-path="url(#p396780dd30)" style="fill: none; stroke-dasharray: 5.55,2.4; stroke-dashoffset: 0; stroke: #808080; stroke-width: 1.5"/>
   </g>
   <g id="line2d_7">
    <path clip-path="url(#p396780dd30)" style="fill: none; stroke-dasharray: 5.55,2.4; stroke-dashoffset: 0; stroke: #808080; stroke-width: 1.5"/>
   </g>
   <g id="line2d_8">
    <path clip-path="url(#p396780dd30)" style="fill: none; stroke-dasharray: 5.55,2.4; stroke-dashoffset: 0; stroke: #808080; stroke-width: 1.5"/>
   </g>
   <g id="line2d_9">
    <path d="M 149.976044 307.584 
L 149.976044 41.472 
" clip-path="url(#p396780dd30)" style="fill: none; stroke-dasharray: 5.55,2.4; stroke-dashoffset: 0; stroke: #808080; stroke-width: 1.5"/>
   </g>
   <g id="patch_3">
    <path d="M 57.6 307.584 
L 57.6 41.472 
" style="fill: none; stroke: #262626; stroke-width: 1.25; stroke-linejoin: miter; stroke-linecap: square"/>
   </g>
   <g id="patch_4">
    <path d="M 414.72 307.584 
L 414.72 41.472 
" style="fill: none; stroke: #262626; stroke-width: 1.25; stroke-linejoin: miter; stroke-linecap: square"/>
   </g>
   <g id="patch_5">
    <path d="M 57.6 307.584 
L 414.72 307.584 
" style="fill: none; stroke: #262626; stroke-width: 1.25; stroke-linejoin: miter; stroke-linecap: square"/>
   </g>
   <g id="patch_6">
    <path d="M 57.6 41.472 
L 414.72 41.472 
" style="fill: none; stroke: #262626; stroke-width: 1.25; stroke-linejoin: miter; stroke-linecap: square"/>
   </g>
   <g id="text_18">
    <!-- BRAF_cterm activity -->
    <g style="fill: #262626" transform="translate(181.81875 35.472) scale(0.12 -0.12)">
     <defs>
      <path id="ArialMT-42" d="M 469 0 
L 469 4581 
L 2188 4581 
Q 2713 4581 3030 4442 
Q 3347 4303 3526 4014 
Q 3706 3725 3706 3409 
Q 3706 3116 3547 2856 
Q 3388 2597 3066 2438 
Q 3481 2316 3704 2022 
Q 3928 1728 3928 1328 
Q 3928 1006 3792 729 
Q 3656 453 3456 303 
Q 3256 153 2954 76 
Q 2653 0 2216 0 
L 469 0 
z
M 1075 2656 
L 2066 2656 
Q 2469 2656 2644 2709 
Q 2875 2778 2992 2937 
Q 3109 3097 3109 3338 
Q 3109 3566 3000 3739 
Q 2891 3913 2687 3977 
Q 2484 4041 1991 4041 
L 1075 4041 
L 1075 2656 
z
M 1075 541 
L 2216 541 
Q 2509 541 2628 563 
Q 2838 600 2978 687 
Q 3119 775 3209 942 
Q 3300 1109 3300 1328 
Q 3300 1584 3169 1773 
Q 3038 1963 2805 2039 
Q 2572 2116 2134 2116 
L 1075 2116 
L 1075 541 
z
" transform="scale(0.015625)"/>
      <path id="ArialMT-52" d="M 503 0 
L 503 4581 
L 2534 4581 
Q 3147 4581 3465 4457 
Q 3784 4334 3975 4021 
Q 4166 3709 4166 3331 
Q 4166 2844 3850 2509 
Q 3534 2175 2875 2084 
Q 3116 1969 3241 1856 
Q 3506 1613 3744 1247 
L 4541 0 
L 3778 0 
L 3172 953 
Q 2906 1366 2734 1584 
Q 2563 1803 2427 1890 
Q 2291 1978 2150 2013 
Q 2047 2034 1813 2034 
L 1109 2034 
L 1109 0 
L 503 0 
z
M 1109 2559 
L 2413 2559 
Q 2828 2559 3062 2645 
Q 3297 2731 3419 2920 
Q 3541 3109 3541 3331 
Q 3541 3656 3305 3865 
Q 3069 4075 2559 4075 
L 1109 4075 
L 1109 2559 
z
" transform="scale(0.015625)"/>
      <path id="ArialMT-41" d="M -9 0 
L 1750 4581 
L 2403 4581 
L 4278 0 
L 3588 0 
L 3053 1388 
L 1138 1388 
L 634 0 
L -9 0 
z
M 1313 1881 
L 2866 1881 
L 2388 3150 
Q 2169 3728 2063 4100 
Q 1975 3659 1816 3225 
L 1313 1881 
z
" transform="scale(0.015625)"/>
      <path id="ArialMT-46" d="M 525 0 
L 525 4581 
L 3616 4581 
L 3616 4041 
L 1131 4041 
L 1131 2622 
L 3281 2622 
L 3281 2081 
L 1131 2081 
L 1131 0 
L 525 0 
z
" transform="scale(0.015625)"/>
      <path id="ArialMT-5f" d="M -97 -1272 
L -97 -866 
L 3631 -866 
L 3631 -1272 
L -97 -1272 
z
" transform="scale(0.015625)"/>
      <path id="ArialMT-6d" d="M 422 0 
L 422 3319 
L 925 3319 
L 925 2853 
Q 1081 3097 1340 3245 
Q 1600 3394 1931 3394 
Q 2300 3394 2536 3241 
Q 2772 3088 2869 2813 
Q 3263 3394 3894 3394 
Q 4388 3394 4653 3120 
Q 4919 2847 4919 2278 
L 4919 0 
L 4359 0 
L 4359 2091 
Q 4359 2428 4304 2576 
Q 4250 2725 4106 2815 
Q 3963 2906 3769 2906 
Q 3419 2906 3187 2673 
Q 2956 2441 2956 1928 
L 2956 0 
L 2394 0 
L 2394 2156 
Q 2394 2531 2256 2718 
Q 2119 2906 1806 2906 
Q 1569 2906 1367 2781 
Q 1166 2656 1075 2415 
Q 984 2175 984 1722 
L 984 0 
L 422 0 
z
" transform="scale(0.015625)"/>
      <path id="ArialMT-76" d="M 1344 0 
L 81 3319 
L 675 3319 
L 1388 1331 
Q 1503 1009 1600 663 
Q 1675 925 1809 1294 
L 2547 3319 
L 3125 3319 
L 1869 0 
L 1344 0 
z
" transform="scale(0.015625)"/>
     </defs>
     <use xlink:href="#ArialMT-42"/>
     <use xlink:href="#ArialMT-52" transform="translate(66.699219 0)"/>
     <use xlink:href="#ArialMT-41" transform="translate(138.916016 0)"/>
     <use xlink:href="#ArialMT-46" transform="translate(205.615234 0)"/>
     <use xlink:href="#ArialMT-5f" transform="translate(266.699219 0)"/>
     <use xlink:href="#ArialMT-63" transform="translate(322.314453 0)"/>
     <use xlink:href="#ArialMT-74" transform="translate(372.314453 0)"/>
     <use xlink:href="#ArialMT-65" transform="translate(400.097656 0)"/>
     <use xlink:href="#ArialMT-72" transform="translate(455.712891 0)"/>
     <use xlink:href="#ArialMT-6d" transform="translate(489.013672 0)"/>
     <use xlink:href="#ArialMT-20" transform="translate(572.314453 0)"/>
     <use xlink:href="#ArialMT-61" transform="translate(600.097656 0)"/>
     <use xlink:href="#ArialMT-63" transform="translate(655.712891 0)"/>
     <use xlink:href="#ArialMT-74" transform="translate(705.712891 0)"/>
     <use xlink:href="#ArialMT-69" transform="translate(733.496094 0)"/>
     <use xlink:href="#ArialMT-76" transform="translate(755.712891 0)"/>
     <use xlink:href="#ArialMT-69" transform="translate(805.712891 0)"/>
     <use xlink:href="#ArialMT-74" transform="translate(827.929688 0)"/>
     <use xlink:href="#ArialMT-79" transform="translate(855.712891 0)"/>
    </g>
   </g>
   <g id="legend_1">
    <g id="patch_7">
     <path d="M 289.914688 112.640281 
L 407.02 112.640281 
Q 409.22 112.640281 409.22 110.440281 
L 409.22 49.172 
Q 409.22 46.972 407.02 46.972 
L 289.914688 46.972 
Q 287.714688 46.972 287.714688 49.172 
L 287.714688 110.440281 
Q 287.714688 112.640281 289.914688 112.640281 
z
" style="fill: #ffffff; opacity: 0.8; stroke: #cccccc; stroke-linejoin: miter"/>
    </g>
    <g id="line2d_10">
     <path d="M 292.114688 55.395594 
L 303.114688 55.395594 
L 314.114688 55.395594 
" style="fill: none; stroke: #4c72b0; stroke-width: 1.5; stroke-linecap: round"/>
    </g>
    <g id="text_19">
     <!-- synonymous WT -->
     <g style="fill: #262626" transform="translate(322.914688 59.245594) scale(0.11 -0.11)">
      <defs>
       <path id="ArialMT-57" d="M 1294 0 
L 78 4581 
L 700 4581 
L 1397 1578 
Q 1509 1106 1591 641 
Q 1766 1375 1797 1488 
L 2669 4581 
L 3400 4581 
L 4056 2263 
Q 4303 1400 4413 641 
Q 4500 1075 4641 1638 
L 5359 4581 
L 5969 4581 
L 4713 0 
L 4128 0 
L 3163 3491 
Q 3041 3928 3019 4028 
Q 2947 3713 2884 3491 
L 1913 0 
L 1294 0 
z
" transform="scale(0.015625)"/>
       <path id="ArialMT-54" d="M 1659 0 
L 1659 4041 
L 150 4041 
L 150 4581 
L 3781 4581 
L 3781 4041 
L 2266 4041 
L 2266 0 
L 1659 0 
z
" transform="scale(0.015625)"/>
      </defs>
      <use xlink:href="#ArialMT-73"/>
      <use xlink:href="#ArialMT-79" transform="translate(50 0)"/>
      <use xlink:href="#ArialMT-6e" transform="translate(100 0)"/>
      <use xlink:href="#ArialMT-6f" transform="translate(155.615234 0)"/>
      <use xlink:href="#ArialMT-6e" transform="translate(211.230469 0)"/>
      <use xlink:href="#ArialMT-79" transform="translate(266.845703 0)"/>
      <use xlink:href="#ArialMT-6d" transform="translate(316.845703 0)"/>
      <use xlink:href="#ArialMT-6f" transform="translate(400.146484 0)"/>
      <use xlink:href="#ArialMT-75" transform="translate(455.761719 0)"/>
      <use xlink:href="#ArialMT-73" transform="translate(511.376953 0)"/>
      <use xlink:href="#ArialMT-20" transform="translate(561.376953 0)"/>
      <use xlink:href="#ArialMT-57" transform="translate(589.160156 0)"/>
      <use xlink:href="#ArialMT-54" transform="translate(683.544922 0)"/>
     </g>
    </g>
    <g id="line2d_11">
     <path d="M 292.114688 71.084344 
L 303.114688 71.084344 
L 314.114688 71.084344 
" style="fill: none; stroke: #dd8452; stroke-width: 1.5; stroke-linecap: round"/>
    </g>
    <g id="text_20">
     <!-- missense -->
     <g style="fill: #262626" transform="translate(322.914688 74.934344) scale(0.11 -0.11)">
      <use xlink:href="#ArialMT-6d"/>
      <use xlink:href="#ArialMT-69" transform="translate(83.300781 0)"/>
      <use xlink:href="#ArialMT-73" transform="translate(105.517578 0)"/>
      <use xlink:href="#ArialMT-73" transform="translate(155.517578 0)"/>
      <use xlink:href="#ArialMT-65" transform="translate(205.517578 0)"/>
      <use xlink:href="#ArialMT-6e" transform="translate(261.132812 0)"/>
      <use xlink:href="#ArialMT-73" transform="translate(316.748047 0)"/>
      <use xlink:href="#ArialMT-65" transform="translate(366.748047 0)"/>
     </g>
    </g>
    <g id="line2d_12">
     <path d="M 292.114688 86.644188 
L 303.114688 86.644188 
L 314.114688 86.644188 
" style="fill: none; stroke: #55a868; stroke-width: 1.5; stroke-linecap: round"/>
    </g>
    <g id="text_21">
     <!-- nonsense -->
     <g style="fill: #262626" transform="translate(322.914688 90.494188) scale(0.11 -0.11)">
      <use xlink:href="#ArialMT-6e"/>
      <use xlink:href="#ArialMT-6f" transform="translate(55.615234 0)"/>
      <use xlink:href="#ArialMT-6e" transform="translate(111.230469 0)"/>
      <use xlink:href="#ArialMT-73" transform="translate(166.845703 0)"/>
      <use xlink:href="#ArialMT-65" transform="translate(216.845703 0)"/>
      <use xlink:href="#ArialMT-6e" transform="translate(272.460938 0)"/>
      <use xlink:href="#ArialMT-73" transform="translate(328.076172 0)"/>
      <use xlink:href="#ArialMT-65" transform="translate(378.076172 0)"/>
     </g>
    </g>
    <g id="line2d_13">
     <path d="M 292.114688 102.204031 
L 303.114688 102.204031 
L 314.114688 102.204031 
" style="fill: none; stroke: #c44e52; stroke-width: 1.5; stroke-linecap: round"/>
    </g>
    <g id="text_22">
     <!-- deletion -->
     <g style="fill: #262626" transform="translate(322.914688 106.054031) scale(0.11 -0.11)">
      <defs>
       <path id="ArialMT-6c" d="M 409 0 
L 409 4581 
L 972 4581 
L 972 0 
L 409 0 
z
" transform="scale(0.015625)"/>
      </defs>
      <use xlink:href="#ArialMT-64"/>
      <use xlink:href="#ArialMT-65" transform="translate(55.615234 0)"/>
      <use xlink:href="#ArialMT-6c" transform="translate(111.230469 0)"/>
      <use xlink:href="#ArialMT-65" transform="translate(133.447266 0)"/>
      <use xlink:href="#ArialMT-74" transform="translate(189.0625 0)"/>
      <use xlink:href="#ArialMT-69" transform="translate(216.845703 0)"/>
      <use xlink:href="#ArialMT-6f" transform="translate(239.0625 0)"/>
      <use xlink:href="#ArialMT-6e" transform="translate(294.677734 0)"/>
     </g>
    </g>
   </g>
  </g>
 </g>
 <defs>
  <clipPath id="p396780dd30">
   <rect x="57.6" y="41.472" width="357.12" height="266.112"/>
  </clipPath>
 </defs>
</svg>
