<?xml version="1.0" encoding="utf-8" standalone="no"?>
<!DOCTYPE svg PUBLIC "-//W3C//DTD SVG 1.1//EN"
  "http://www.w3.org/Graphics/SVG/1.1/DTD/svg11.dtd">
<svg xmlns:xlink="http://www.w3.org/1999/xlink" width="460.8pt" height="345.6pt" viewBox="0 0 460.8 345.6" xmlns="http://www.w3.org/2000/svg" version="1.1">
 <metadata>
  <rdf:RDF xmlns:dc="http://purl.org/dc/elements/1.1/" xmlns:cc="http://creativecommons.org/ns#" xmlns:rdf="http://www.w3.org/1999/02/22-rdf-syntax-ns#">
   <cc:Work>
    <dc:type rdf:resource="http://purl.org/dc/dcmitype/StillImage"/>
    <dc:date>2026-04-01T17:00:02.238987</dc:date>
    <dc:format>image/svg+xml</dc:format>
    <dc:creator>
     <cc:Agent>
      <dc:title>Matplotlib v3.10.8, https://matplotlib.org/</dc:title>
     </cc:Agent>
    </dc:creator>
   </cc:Work>
  </rdf:RDF>
 </metadata>
 <defs>
  <style type="text/css">*{stroke-linejoin: round; stroke-linecap: butt}</style>
 </defs>
 <g id="figure_1">
  <g id="patch_1">
   <path d="M 0 345.6 
L 460.8 345.6 
L 460.8 0 
L 0 0 
z
" style="fill: #ffffff"/>
  </g>
  <g id="axes_1">
   <g id="patch_2">
    <path d="M 57.6 307.584 
L 414.72 307.584 
L 414.72 41.472 
L 57.6 41.472 
z
" style="fill: #ffffff"/>
   </g>
   <g id="matplotlib.axis_1">
    <g id="xtick_1">
     <g id="text_1">
      <!-- −1.0 -->
      <g style="fill: #262626" transform="translate(46.742656 324.957594) scale(0.11 -0.11)">
       <defs>
        <path id="ArialMT-2212" d="M 3381 1997 
L 356 1997 
L 356 2522 
L 3381 2522 
L 3381 1997 
z
" transform="scale(0.015625)"/>
        <path id="ArialMT-31" d="M 2384 0 
L 1822 0 
L 1822 3584 
Q 1619 3391 1289 3197 
Q 959 3003 697 2906 
L 697 3450 
Q 1169 3672 1522 3987 
Q 1875 4303 2022 4600 
L 2384 4600 
L 2384 0 
z
" transform="scale(0.015625)"/>
        <path id="ArialMT-2e" d="M 581 0 
L 581 641 
L 1222 641 
L 1222 0 
L 581 0 
z
" transform="scale(0.015625)"/>
        <path id="ArialMT-30" d="M 266 2259 
Q 266 3072 433 3567 
Q 600 4063 929 4331 
Q 1259 4600 1759 4600 
Q 2128 4600 2406 4451 
Q 2684 4303 2865 4023 
Q 3047 3744 3150 3342 
Q 3253 2941 3253 2259 
Q 3253 1453 3087 958 
Q 2922 463 2592 192 
Q 2263 -78 1759 -78 
Q 1097 -78 719 397 
Q 266 969 266 2259 
z
M 844 2259 
Q 844 1131 1108 757 
Q 1372 384 1759 384 
Q 2147 384 2411 759 
Q 2675 1134 2675 2259 
Q 2675 3391 2411 3762 
Q 2147 4134 1753 4134 
Q 1366 4134 1134 3806 
Q 844 3388 844 2259 
z
" transform="scale(0.015625)"/>
       </defs>
       <use xlink:href="#ArialMT-2212"/>
       <use xlink:href="#ArialMT-31" transform="translate(58.398438 0)"/>
       <use xlink:href="#ArialMT-2e" transform="translate(114.013672 0)"/>
       <use xlink:href="#ArialMT-30" transform="translate(141.796875 0)"/>
      </g>
     </g>
    </g>
    <g id="xtick_2">
     <g id="text_2">
      <!-- −0.5 -->
      <g style="fill: #262626" transform="translate(97.759799 324.957594) scale(0.11 -0.11)">
       <defs>
        <path id="ArialMT-35" d="M 266 1200 
L 856 1250 
Q 922 819 1161 601 
Q 1400 384 1738 384 
Q 2144 384 2425 690 
Q 2706 997 2706 1503 
Q 2706 1984 2436 2262 
Q 2166 2541 1728 2541 
Q 1456 2541 1237 2417 
Q 1019 2294 894 2097 
L 366 2166 
L 809 4519 
L 3088 4519 
L 3088 3981 
L 1259 3981 
L 1013 2750 
Q 1425 3038 1878 3038 
Q 2478 3038 2890 2622 
Q 3303 2206 3303 1553 
Q 3303 931 2941 478 
Q 2500 -78 1738 -78 
Q 1113 -78 717 272 
Q 322 622 266 1200 
z
" transform="scale(0.015625)"/>
       </defs>
       <use xlink:href="#ArialMT-2212"/>
       <use xlink:href="#ArialMT-30" transform="translate(58.398438 0)"/>
       <use xlink:href="#ArialMT-2e" transform="translate(114.013672 0)"/>
       <use xlink:href="#ArialMT-35" transform="translate(141.796875 0)"/>
      </g>
     </g>
    </g>
    <g id="xtick_3">
     <g id="text_3">
      <!-- 0.0 -->
      <g style="fill: #262626" transform="translate(151.989286 324.957594) scale(0.11 -0.11)">
       <use xlink:href="#ArialMT-30"/>
       <use xlink:href="#ArialMT-2e" transform="translate(55.615234 0)"/>
       <use xlink:href="#ArialMT-30" transform="translate(83.398438 0)"/>
      </g>
     </g>
    </g>
    <g id="xtick_4">
     <g id="text_4">
      <!-- 0.5 -->
      <g style="fill: #262626" transform="translate(203.006429 324.957594) scale(0.11 -0.11)">
       <use xlink:href="#ArialMT-30"/>
       <use xlink:href="#ArialMT-2e" transform="translate(55.615234 0)"/>
       <use xlink:href="#ArialMT-35" transform="translate(83.398438 0)"/>
      </g>
     </g>
    </g>
    <g id="xtick_5">
     <g id="text_5">
      <!-- 1.0 -->
      <g style="fill: #262626" transform="translate(254.023571 324.957594) scale(0.11 -0.11)">
       <use xlink:href="#ArialMT-31"/>
       <use xlink:href="#ArialMT-2e" transform="translate(55.615234 0)"/>
       <use xlink:href="#ArialMT-30" transform="translate(83.398438 0)"/>
      </g>
     </g>
    </g>
    <g id="xtick_6">
     <g id="text_6">
      <!-- 1.5 -->
      <g style="fill: #262626" transform="translate(305.040714 324.957594) scale(0.11 -0.11)">
       <use xlink:href="#ArialMT-31"/>
       <use xlink:href="#ArialMT-2e" transform="translate(55.615234 0)"/>
       <use xlink:href="#ArialMT-35" transform="translate(83.398438 0)"/>
      </g>
     </g>
    </g>
    <g id="xtick_7">
     <g id="text_7">
      <!-- 2.0 -->
      <g style="fill: #262626" transform="translate(356.057857 324.957594) scale(0.11 -0.11)">
       <defs>
        <path id="ArialMT-32" d="M 3222 541 
L 3222 0 
L 194 0 
Q 188 203 259 391 
Q 375 700 629 1000 
Q 884 1300 1366 1694 
Q 2113 2306 2375 2664 
Q 2638 3022 2638 3341 
Q 2638 3675 2398 3904 
Q 2159 4134 1775 4134 
Q 1369 4134 1125 3890 
Q 881 3647 878 3216 
L 300 3275 
Q 359 3922 746 4261 
Q 1134 4600 1788 4600 
Q 2447 4600 2831 4234 
Q 3216 3869 3216 3328 
Q 3216 3053 3103 2787 
Q 2991 2522 2730 2228 
Q 2469 1934 1863 1422 
Q 1356 997 1212 845 
Q 1069 694 975 541 
L 3222 541 
z
" transform="scale(0.015625)"/>
       </defs>
       <use xlink:href="#ArialMT-32"/>
       <use xlink:href="#ArialMT-2e" transform="translate(55.615234 0)"/>
       <use xlink:href="#ArialMT-30" transform="translate(83.398438 0)"/>
      </g>
     </g>
    </g>
    <g id="xtick_8">
     <g id="text_8">
      <!-- 2.5 -->
      <g style="fill: #262626" transform="translate(407.075 324.957594) scale(0.11 -0.11)">
       <use xlink:href="#ArialMT-32"/>
       <use xlink:href="#ArialMT-2e" transform="translate(55.615234 0)"/>
       <use xlink:href="#ArialMT-35" transform="translate(83.398438 0)"/>
      </g>
     </g>
    </g>
    <g id="text_9">
     <!-- average score -->
     <g style="fill: #262626" transform="translate(198.141562 339.592594) scale(0.12 -0.12)">
      <defs>
       <path id="ArialMT-61" d="M 2588 409 
Q 2275 144 1986 34 
Q 1697 -75 1366 -75 
Q 819 -75 525 192 
Q 231 459 231 875 
Q 231 1119 342 1320 
Q 453 1522 633 1644 
Q 813 1766 1038 1828 
Q 1203 1872 1538 1913 
Q 2219 1994 2541 2106 
Q 2544 2222 2544 2253 
Q 2544 2597 2384 2738 
Q 2169 2928 1744 2928 
Q 1347 2928 1158 2789 
Q 969 2650 878 2297 
L 328 2372 
Q 403 2725 575 2942 
Q 747 3159 1072 3276 
Q 1397 3394 1825 3394 
Q 2250 3394 2515 3294 
Q 2781 3194 2906 3042 
Q 3031 2891 3081 2659 
Q 3109 2516 3109 2141 
L 3109 1391 
Q 3109 606 3145 398 
Q 3181 191 3288 0 
L 2700 0 
Q 2613 175 2588 409 
z
M 2541 1666 
Q 2234 1541 1622 1453 
Q 1275 1403 1131 1340 
Q 988 1278 909 1158 
Q 831 1038 831 891 
Q 831 666 1001 516 
Q 1172 366 1500 366 
Q 1825 366 2078 508 
Q 2331 650 2450 897 
Q 2541 1088 2541 1459 
L 2541 1666 
z
" transform="scale(0.015625)"/>
       <path id="ArialMT-76" d="M 1344 0 
L 81 3319 
L 675 3319 
L 1388 1331 
Q 1503 1009 1600 663 
Q 1675 925 1809 1294 
L 2547 3319 
L 3125 3319 
L 1869 0 
L 1344 0 
z
" transform="scale(0.015625)"/>
       <path id="ArialMT-65" d="M 2694 1069 
L 3275 997 
Q 3138 488 2766 206 
Q 2394 -75 1816 -75 
Q 1088 -75 661 373 
Q 234 822 234 1631 
Q 234 2469 665 2931 
Q 1097 3394 1784 3394 
Q 2450 3394 2872 2941 
Q 3294 2488 3294 1666 
Q 3294 1616 3291 1516 
L 816 1516 
Q 847 969 1125 678 
Q 1403 388 1819 388 
Q 2128 388 2347 550 
Q 2566 713 2694 1069 
z
M 847 1978 
L 2700 1978 
Q 2663 2397 2488 2606 
Q 2219 2931 1791 2931 
Q 1403 2931 1139 2672 
Q 875 2413 847 1978 
z
" transform="scale(0.015625)"/>
       <path id="ArialMT-72" d="M 416 0 
L 416 3319 
L 922 3319 
L 922 2816 
Q 1116 3169 1280 3281 
Q 1444 3394 1641 3394 
Q 1925 3394 2219 3213 
L 2025 2691 
Q 1819 2813 1613 2813 
Q 1428 2813 1281 2702 
Q 1134 2591 1072 2394 
Q 978 2094 978 1738 
L 978 0 
L 416 0 
z
" transform="scale(0.015625)"/>
       <path id="ArialMT-67" d="M 319 -275 
L 866 -356 
Q 900 -609 1056 -725 
Q 1266 -881 1628 -881 
Q 2019 -881 2231 -725 
Q 2444 -569 2519 -288 
Q 2563 -116 2559 434 
Q 2191 0 1641 0 
Q 956 0 581 494 
Q 206 988 206 1678 
Q 206 2153 378 2554 
Q 550 2956 876 3175 
Q 1203 3394 1644 3394 
Q 2231 3394 2613 2919 
L 2613 3319 
L 3131 3319 
L 3131 450 
Q 3131 -325 2973 -648 
Q 2816 -972 2473 -1159 
Q 2131 -1347 1631 -1347 
Q 1038 -1347 672 -1080 
Q 306 -813 319 -275 
z
M 784 1719 
Q 784 1066 1043 766 
Q 1303 466 1694 466 
Q 2081 466 2343 764 
Q 2606 1063 2606 1700 
Q 2606 2309 2336 2618 
Q 2066 2928 1684 2928 
Q 1309 2928 1046 2623 
Q 784 2319 784 1719 
z
" transform="scale(0.015625)"/>
       <path id="ArialMT-20" transform="scale(0.015625)"/>
       <path id="ArialMT-73" d="M 197 991 
L 753 1078 
Q 800 744 1014 566 
Q 1228 388 1613 388 
Q 2000 388 2187 545 
Q 2375 703 2375 916 
Q 2375 1106 2209 1216 
Q 2094 1291 1634 1406 
Q 1016 1563 777 1677 
Q 538 1791 414 1992 
Q 291 2194 291 2438 
Q 291 2659 392 2848 
Q 494 3038 669 3163 
Q 800 3259 1026 3326 
Q 1253 3394 1513 3394 
Q 1903 3394 2198 3281 
Q 2494 3169 2634 2976 
Q 2775 2784 2828 2463 
L 2278 2388 
Q 2241 2644 2061 2787 
Q 1881 2931 1553 2931 
Q 1166 2931 1000 2803 
Q 834 2675 834 2503 
Q 834 2394 903 2306 
Q 972 2216 1119 2156 
Q 1203 2125 1616 2013 
Q 2213 1853 2448 1751 
Q 2684 1650 2818 1456 
Q 2953 1263 2953 975 
Q 2953 694 2789 445 
Q 2625 197 2315 61 
Q 2006 -75 1616 -75 
Q 969 -75 630 194 
Q 291 463 197 991 
z
" transform="scale(0.015625)"/>
       <path id="ArialMT-63" d="M 2588 1216 
L 3141 1144 
Q 3050 572 2676 248 
Q 2303 -75 1759 -75 
Q 1078 -75 664 370 
Q 250 816 250 1647 
Q 250 2184 428 2587 
Q 606 2991 970 3192 
Q 1334 3394 1763 3394 
Q 2303 3394 2647 3120 
Q 2991 2847 3088 2344 
L 2541 2259 
Q 2463 2594 2264 2762 
Q 2066 2931 1784 2931 
Q 1359 2931 1093 2626 
Q 828 2322 828 1663 
Q 828 994 1084 691 
Q 1341 388 1753 388 
Q 2084 388 2306 591 
Q 2528 794 2588 1216 
z
" transform="scale(0.015625)"/>
       <path id="ArialMT-6f" d="M 213 1659 
Q 213 2581 725 3025 
Q 1153 3394 1769 3394 
Q 2453 3394 2887 2945 
Q 3322 2497 3322 1706 
Q 3322 1066 3130 698 
Q 2938 331 2570 128 
Q 2203 -75 1769 -75 
Q 1072 -75 642 372 
Q 213 819 213 1659 
z
M 791 1659 
Q 791 1022 1069 705 
Q 1347 388 1769 388 
Q 2188 388 2466 706 
Q 2744 1025 2744 1678 
Q 2744 2294 2464 2611 
Q 2184 2928 1769 2928 
Q 1347 2928 1069 2612 
Q 791 2297 791 1659 
z
" transform="scale(0.015625)"/>
      </defs>
      <use xlink:href="#ArialMT-61"/>
      <use xlink:href="#ArialMT-76" transform="translate(55.615234 0)"/>
      <use xlink:href="#ArialMT-65" transform="translate(105.615234 0)"/>
      <use xlink:href="#ArialMT-72" transform="translate(161.230469 0)"/>
      <use xlink:href="#ArialMT-61" transform="translate(194.53125 0)"/>
      <use xlink:href="#ArialMT-67" transform="translate(250.146484 0)"/>
      <use xlink:href="#ArialMT-65" transform="translate(305.761719 0)"/>
      <use xlink:href="#ArialMT-20" transform="translate(361.376953 0)"/>
      <use xlink:href="#ArialMT-73" transform="translate(389.160156 0)"/>
      <use xlink:href="#ArialMT-63" transform="translate(439.160156 0)"/>
      <use xlink:href="#ArialMT-6f" transform="translate(489.160156 0)"/>
      <use xlink:href="#ArialMT-72" transform="translate(544.775391 0)"/>
      <use xlink:href="#ArialMT-65" transform="translate(578.076172 0)"/>
     </g>
    </g>
   </g>
   <g id="matplotlib.axis_2">
    <g id="ytick_1">
     <g id="text_10">
      <!-- 0.0 -->
      <g style="fill: #262626" transform="translate(32.81 311.520797) scale(0.11 -0.11)">
       <use xlink:href="#ArialMT-30"/>
       <use xlink:href="#ArialMT-2e" transform="translate(55.615234 0)"/>
       <use xlink:href="#ArialMT-30" transform="translate(83.398438 0)"/>
      </g>
     </g>
    </g>
    <g id="ytick_2">
     <g id="text_11">
      <!-- 0.5 -->
      <g style="fill: #262626" transform="translate(32.81 278.273134) scale(0.11 -0.11)">
       <use xlink:href="#ArialMT-30"/>
       <use xlink:href="#ArialMT-2e" transform="translate(55.615234 0)"/>
       <use xlink:href="#ArialMT-35" transform="translate(83.398438 0)"/>
      </g>
     </g>
    </g>
    <g id="ytick_3">
     <g id="text_12">
      <!-- 1.0 -->
      <g style="fill: #262626" transform="translate(32.81 245.025471) scale(0.11 -0.11)">
       <use xlink:href="#ArialMT-31"/>
       <use xlink:href="#ArialMT-2e" transform="translate(55.615234 0)"/>
       <use xlink:href="#ArialMT-30" transform="translate(83.398438 0)"/>
      </g>
     </g>
    </g>
    <g id="ytick_4">
     <g id="text_13">
      <!-- 1.5 -->
      <g style="fill: #262626" transform="translate(32.81 211.777807) scale(0.11 -0.11)">
       <use xlink:href="#ArialMT-31"/>
       <use xlink:href="#ArialMT-2e" transform="translate(55.615234 0)"/>
       <use xlink:href="#ArialMT-35" transform="translate(83.398438 0)"/>
      </g>
     </g>
    </g>
    <g id="ytick_5">
     <g id="text_14">
      <!-- 2.0 -->
      <g style="fill: #262626" transform="translate(32.81 178.530144) scale(0.11 -0.11)">
       <use xlink:href="#ArialMT-32"/>
       <use xlink:href="#ArialMT-2e" transform="translate(55.615234 0)"/>
       <use xlink:href="#ArialMT-30" transform="translate(83.398438 0)"/>
      </g>
     </g>
    </g>
    <g id="ytick_6">
     <g id="text_15">
      <!-- 2.5 -->
      <g style="fill: #262626" transform="translate(32.81 145.282481) scale(0.11 -0.11)">
       <use xlink:href="#ArialMT-32"/>
       <use xlink:href="#ArialMT-2e" transform="translate(55.615234 0)"/>
       <use xlink:href="#ArialMT-35" transform="translate(83.398438 0)"/>
      </g>
     </g>
    </g>
    <g id="ytick_7">
     <g id="text_16">
      <!-- 3.0 -->
      <g style="fill: #262626" transform="translate(32.81 112.034818) scale(0.11 -0.11)">
       <defs>
        <path id="ArialMT-33" d="M 269 1209 
L 831 1284 
Q 928 806 1161 595 
Q 1394 384 1728 384 
Q 2125 384 2398 659 
Q 2672 934 2672 1341 
Q 2672 1728 2419 1979 
Q 2166 2231 1775 2231 
Q 1616 2231 1378 2169 
L 1441 2663 
Q 1497 2656 1531 2656 
Q 1891 2656 2178 2843 
Q 2466 3031 2466 3422 
Q 2466 3731 2256 3934 
Q 2047 4138 1716 4138 
Q 1388 4138 1169 3931 
Q 950 3725 888 3313 
L 325 3413 
Q 428 3978 793 4289 
Q 1159 4600 1703 4600 
Q 2078 4600 2393 4439 
Q 2709 4278 2876 4000 
Q 3044 3722 3044 3409 
Q 3044 3113 2884 2869 
Q 2725 2625 2413 2481 
Q 2819 2388 3044 2092 
Q 3269 1797 3269 1353 
Q 3269 753 2831 336 
Q 2394 -81 1725 -81 
Q 1122 -81 723 278 
Q 325 638 269 1209 
z
" transform="scale(0.015625)"/>
       </defs>
       <use xlink:href="#ArialMT-33"/>
       <use xlink:href="#ArialMT-2e" transform="translate(55.615234 0)"/>
       <use xlink:href="#ArialMT-30" transform="translate(83.398438 0)"/>
      </g>
     </g>
    </g>
    <g id="ytick_8">
     <g id="text_17">
      <!-- 3.5 -->
      <g style="fill: #262626" transform="translate(32.81 78.787155) scale(0.11 -0.11)">
       <use xlink:href="#ArialMT-33"/>
       <use xlink:href="#ArialMT-2e" transform="translate(55.615234 0)"/>
       <use xlink:href="#ArialMT-35" transform="translate(83.398438 0)"/>
      </g>
     </g>
    </g>
    <g id="ytick_9">
     <g id="text_18">
      <!-- 4.0 -->
      <g style="fill: #262626" transform="translate(32.81 45.539491) scale(0.11 -0.11)">
       <defs>
        <path id="ArialMT-34" d="M 2069 0 
L 2069 1097 
L 81 1097 
L 81 1613 
L 2172 4581 
L 2631 4581 
L 2631 1613 
L 3250 1613 
L 3250 1097 
L 2631 1097 
L 2631 0 
L 2069 0 
z
M 2069 1613 
L 2069 3678 
L 634 1613 
L 2069 1613 
z
" transform="scale(0.015625)"/>
       </defs>
       <use xlink:href="#ArialMT-34"/>
       <use xlink:href="#ArialMT-2e" transform="translate(55.615234 0)"/>
       <use xlink:href="#ArialMT-30" transform="translate(83.398438 0)"/>
      </g>
     </g>
    </g>
    <g id="text_19">
     <!-- Density -->
     <g style="fill: #262626" transform="translate(26.284375 194.53425) rotate(-90) scale(0.12 -0.12)">
      <defs>
       <path id="ArialMT-44" d="M 494 0 
L 494 4581 
L 2072 4581 
Q 2606 4581 2888 4516 
Q 3281 4425 3559 4188 
Q 3922 3881 4101 3404 
Q 4281 2928 4281 2316 
Q 4281 1794 4159 1391 
Q 4038 988 3847 723 
Q 3656 459 3429 307 
Q 3203 156 2883 78 
Q 2563 0 2147 0 
L 494 0 
z
M 1100 541 
L 2078 541 
Q 2531 541 2789 625 
Q 3047 709 3200 863 
Q 3416 1078 3536 1442 
Q 3656 1806 3656 2325 
Q 3656 3044 3420 3430 
Q 3184 3816 2847 3947 
Q 2603 4041 2063 4041 
L 1100 4041 
L 1100 541 
z
" transform="scale(0.015625)"/>
       <path id="ArialMT-6e" d="M 422 0 
L 422 3319 
L 928 3319 
L 928 2847 
Q 1294 3394 1984 3394 
Q 2284 3394 2536 3286 
Q 2788 3178 2913 3003 
Q 3038 2828 3088 2588 
Q 3119 2431 3119 2041 
L 3119 0 
L 2556 0 
L 2556 2019 
Q 2556 2363 2490 2533 
Q 2425 2703 2258 2804 
Q 2091 2906 1866 2906 
Q 1506 2906 1245 2678 
Q 984 2450 984 1813 
L 984 0 
L 422 0 
z
" transform="scale(0.015625)"/>
       <path id="ArialMT-69" d="M 425 3934 
L 425 4581 
L 988 4581 
L 988 3934 
L 425 3934 
z
M 425 0 
L 425 3319 
L 988 3319 
L 988 0 
L 425 0 
z
" transform="scale(0.015625)"/>
       <path id="ArialMT-74" d="M 1650 503 
L 1731 6 
Q 1494 -44 1306 -44 
Q 1000 -44 831 53 
Q 663 150 594 308 
Q 525 466 525 972 
L 525 2881 
L 113 2881 
L 113 3319 
L 525 3319 
L 525 4141 
L 1084 4478 
L 1084 3319 
L 1650 3319 
L 1650 2881 
L 1084 2881 
L 1084 941 
Q 1084 700 1114 631 
Q 1144 563 1211 522 
Q 1278 481 1403 481 
Q 1497 481 1650 503 
z
" transform="scale(0.015625)"/>
       <path id="ArialMT-79" d="M 397 -1278 
L 334 -750 
Q 519 -800 656 -800 
Q 844 -800 956 -737 
Q 1069 -675 1141 -563 
Q 1194 -478 1313 -144 
Q 1328 -97 1363 -6 
L 103 3319 
L 709 3319 
L 1400 1397 
Q 1534 1031 1641 628 
Q 1738 1016 1872 1384 
L 2581 3319 
L 3144 3319 
L 1881 -56 
Q 1678 -603 1566 -809 
Q 1416 -1088 1222 -1217 
Q 1028 -1347 759 -1347 
Q 597 -1347 397 -1278 
z
" transform="scale(0.015625)"/>
      </defs>
      <use xlink:href="#ArialMT-44"/>
      <use xlink:href="#ArialMT-65" transform="translate(72.216797 0)"/>
      <use xlink:href="#ArialMT-6e" transform="translate(127.832031 0)"/>
      <use xlink:href="#ArialMT-73" transform="translate(183.447266 0)"/>
      <use xlink:href="#ArialMT-69" transform="translate(233.447266 0)"/>
      <use xlink:href="#ArialMT-74" transform="translate(255.664062 0)"/>
      <use xlink:href="#ArialMT-79" transform="translate(283.447266 0)"/>
     </g>
    </g>
   </g>
   <g id="line2d_1">
    <path d="M 218.153151 307.555555 
L 220.708226 307.385123 
L 222.241271 307.078926 
L 223.774315 306.501937 
L 225.30736 305.613028 
L 227.862435 303.701939 
L 231.43954 300.841467 
L 232.46157 299.599394 
L 233.4836 297.828688 
L 234.50563 295.355423 
L 235.52766 292.090678 
L 236.549689 288.047198 
L 238.082734 280.710578 
L 239.615779 272.066495 
L 241.148824 262.043272 
L 242.681869 250.299811 
L 244.214914 236.572245 
L 245.747959 220.868604 
L 247.792019 197.083054 
L 249.325064 176.996258 
L 250.858108 154.545695 
L 252.902168 121.023171 
L 254.946228 87.514605 
L 255.968258 73.525375 
L 256.990288 62.933659 
L 257.501303 59.153958 
L 258.012318 56.44125 
L 258.523333 54.787129 
L 259.034348 54.143985 
L 259.545363 54.429253 
L 260.056378 55.531974 
L 260.567393 57.321175 
L 261.589423 62.393326 
L 263.633482 75.076196 
L 265.677542 88.433184 
L 266.699572 96.138864 
L 267.721602 105.458844 
L 268.743632 116.929633 
L 269.765662 130.679798 
L 271.298707 154.664311 
L 273.853782 195.971949 
L 275.386827 216.471835 
L 276.408857 227.429362 
L 277.430886 236.421743 
L 278.963931 247.316053 
L 281.007991 259.457133 
L 282.541036 267.439314 
L 283.563066 271.974934 
L 284.585096 275.726862 
L 285.607126 278.764274 
L 289.695246 289.702114 
L 292.25032 297.734183 
L 293.27235 300.305018 
L 294.29438 302.204514 
L 295.31641 303.43752 
L 296.33844 304.142358 
L 297.36047 304.522831 
L 303.492649 306.041929 
L 304.514679 306.014658 
L 306.047724 305.707109 
L 308.091784 305.204049 
L 309.113814 305.117964 
L 310.135844 305.212839 
L 311.668889 305.659947 
L 315.245994 307.010026 
L 316.779038 307.333755 
L 318.823098 307.522178 
L 319.845128 307.556879 
L 319.845128 307.556879 
" clip-path="url(#pfd8385ce00)" style="fill: none; stroke: #4c72b0; stroke-width: 1.5; stroke-linecap: round"/>
   </g>
   <g id="line2d_2">
    <path d="M 111.88541 307.57476 
L 129.9986 307.503251 
L 139.055194 307.373687 
L 148.111789 307.079671 
L 157.168383 306.468679 
L 166.224978 305.305029 
L 175.281572 303.272383 
L 184.338167 300.01401 
L 193.394762 295.220249 
L 202.451356 288.753235 
L 211.507951 280.774863 
L 229.62114 262.817219 
L 238.677734 254.8803 
L 247.734329 249.143344 
L 256.790924 246.448433 
L 265.847518 247.130976 
L 274.904113 250.936265 
L 283.960707 257.109435 
L 293.017302 264.622205 
L 302.073896 272.444569 
L 311.130491 279.76171 
L 320.187086 286.076738 
L 329.24368 291.199206 
L 338.300275 295.162462 
L 347.356869 298.12281 
L 356.413464 300.277483 
L 365.470058 301.814917 
L 374.526653 302.893825 
L 383.583248 303.64056 
L 392.639842 304.15422 
L 410.753031 304.773787 
L 437.922815 305.324304 
L 461.8 305.726537 
L 461.8 305.726537 
" clip-path="url(#pfd8385ce00)" style="fill: none; stroke: #dd8452; stroke-width: 1.5; stroke-linecap: round"/>
   </g>
   <g id="line2d_3">
    <path d="M 179.227711 307.542341 
L 183.302954 307.382185 
L 186.359386 307.013813 
L 188.397008 306.516958 
L 190.434629 305.685145 
L 191.45344 305.096673 
L 192.47225 304.364027 
L 193.491061 303.46334 
L 194.509872 302.369738 
L 195.528683 301.058035 
L 196.547493 299.50359 
L 197.566304 297.683324 
L 198.585115 295.576882 
L 199.603925 293.167922 
L 200.622736 290.445484 
L 202.660358 284.051761 
L 204.697979 276.468307 
L 206.7356 267.933652 
L 211.829654 245.547951 
L 213.867275 237.82045 
L 214.886086 234.530516 
L 215.904897 231.700264 
L 216.923708 229.367279 
L 217.942518 227.550063 
L 218.961329 226.247049 
L 219.98014 225.436997 
L 220.99895 225.080768 
L 222.017761 225.124343 
L 223.036572 225.5028 
L 224.055383 226.144892 
L 226.093004 227.931424 
L 230.168247 231.835079 
L 232.205868 233.355069 
L 234.24349 234.45074 
L 236.281111 235.135982 
L 238.318733 235.440153 
L 240.356354 235.36892 
L 242.393975 234.895558 
L 244.431597 233.972307 
L 246.469218 232.547599 
L 248.50684 230.581406 
L 250.544461 228.060073 
L 252.582083 225.015653 
L 254.619704 221.550571 
L 259.713758 212.571622 
L 260.732568 211.066854 
L 261.751379 209.777961 
L 262.77019 208.755961 
L 263.789 208.048259 
L 264.807811 207.696727 
L 265.826622 207.736043 
L 266.845433 208.192389 
L 267.864243 209.082535 
L 268.883054 210.413339 
L 269.901865 212.181636 
L 270.920675 214.374475 
L 271.939486 216.969657 
L 273.977108 223.236939 
L 276.014729 230.655715 
L 279.071161 243.042871 
L 283.146404 259.657715 
L 285.184025 267.193306 
L 287.221647 273.906215 
L 289.259268 279.70588 
L 291.29689 284.599137 
L 293.334511 288.659999 
L 295.372133 291.99515 
L 297.409754 294.714764 
L 299.447375 296.914673 
L 301.484997 298.671123 
L 303.522618 300.045382 
L 305.56024 301.093295 
L 307.597861 301.87451 
L 310.654293 302.697192 
L 320.8424 304.953102 
L 326.955265 306.436604 
L 330.011697 306.952786 
L 333.068129 307.274906 
L 337.143372 307.463028 
L 342.237425 307.438531 
L 347.331479 307.188311 
L 357.519586 306.556091 
L 361.594829 306.63789 
L 367.707693 307.077125 
L 373.820558 307.434916 
L 380.952233 307.567242 
L 381.971043 307.572527 
L 381.971043 307.572527 
" clip-path="url(#pfd8385ce00)" style="fill: none; stroke: #55a868; stroke-width: 1.5; stroke-linecap: round"/>
   </g>
   <g id="line2d_4">
    <path d="M -1 307.335754 
L 12.729061 307.180667 
L 34.081138 306.75618 
L 55.433215 305.998864 
L 66.109253 305.446611 
L 76.785292 304.751081 
L 87.46133 303.892994 
L 98.137369 302.856365 
L 108.813407 301.630633 
L 119.489445 300.21287 
L 130.165484 298.60983 
L 140.841522 296.8396 
L 162.193599 292.931417 
L 183.545676 288.872173 
L 194.221715 286.946391 
L 204.897753 285.18387 
L 215.573791 283.652873 
L 226.24983 282.41425 
L 236.925868 281.51712 
L 247.601907 280.995355 
L 258.277945 280.865234 
L 268.953984 281.124487 
L 279.630022 281.752823 
L 290.306061 282.713833 
L 300.982099 283.958055 
L 311.658138 285.426828 
L 333.010214 288.782931 
L 365.03833 293.964128 
L 375.714368 295.538986 
L 386.390407 296.985912 
L 397.066445 298.288985 
L 407.742484 299.441346 
L 418.418522 300.443796 
L 429.09456 301.303183 
L 439.770599 302.030733 
L 461.122676 303.147914 
L 461.8 303.174617 
L 461.8 303.174617 
" clip-path="url(#pfd8385ce00)" style="fill: none; stroke: #c44e52; stroke-width: 1.5; stroke-linecap: round"/>
   </g>
   <g id="line2d_5">
    <path clip-path="url(#pfd8385ce00)" style="fill: none; stroke-dasharray: 5.55,2.4; stroke-dashoffset: 0; stroke: #808080; stroke-width: 1.5"/>
   </g>
   <g id="line2d_6">
    <path clip-path="url(#pfd8385ce00)" style="fill: none; stroke-dasharray: 5.55,2.4; stroke-dashoffset: 0; stroke: #808080; stroke-width: 1.5"/>
   </g>
   <g id="line2d_7">
    <path clip-path="url(#pfd8385ce00)" style="fill: none; stroke-dasharray: 5.55,2.4; stroke-dashoffset: 0; stroke: #808080; stroke-width: 1.5"/>
   </g>
   <g id="line2d_8">
    <path clip-path="url(#pfd8385ce00)" style="fill: none; stroke-dasharray: 5.55,2.4; stroke-dashoffset: 0; stroke: #808080; stroke-width: 1.5"/>
   </g>
   <g id="line2d_9">
    <path d="M 213.175792 307.584 
L 213.175792 41.472 
" clip-path="url(#pfd8385ce00)" style="fill: none; stroke-dasharray: 5.55,2.4; stroke-dashoffset: 0; stroke: #808080; stroke-width: 1.5"/>
   </g>
   <g id="patch_3">
    <path d="M 57.6 307.584 
L 57.6 41.472 
" style="fill: none; stroke: #262626; stroke-width: 1.25; stroke-linejoin: miter; stroke-linecap: square"/>
   </g>
   <g id="patch_4">
    <path d="M 414.72 307.584 
L 414.72 41.472 
" style="fill: none; stroke: #262626; stroke-width: 1.25; stroke-linejoin: miter; stroke-linecap: square"/>
   </g>
   <g id="patch_5">
    <path d="M 57.6 307.584 
L 414.72 307.584 
" style="fill: none; stroke: #262626; stroke-width: 1.25; stroke-linejoin: miter; stroke-linecap: square"/>
   </g>
   <g id="patch_6">
    <path d="M 57.6 41.472 
L 414.72 41.472 
" style="fill: none; stroke: #262626; stroke-width: 1.25; stroke-linejoin: miter; stroke-linecap: square"/>
   </g>
   <g id="text_20">
    <!-- BRAF_cterm activity -->
    <g style="fill: #262626" transform="translate(181.81875 35.472) scale(0.12 -0.12)">
     <defs>
      <path id="ArialMT-42" d="M 469 0 
L 469 4581 
L 2188 4581 
Q 2713 4581 3030 4442 
Q 3347 4303 3526 4014 
Q 3706 3725 3706 3409 
Q 3706 3116 3547 2856 
Q 3388 2597 3066 2438 
Q 3481 2316 3704 2022 
Q 3928 1728 3928 1328 
Q 3928 1006 3792 729 
Q 3656 453 3456 303 
Q 3256 153 2954 76 
Q 2653 0 2216 0 
L 469 0 
z
M 1075 2656 
L 2066 2656 
Q 2469 2656 2644 2709 
Q 2875 2778 2992 2937 
Q 3109 3097 3109 3338 
Q 3109 3566 3000 3739 
Q 2891 3913 2687 3977 
Q 2484 4041 1991 4041 
L 1075 4041 
L 1075 2656 
z
M 1075 541 
L 2216 541 
Q 2509 541 2628 563 
Q 2838 600 2978 687 
Q 3119 775 3209 942 
Q 3300 1109 3300 1328 
Q 3300 1584 3169 1773 
Q 3038 1963 2805 2039 
Q 2572 2116 2134 2116 
L 1075 2116 
L 1075 541 
z
" transform="scale(0.015625)"/>
      <path id="ArialMT-52" d="M 503 0 
L 503 4581 
L 2534 4581 
Q 3147 4581 3465 4457 
Q 3784 4334 3975 4021 
Q 4166 3709 4166 3331 
Q 4166 2844 3850 2509 
Q 3534 2175 2875 2084 
Q 3116 1969 3241 1856 
Q 3506 1613 3744 1247 
L 4541 0 
L 3778 0 
L 3172 953 
Q 2906 1366 2734 1584 
Q 2563 1803 2427 1890 
Q 2291 1978 2150 2013 
Q 2047 2034 1813 2034 
L 1109 2034 
L 1109 0 
L 503 0 
z
M 1109 2559 
L 2413 2559 
Q 2828 2559 3062 2645 
Q 3297 2731 3419 2920 
Q 3541 3109 3541 3331 
Q 3541 3656 3305 3865 
Q 3069 4075 2559 4075 
L 1109 4075 
L 1109 2559 
z
" transform="scale(0.015625)"/>
      <path id="ArialMT-41" d="M -9 0 
L 1750 4581 
L 2403 4581 
L 4278 0 
L 3588 0 
L 3053 1388 
L 1138 1388 
L 634 0 
L -9 0 
z
M 1313 1881 
L 2866 1881 
L 2388 3150 
Q 2169 3728 2063 4100 
Q 1975 3659 1816 3225 
L 1313 1881 
z
" transform="scale(0.015625)"/>
      <path id="ArialMT-46" d="M 525 0 
L 525 4581 
L 3616 4581 
L 3616 4041 
L 1131 4041 
L 1131 2622 
L 3281 2622 
L 3281 2081 
L 1131 2081 
L 1131 0 
L 525 0 
z
" transform="scale(0.015625)"/>
      <path id="ArialMT-5f" d="M -97 -1272 
L -97 -866 
L 3631 -866 
L 3631 -1272 
L -97 -1272 
z
" transform="scale(0.015625)"/>
      <path id="ArialMT-6d" d="M 422 0 
L 422 3319 
L 925 3319 
L 925 2853 
Q 1081 3097 1340 3245 
Q 1600 3394 1931 3394 
Q 2300 3394 2536 3241 
Q 2772 3088 2869 2813 
Q 3263 3394 3894 3394 
Q 4388 3394 4653 3120 
Q 4919 2847 4919 2278 
L 4919 0 
L 4359 0 
L 4359 2091 
Q 4359 2428 4304 2576 
Q 4250 2725 4106 2815 
Q 3963 2906 3769 2906 
Q 3419 2906 3187 2673 
Q 2956 2441 2956 1928 
L 2956 0 
L 2394 0 
L 2394 2156 
Q 2394 2531 2256 2718 
Q 2119 2906 1806 2906 
Q 1569 2906 1367 2781 
Q 1166 2656 1075 2415 
Q 984 2175 984 1722 
L 984 0 
L 422 0 
z
" transform="scale(0.015625)"/>
     </defs>
     <use xlink:href="#ArialMT-42"/>
     <use xlink:href="#ArialMT-52" transform="translate(66.699219 0)"/>
     <use xlink:href="#ArialMT-41" transform="translate(138.916016 0)"/>
     <use xlink:href="#ArialMT-46" transform="translate(205.615234 0)"/>
     <use xlink:href="#ArialMT-5f" transform="translate(266.699219 0)"/>
     <use xlink:href="#ArialMT-63" transform="translate(322.314453 0)"/>
     <use xlink:href="#ArialMT-74" transform="translate(372.314453 0)"/>
     <use xlink:href="#ArialMT-65" transform="translate(400.097656 0)"/>
     <use xlink:href="#ArialMT-72" transform="translate(455.712891 0)"/>
     <use xlink:href="#ArialMT-6d" transform="translate(489.013672 0)"/>
     <use xlink:href="#ArialMT-20" transform="translate(572.314453 0)"/>
     <use xlink:href="#ArialMT-61" transform="translate(600.097656 0)"/>
     <use xlink:href="#ArialMT-63" transform="translate(655.712891 0)"/>
     <use xlink:href="#ArialMT-74" transform="translate(705.712891 0)"/>
     <use xlink:href="#ArialMT-69" transform="translate(733.496094 0)"/>
     <use xlink:href="#ArialMT-76" transform="translate(755.712891 0)"/>
     <use xlink:href="#ArialMT-69" transform="translate(805.712891 0)"/>
     <use xlink:href="#ArialMT-74" transform="translate(827.929688 0)"/>
     <use xlink:href="#ArialMT-79" transform="translate(855.712891 0)"/>
    </g>
   </g>
   <g id="legend_1">
    <g id="patch_7">
     <path d="M 289.914688 112.640281 
L 407.02 112.640281 
Q 409.22 112.640281 409.22 110.440281 
L 409.22 49.172 
Q 409.22 46.972 407.02 46.972 
L 289.914688 46.972 
Q 287.714688 46.972 287.714688 49.172 
L 287.714688 110.440281 
Q 287.714688 112.640281 289.914688 112.640281 
z
" style="fill: #ffffff; opacity: 0.8; stroke: #cccccc; stroke-linejoin: miter"/>
    </g>
    <g id="line2d_10">
     <path d="M 292.114688 55.395594 
L 303.114688 55.395594 
L 314.114688 55.395594 
" style="fill: none; stroke: #4c72b0; stroke-width: 1.5; stroke-linecap: round"/>
    </g>
    <g id="text_21">
     <!-- synonymous WT -->
     <g style="fill: #262626" transform="translate(322.914688 59.245594) scale(0.11 -0.11)">
      <defs>
       <path id="ArialMT-75" d="M 2597 0 
L 2597 488 
Q 2209 -75 1544 -75 
Q 1250 -75 995 37 
Q 741 150 617 320 
Q 494 491 444 738 
Q 409 903 409 1263 
L 409 3319 
L 972 3319 
L 972 1478 
Q 972 1038 1006 884 
Q 1059 663 1231 536 
Q 1403 409 1656 409 
Q 1909 409 2131 539 
Q 2353 669 2445 892 
Q 2538 1116 2538 1541 
L 2538 3319 
L 3100 3319 
L 3100 0 
L 2597 0 
z
" transform="scale(0.015625)"/>
       <path id="ArialMT-57" d="M 1294 0 
L 78 4581 
L 700 4581 
L 1397 1578 
Q 1509 1106 1591 641 
Q 1766 1375 1797 1488 
L 2669 4581 
L 3400 4581 
L 4056 2263 
Q 4303 1400 4413 641 
Q 4500 1075 4641 1638 
L 5359 4581 
L 5969 4581 
L 4713 0 
L 4128 0 
L 3163 3491 
Q 3041 3928 3019 4028 
Q 2947 3713 2884 3491 
L 1913 0 
L 1294 0 
z
" transform="scale(0.015625)"/>
       <path id="ArialMT-54" d="M 1659 0 
L 1659 4041 
L 150 4041 
L 150 4581 
L 3781 4581 
L 3781 4041 
L 2266 4041 
L 2266 0 
L 1659 0 
z
" transform="scale(0.015625)"/>
      </defs>
      <use xlink:href="#ArialMT-73"/>
      <use xlink:href="#ArialMT-79" transform="translate(50 0)"/>
      <use xlink:href="#ArialMT-6e" transform="translate(100 0)"/>
      <use xlink:href="#ArialMT-6f" transform="translate(155.615234 0)"/>
      <use xlink:href="#ArialMT-6e" transform="translate(211.230469 0)"/>
      <use xlink:href="#ArialMT-79" transform="translate(266.845703 0)"/>
      <use xlink:href="#ArialMT-6d" transform="translate(316.845703 0)"/>
      <use xlink:href="#ArialMT-6f" transform="translate(400.146484 0)"/>
      <use xlink:href="#ArialMT-75" transform="translate(455.761719 0)"/>
      <use xlink:href="#ArialMT-73" transform="translate(511.376953 0)"/>
      <use xlink:href="#ArialMT-20" transform="translate(561.376953 0)"/>
      <use xlink:href="#ArialMT-57" transform="translate(589.160156 0)"/>
      <use xlink:href="#ArialMT-54" transform="translate(683.544922 0)"/>
     </g>
    </g>
    <g id="line2d_11">
     <path d="M 292.114688 71.084344 
L 303.114688 71.084344 
L 314.114688 71.084344 
" style="fill: none; stroke: #dd8452; stroke-width: 1.5; stroke-linecap: round"/>
    </g>
    <g id="text_22">
     <!-- missense -->
     <g style="fill: #262626" transform="translate(322.914688 74.934344) scale(0.11 -0.11)">
      <use xlink:href="#ArialMT-6d"/>
      <use xlink:href="#ArialMT-69" transform="translate(83.300781 0)"/>
      <use xlink:href="#ArialMT-73" transform="translate(105.517578 0)"/>
      <use xlink:href="#ArialMT-73" transform="translate(155.517578 0)"/>
      <use xlink:href="#ArialMT-65" transform="translate(205.517578 0)"/>
      <use xlink:href="#ArialMT-6e" transform="translate(261.132812 0)"/>
      <use xlink:href="#ArialMT-73" transform="translate(316.748047 0)"/>
      <use xlink:href="#ArialMT-65" transform="translate(366.748047 0)"/>
     </g>
    </g>
    <g id="line2d_12">
     <path d="M 292.114688 86.644188 
L 303.114688 86.644188 
L 314.114688 86.644188 
" style="fill: none; stroke: #55a868; stroke-width: 1.5; stroke-linecap: round"/>
    </g>
    <g id="text_23">
     <!-- nonsense -->
     <g style="fill: #262626" transform="translate(322.914688 90.494188) scale(0.11 -0.11)">
      <use xlink:href="#ArialMT-6e"/>
      <use xlink:href="#ArialMT-6f" transform="translate(55.615234 0)"/>
      <use xlink:href="#ArialMT-6e" transform="translate(111.230469 0)"/>
      <use xlink:href="#ArialMT-73" transform="translate(166.845703 0)"/>
      <use xlink:href="#ArialMT-65" transform="translate(216.845703 0)"/>
      <use xlink:href="#ArialMT-6e" transform="translate(272.460938 0)"/>
      <use xlink:href="#ArialMT-73" transform="translate(328.076172 0)"/>
      <use xlink:href="#ArialMT-65" transform="translate(378.076172 0)"/>
     </g>
    </g>
    <g id="line2d_13">
     <path d="M 292.114688 102.204031 
L 303.114688 102.204031 
L 314.114688 102.204031 
" style="fill: none; stroke: #c44e52; stroke-width: 1.5; stroke-linecap: round"/>
    </g>
    <g id="text_24">
     <!-- deletion -->
     <g style="fill: #262626" transform="translate(322.914688 106.054031) scale(0.11 -0.11)">
      <defs>
       <path id="ArialMT-64" d="M 2575 0 
L 2575 419 
Q 2259 -75 1647 -75 
Q 1250 -75 917 144 
Q 584 363 401 755 
Q 219 1147 219 1656 
Q 219 2153 384 2558 
Q 550 2963 881 3178 
Q 1213 3394 1622 3394 
Q 1922 3394 2156 3267 
Q 2391 3141 2538 2938 
L 2538 4581 
L 3097 4581 
L 3097 0 
L 2575 0 
z
M 797 1656 
Q 797 1019 1065 703 
Q 1334 388 1700 388 
Q 2069 388 2326 689 
Q 2584 991 2584 1609 
Q 2584 2291 2321 2609 
Q 2059 2928 1675 2928 
Q 1300 2928 1048 2622 
Q 797 2316 797 1656 
z
" transform="scale(0.015625)"/>
       <path id="ArialMT-6c" d="M 409 0 
L 409 4581 
L 972 4581 
L 972 0 
L 409 0 
z
" transform="scale(0.015625)"/>
      </defs>
      <use xlink:href="#ArialMT-64"/>
      <use xlink:href="#ArialMT-65" transform="translate(55.615234 0)"/>
      <use xlink:href="#ArialMT-6c" transform="translate(111.230469 0)"/>
      <use xlink:href="#ArialMT-65" transform="translate(133.447266 0)"/>
      <use xlink:href="#ArialMT-74" transform="translate(189.0625 0)"/>
      <use xlink:href="#ArialMT-69" transform="translate(216.845703 0)"/>
      <use xlink:href="#ArialMT-6f" transform="translate(239.0625 0)"/>
      <use xlink:href="#ArialMT-6e" transform="translate(294.677734 0)"/>
     </g>
    </g>
   </g>
  </g>
 </g>
 <defs>
  <clipPath id="pfd8385ce00">
   <rect x="57.6" y="41.472" width="357.12" height="266.112"/>
  </clipPath>
 </defs>
</svg>
