<?xml version="1.0" encoding="utf-8" standalone="no"?>
<!DOCTYPE svg PUBLIC "-//W3C//DTD SVG 1.1//EN"
  "http://www.w3.org/Graphics/SVG/1.1/DTD/svg11.dtd">
<svg xmlns:xlink="http://www.w3.org/1999/xlink" width="460.8pt" height="345.6pt" viewBox="0 0 460.8 345.6" xmlns="http://www.w3.org/2000/svg" version="1.1">
 <metadata>
  <rdf:RDF xmlns:dc="http://purl.org/dc/elements/1.1/" xmlns:cc="http://creativecommons.org/ns#" xmlns:rdf="http://www.w3.org/1999/02/22-rdf-syntax-ns#">
   <cc:Work>
    <dc:type rdf:resource="http://purl.org/dc/dcmitype/StillImage"/>
    <dc:date>2026-04-01T16:31:22.661894</dc:date>
    <dc:format>image/svg+xml</dc:format>
    <dc:creator>
     <cc:Agent>
      <dc:title>Matplotlib v3.10.8, https://matplotlib.org/</dc:title>
     </cc:Agent>
    </dc:creator>
   </cc:Work>
  </rdf:RDF>
 </metadata>
 <defs>
  <style type="text/css">*{stroke-linejoin: round; stroke-linecap: butt}</style>
 </defs>
 <g id="figure_1">
  <g id="patch_1">
   <path d="M 0 345.6 
L 460.8 345.6 
L 460.8 0 
L 0 0 
z
" style="fill: #ffffff"/>
  </g>
  <g id="axes_1">
   <g id="patch_2">
    <path d="M 57.6 307.584 
L 414.72 307.584 
L 414.72 41.472 
L 57.6 41.472 
z
" style="fill: #ffffff"/>
   </g>
   <g id="matplotlib.axis_1">
    <g id="xtick_1">
     <g id="text_1">
      <!-- 0.00 -->
      <g style="fill: #262626" transform="translate(46.896484 324.957594) scale(0.11 -0.11)">
       <defs>
        <path id="ArialMT-30" d="M 266 2259 
Q 266 3072 433 3567 
Q 600 4063 929 4331 
Q 1259 4600 1759 4600 
Q 2128 4600 2406 4451 
Q 2684 4303 2865 4023 
Q 3047 3744 3150 3342 
Q 3253 2941 3253 2259 
Q 3253 1453 3087 958 
Q 2922 463 2592 192 
Q 2263 -78 1759 -78 
Q 1097 -78 719 397 
Q 266 969 266 2259 
z
M 844 2259 
Q 844 1131 1108 757 
Q 1372 384 1759 384 
Q 2147 384 2411 759 
Q 2675 1134 2675 2259 
Q 2675 3391 2411 3762 
Q 2147 4134 1753 4134 
Q 1366 4134 1134 3806 
Q 844 3388 844 2259 
z
" transform="scale(0.015625)"/>
        <path id="ArialMT-2e" d="M 581 0 
L 581 641 
L 1222 641 
L 1222 0 
L 581 0 
z
" transform="scale(0.015625)"/>
       </defs>
       <use xlink:href="#ArialMT-30"/>
       <use xlink:href="#ArialMT-2e" transform="translate(55.615234 0)"/>
       <use xlink:href="#ArialMT-30" transform="translate(83.398438 0)"/>
       <use xlink:href="#ArialMT-30" transform="translate(139.013672 0)"/>
      </g>
     </g>
    </g>
    <g id="xtick_2">
     <g id="text_2">
      <!-- 0.25 -->
      <g style="fill: #262626" transform="translate(91.536484 324.957594) scale(0.11 -0.11)">
       <defs>
        <path id="ArialMT-32" d="M 3222 541 
L 3222 0 
L 194 0 
Q 188 203 259 391 
Q 375 700 629 1000 
Q 884 1300 1366 1694 
Q 2113 2306 2375 2664 
Q 2638 3022 2638 3341 
Q 2638 3675 2398 3904 
Q 2159 4134 1775 4134 
Q 1369 4134 1125 3890 
Q 881 3647 878 3216 
L 300 3275 
Q 359 3922 746 4261 
Q 1134 4600 1788 4600 
Q 2447 4600 2831 4234 
Q 3216 3869 3216 3328 
Q 3216 3053 3103 2787 
Q 2991 2522 2730 2228 
Q 2469 1934 1863 1422 
Q 1356 997 1212 845 
Q 1069 694 975 541 
L 3222 541 
z
" transform="scale(0.015625)"/>
        <path id="ArialMT-35" d="M 266 1200 
L 856 1250 
Q 922 819 1161 601 
Q 1400 384 1738 384 
Q 2144 384 2425 690 
Q 2706 997 2706 1503 
Q 2706 1984 2436 2262 
Q 2166 2541 1728 2541 
Q 1456 2541 1237 2417 
Q 1019 2294 894 2097 
L 366 2166 
L 809 4519 
L 3088 4519 
L 3088 3981 
L 1259 3981 
L 1013 2750 
Q 1425 3038 1878 3038 
Q 2478 3038 2890 2622 
Q 3303 2206 3303 1553 
Q 3303 931 2941 478 
Q 2500 -78 1738 -78 
Q 1113 -78 717 272 
Q 322 622 266 1200 
z
" transform="scale(0.015625)"/>
       </defs>
       <use xlink:href="#ArialMT-30"/>
       <use xlink:href="#ArialMT-2e" transform="translate(55.615234 0)"/>
       <use xlink:href="#ArialMT-32" transform="translate(83.398438 0)"/>
       <use xlink:href="#ArialMT-35" transform="translate(139.013672 0)"/>
      </g>
     </g>
    </g>
    <g id="xtick_3">
     <g id="text_3">
      <!-- 0.50 -->
      <g style="fill: #262626" transform="translate(136.176484 324.957594) scale(0.11 -0.11)">
       <use xlink:href="#ArialMT-30"/>
       <use xlink:href="#ArialMT-2e" transform="translate(55.615234 0)"/>
       <use xlink:href="#ArialMT-35" transform="translate(83.398438 0)"/>
       <use xlink:href="#ArialMT-30" transform="translate(139.013672 0)"/>
      </g>
     </g>
    </g>
    <g id="xtick_4">
     <g id="text_4">
      <!-- 0.75 -->
      <g style="fill: #262626" transform="translate(180.816484 324.957594) scale(0.11 -0.11)">
       <defs>
        <path id="ArialMT-37" d="M 303 3981 
L 303 4522 
L 3269 4522 
L 3269 4084 
Q 2831 3619 2401 2847 
Q 1972 2075 1738 1259 
Q 1569 684 1522 0 
L 944 0 
Q 953 541 1156 1306 
Q 1359 2072 1739 2783 
Q 2119 3494 2547 3981 
L 303 3981 
z
" transform="scale(0.015625)"/>
       </defs>
       <use xlink:href="#ArialMT-30"/>
       <use xlink:href="#ArialMT-2e" transform="translate(55.615234 0)"/>
       <use xlink:href="#ArialMT-37" transform="translate(83.398438 0)"/>
       <use xlink:href="#ArialMT-35" transform="translate(139.013672 0)"/>
      </g>
     </g>
    </g>
    <g id="xtick_5">
     <g id="text_5">
      <!-- 1.00 -->
      <g style="fill: #262626" transform="translate(225.456484 324.957594) scale(0.11 -0.11)">
       <defs>
        <path id="ArialMT-31" d="M 2384 0 
L 1822 0 
L 1822 3584 
Q 1619 3391 1289 3197 
Q 959 3003 697 2906 
L 697 3450 
Q 1169 3672 1522 3987 
Q 1875 4303 2022 4600 
L 2384 4600 
L 2384 0 
z
" transform="scale(0.015625)"/>
       </defs>
       <use xlink:href="#ArialMT-31"/>
       <use xlink:href="#ArialMT-2e" transform="translate(55.615234 0)"/>
       <use xlink:href="#ArialMT-30" transform="translate(83.398438 0)"/>
       <use xlink:href="#ArialMT-30" transform="translate(139.013672 0)"/>
      </g>
     </g>
    </g>
    <g id="xtick_6">
     <g id="text_6">
      <!-- 1.25 -->
      <g style="fill: #262626" transform="translate(270.096484 324.957594) scale(0.11 -0.11)">
       <use xlink:href="#ArialMT-31"/>
       <use xlink:href="#ArialMT-2e" transform="translate(55.615234 0)"/>
       <use xlink:href="#ArialMT-32" transform="translate(83.398438 0)"/>
       <use xlink:href="#ArialMT-35" transform="translate(139.013672 0)"/>
      </g>
     </g>
    </g>
    <g id="xtick_7">
     <g id="text_7">
      <!-- 1.50 -->
      <g style="fill: #262626" transform="translate(314.736484 324.957594) scale(0.11 -0.11)">
       <use xlink:href="#ArialMT-31"/>
       <use xlink:href="#ArialMT-2e" transform="translate(55.615234 0)"/>
       <use xlink:href="#ArialMT-35" transform="translate(83.398438 0)"/>
       <use xlink:href="#ArialMT-30" transform="translate(139.013672 0)"/>
      </g>
     </g>
    </g>
    <g id="xtick_8">
     <g id="text_8">
      <!-- 1.75 -->
      <g style="fill: #262626" transform="translate(359.376484 324.957594) scale(0.11 -0.11)">
       <use xlink:href="#ArialMT-31"/>
       <use xlink:href="#ArialMT-2e" transform="translate(55.615234 0)"/>
       <use xlink:href="#ArialMT-37" transform="translate(83.398438 0)"/>
       <use xlink:href="#ArialMT-35" transform="translate(139.013672 0)"/>
      </g>
     </g>
    </g>
    <g id="xtick_9">
     <g id="text_9">
      <!-- 2.00 -->
      <g style="fill: #262626" transform="translate(404.016484 324.957594) scale(0.11 -0.11)">
       <use xlink:href="#ArialMT-32"/>
       <use xlink:href="#ArialMT-2e" transform="translate(55.615234 0)"/>
       <use xlink:href="#ArialMT-30" transform="translate(83.398438 0)"/>
       <use xlink:href="#ArialMT-30" transform="translate(139.013672 0)"/>
      </g>
     </g>
    </g>
    <g id="text_10">
     <!-- standard-adjusted score -->
     <g style="fill: #262626" transform="translate(171.794062 339.733219) scale(0.12 -0.12)">
      <defs>
       <path id="ArialMT-73" d="M 197 991 
L 753 1078 
Q 800 744 1014 566 
Q 1228 388 1613 388 
Q 2000 388 2187 545 
Q 2375 703 2375 916 
Q 2375 1106 2209 1216 
Q 2094 1291 1634 1406 
Q 1016 1563 777 1677 
Q 538 1791 414 1992 
Q 291 2194 291 2438 
Q 291 2659 392 2848 
Q 494 3038 669 3163 
Q 800 3259 1026 3326 
Q 1253 3394 1513 3394 
Q 1903 3394 2198 3281 
Q 2494 3169 2634 2976 
Q 2775 2784 2828 2463 
L 2278 2388 
Q 2241 2644 2061 2787 
Q 1881 2931 1553 2931 
Q 1166 2931 1000 2803 
Q 834 2675 834 2503 
Q 834 2394 903 2306 
Q 972 2216 1119 2156 
Q 1203 2125 1616 2013 
Q 2213 1853 2448 1751 
Q 2684 1650 2818 1456 
Q 2953 1263 2953 975 
Q 2953 694 2789 445 
Q 2625 197 2315 61 
Q 2006 -75 1616 -75 
Q 969 -75 630 194 
Q 291 463 197 991 
z
" transform="scale(0.015625)"/>
       <path id="ArialMT-74" d="M 1650 503 
L 1731 6 
Q 1494 -44 1306 -44 
Q 1000 -44 831 53 
Q 663 150 594 308 
Q 525 466 525 972 
L 525 2881 
L 113 2881 
L 113 3319 
L 525 3319 
L 525 4141 
L 1084 4478 
L 1084 3319 
L 1650 3319 
L 1650 2881 
L 1084 2881 
L 1084 941 
Q 1084 700 1114 631 
Q 1144 563 1211 522 
Q 1278 481 1403 481 
Q 1497 481 1650 503 
z
" transform="scale(0.015625)"/>
       <path id="ArialMT-61" d="M 2588 409 
Q 2275 144 1986 34 
Q 1697 -75 1366 -75 
Q 819 -75 525 192 
Q 231 459 231 875 
Q 231 1119 342 1320 
Q 453 1522 633 1644 
Q 813 1766 1038 1828 
Q 1203 1872 1538 1913 
Q 2219 1994 2541 2106 
Q 2544 2222 2544 2253 
Q 2544 2597 2384 2738 
Q 2169 2928 1744 2928 
Q 1347 2928 1158 2789 
Q 969 2650 878 2297 
L 328 2372 
Q 403 2725 575 2942 
Q 747 3159 1072 3276 
Q 1397 3394 1825 3394 
Q 2250 3394 2515 3294 
Q 2781 3194 2906 3042 
Q 3031 2891 3081 2659 
Q 3109 2516 3109 2141 
L 3109 1391 
Q 3109 606 3145 398 
Q 3181 191 3288 0 
L 2700 0 
Q 2613 175 2588 409 
z
M 2541 1666 
Q 2234 1541 1622 1453 
Q 1275 1403 1131 1340 
Q 988 1278 909 1158 
Q 831 1038 831 891 
Q 831 666 1001 516 
Q 1172 366 1500 366 
Q 1825 366 2078 508 
Q 2331 650 2450 897 
Q 2541 1088 2541 1459 
L 2541 1666 
z
" transform="scale(0.015625)"/>
       <path id="ArialMT-6e" d="M 422 0 
L 422 3319 
L 928 3319 
L 928 2847 
Q 1294 3394 1984 3394 
Q 2284 3394 2536 3286 
Q 2788 3178 2913 3003 
Q 3038 2828 3088 2588 
Q 3119 2431 3119 2041 
L 3119 0 
L 2556 0 
L 2556 2019 
Q 2556 2363 2490 2533 
Q 2425 2703 2258 2804 
Q 2091 2906 1866 2906 
Q 1506 2906 1245 2678 
Q 984 2450 984 1813 
L 984 0 
L 422 0 
z
" transform="scale(0.015625)"/>
       <path id="ArialMT-64" d="M 2575 0 
L 2575 419 
Q 2259 -75 1647 -75 
Q 1250 -75 917 144 
Q 584 363 401 755 
Q 219 1147 219 1656 
Q 219 2153 384 2558 
Q 550 2963 881 3178 
Q 1213 3394 1622 3394 
Q 1922 3394 2156 3267 
Q 2391 3141 2538 2938 
L 2538 4581 
L 3097 4581 
L 3097 0 
L 2575 0 
z
M 797 1656 
Q 797 1019 1065 703 
Q 1334 388 1700 388 
Q 2069 388 2326 689 
Q 2584 991 2584 1609 
Q 2584 2291 2321 2609 
Q 2059 2928 1675 2928 
Q 1300 2928 1048 2622 
Q 797 2316 797 1656 
z
" transform="scale(0.015625)"/>
       <path id="ArialMT-72" d="M 416 0 
L 416 3319 
L 922 3319 
L 922 2816 
Q 1116 3169 1280 3281 
Q 1444 3394 1641 3394 
Q 1925 3394 2219 3213 
L 2025 2691 
Q 1819 2813 1613 2813 
Q 1428 2813 1281 2702 
Q 1134 2591 1072 2394 
Q 978 2094 978 1738 
L 978 0 
L 416 0 
z
" transform="scale(0.015625)"/>
       <path id="ArialMT-2d" d="M 203 1375 
L 203 1941 
L 1931 1941 
L 1931 1375 
L 203 1375 
z
" transform="scale(0.015625)"/>
       <path id="ArialMT-6a" d="M 419 3928 
L 419 4581 
L 981 4581 
L 981 3928 
L 419 3928 
z
M -294 -1288 
L -188 -809 
Q -19 -853 78 -853 
Q 250 -853 334 -739 
Q 419 -625 419 -169 
L 419 3319 
L 981 3319 
L 981 -181 
Q 981 -794 822 -1034 
Q 619 -1347 147 -1347 
Q -81 -1347 -294 -1288 
z
" transform="scale(0.015625)"/>
       <path id="ArialMT-75" d="M 2597 0 
L 2597 488 
Q 2209 -75 1544 -75 
Q 1250 -75 995 37 
Q 741 150 617 320 
Q 494 491 444 738 
Q 409 903 409 1263 
L 409 3319 
L 972 3319 
L 972 1478 
Q 972 1038 1006 884 
Q 1059 663 1231 536 
Q 1403 409 1656 409 
Q 1909 409 2131 539 
Q 2353 669 2445 892 
Q 2538 1116 2538 1541 
L 2538 3319 
L 3100 3319 
L 3100 0 
L 2597 0 
z
" transform="scale(0.015625)"/>
       <path id="ArialMT-65" d="M 2694 1069 
L 3275 997 
Q 3138 488 2766 206 
Q 2394 -75 1816 -75 
Q 1088 -75 661 373 
Q 234 822 234 1631 
Q 234 2469 665 2931 
Q 1097 3394 1784 3394 
Q 2450 3394 2872 2941 
Q 3294 2488 3294 1666 
Q 3294 1616 3291 1516 
L 816 1516 
Q 847 969 1125 678 
Q 1403 388 1819 388 
Q 2128 388 2347 550 
Q 2566 713 2694 1069 
z
M 847 1978 
L 2700 1978 
Q 2663 2397 2488 2606 
Q 2219 2931 1791 2931 
Q 1403 2931 1139 2672 
Q 875 2413 847 1978 
z
" transform="scale(0.015625)"/>
       <path id="ArialMT-20" transform="scale(0.015625)"/>
       <path id="ArialMT-63" d="M 2588 1216 
L 3141 1144 
Q 3050 572 2676 248 
Q 2303 -75 1759 -75 
Q 1078 -75 664 370 
Q 250 816 250 1647 
Q 250 2184 428 2587 
Q 606 2991 970 3192 
Q 1334 3394 1763 3394 
Q 2303 3394 2647 3120 
Q 2991 2847 3088 2344 
L 2541 2259 
Q 2463 2594 2264 2762 
Q 2066 2931 1784 2931 
Q 1359 2931 1093 2626 
Q 828 2322 828 1663 
Q 828 994 1084 691 
Q 1341 388 1753 388 
Q 2084 388 2306 591 
Q 2528 794 2588 1216 
z
" transform="scale(0.015625)"/>
       <path id="ArialMT-6f" d="M 213 1659 
Q 213 2581 725 3025 
Q 1153 3394 1769 3394 
Q 2453 3394 2887 2945 
Q 3322 2497 3322 1706 
Q 3322 1066 3130 698 
Q 2938 331 2570 128 
Q 2203 -75 1769 -75 
Q 1072 -75 642 372 
Q 213 819 213 1659 
z
M 791 1659 
Q 791 1022 1069 705 
Q 1347 388 1769 388 
Q 2188 388 2466 706 
Q 2744 1025 2744 1678 
Q 2744 2294 2464 2611 
Q 2184 2928 1769 2928 
Q 1347 2928 1069 2612 
Q 791 2297 791 1659 
z
" transform="scale(0.015625)"/>
      </defs>
      <use xlink:href="#ArialMT-73"/>
      <use xlink:href="#ArialMT-74" transform="translate(50 0)"/>
      <use xlink:href="#ArialMT-61" transform="translate(77.783203 0)"/>
      <use xlink:href="#ArialMT-6e" transform="translate(133.398438 0)"/>
      <use xlink:href="#ArialMT-64" transform="translate(189.013672 0)"/>
      <use xlink:href="#ArialMT-61" transform="translate(244.628906 0)"/>
      <use xlink:href="#ArialMT-72" transform="translate(300.244141 0)"/>
      <use xlink:href="#ArialMT-64" transform="translate(333.544922 0)"/>
      <use xlink:href="#ArialMT-2d" transform="translate(389.160156 0)"/>
      <use xlink:href="#ArialMT-61" transform="translate(422.460938 0)"/>
      <use xlink:href="#ArialMT-64" transform="translate(478.076172 0)"/>
      <use xlink:href="#ArialMT-6a" transform="translate(533.691406 0)"/>
      <use xlink:href="#ArialMT-75" transform="translate(555.908203 0)"/>
      <use xlink:href="#ArialMT-73" transform="translate(611.523438 0)"/>
      <use xlink:href="#ArialMT-74" transform="translate(661.523438 0)"/>
      <use xlink:href="#ArialMT-65" transform="translate(689.306641 0)"/>
      <use xlink:href="#ArialMT-64" transform="translate(744.921875 0)"/>
      <use xlink:href="#ArialMT-20" transform="translate(800.537109 0)"/>
      <use xlink:href="#ArialMT-73" transform="translate(828.320312 0)"/>
      <use xlink:href="#ArialMT-63" transform="translate(878.320312 0)"/>
      <use xlink:href="#ArialMT-6f" transform="translate(928.320312 0)"/>
      <use xlink:href="#ArialMT-72" transform="translate(983.935547 0)"/>
      <use xlink:href="#ArialMT-65" transform="translate(1017.236328 0)"/>
     </g>
    </g>
   </g>
   <g id="matplotlib.axis_2">
    <g id="ytick_1">
     <g id="text_11">
      <!-- 0.0 -->
      <g style="fill: #262626" transform="translate(32.81 311.520797) scale(0.11 -0.11)">
       <use xlink:href="#ArialMT-30"/>
       <use xlink:href="#ArialMT-2e" transform="translate(55.615234 0)"/>
       <use xlink:href="#ArialMT-30" transform="translate(83.398438 0)"/>
      </g>
     </g>
    </g>
    <g id="ytick_2">
     <g id="text_12">
      <!-- 0.5 -->
      <g style="fill: #262626" transform="translate(32.81 275.512482) scale(0.11 -0.11)">
       <use xlink:href="#ArialMT-30"/>
       <use xlink:href="#ArialMT-2e" transform="translate(55.615234 0)"/>
       <use xlink:href="#ArialMT-35" transform="translate(83.398438 0)"/>
      </g>
     </g>
    </g>
    <g id="ytick_3">
     <g id="text_13">
      <!-- 1.0 -->
      <g style="fill: #262626" transform="translate(32.81 239.504167) scale(0.11 -0.11)">
       <use xlink:href="#ArialMT-31"/>
       <use xlink:href="#ArialMT-2e" transform="translate(55.615234 0)"/>
       <use xlink:href="#ArialMT-30" transform="translate(83.398438 0)"/>
      </g>
     </g>
    </g>
    <g id="ytick_4">
     <g id="text_14">
      <!-- 1.5 -->
      <g style="fill: #262626" transform="translate(32.81 203.495852) scale(0.11 -0.11)">
       <use xlink:href="#ArialMT-31"/>
       <use xlink:href="#ArialMT-2e" transform="translate(55.615234 0)"/>
       <use xlink:href="#ArialMT-35" transform="translate(83.398438 0)"/>
      </g>
     </g>
    </g>
    <g id="ytick_5">
     <g id="text_15">
      <!-- 2.0 -->
      <g style="fill: #262626" transform="translate(32.81 167.487537) scale(0.11 -0.11)">
       <use xlink:href="#ArialMT-32"/>
       <use xlink:href="#ArialMT-2e" transform="translate(55.615234 0)"/>
       <use xlink:href="#ArialMT-30" transform="translate(83.398438 0)"/>
      </g>
     </g>
    </g>
    <g id="ytick_6">
     <g id="text_16">
      <!-- 2.5 -->
      <g style="fill: #262626" transform="translate(32.81 131.479223) scale(0.11 -0.11)">
       <use xlink:href="#ArialMT-32"/>
       <use xlink:href="#ArialMT-2e" transform="translate(55.615234 0)"/>
       <use xlink:href="#ArialMT-35" transform="translate(83.398438 0)"/>
      </g>
     </g>
    </g>
    <g id="ytick_7">
     <g id="text_17">
      <!-- 3.0 -->
      <g style="fill: #262626" transform="translate(32.81 95.470908) scale(0.11 -0.11)">
       <defs>
        <path id="ArialMT-33" d="M 269 1209 
L 831 1284 
Q 928 806 1161 595 
Q 1394 384 1728 384 
Q 2125 384 2398 659 
Q 2672 934 2672 1341 
Q 2672 1728 2419 1979 
Q 2166 2231 1775 2231 
Q 1616 2231 1378 2169 
L 1441 2663 
Q 1497 2656 1531 2656 
Q 1891 2656 2178 2843 
Q 2466 3031 2466 3422 
Q 2466 3731 2256 3934 
Q 2047 4138 1716 4138 
Q 1388 4138 1169 3931 
Q 950 3725 888 3313 
L 325 3413 
Q 428 3978 793 4289 
Q 1159 4600 1703 4600 
Q 2078 4600 2393 4439 
Q 2709 4278 2876 4000 
Q 3044 3722 3044 3409 
Q 3044 3113 2884 2869 
Q 2725 2625 2413 2481 
Q 2819 2388 3044 2092 
Q 3269 1797 3269 1353 
Q 3269 753 2831 336 
Q 2394 -81 1725 -81 
Q 1122 -81 723 278 
Q 325 638 269 1209 
z
" transform="scale(0.015625)"/>
       </defs>
       <use xlink:href="#ArialMT-33"/>
       <use xlink:href="#ArialMT-2e" transform="translate(55.615234 0)"/>
       <use xlink:href="#ArialMT-30" transform="translate(83.398438 0)"/>
      </g>
     </g>
    </g>
    <g id="ytick_8">
     <g id="text_18">
      <!-- 3.5 -->
      <g style="fill: #262626" transform="translate(32.81 59.462593) scale(0.11 -0.11)">
       <use xlink:href="#ArialMT-33"/>
       <use xlink:href="#ArialMT-2e" transform="translate(55.615234 0)"/>
       <use xlink:href="#ArialMT-35" transform="translate(83.398438 0)"/>
      </g>
     </g>
    </g>
    <g id="text_19">
     <!-- Density -->
     <g style="fill: #262626" transform="translate(26.284375 194.53425) rotate(-90) scale(0.12 -0.12)">
      <defs>
       <path id="ArialMT-44" d="M 494 0 
L 494 4581 
L 2072 4581 
Q 2606 4581 2888 4516 
Q 3281 4425 3559 4188 
Q 3922 3881 4101 3404 
Q 4281 2928 4281 2316 
Q 4281 1794 4159 1391 
Q 4038 988 3847 723 
Q 3656 459 3429 307 
Q 3203 156 2883 78 
Q 2563 0 2147 0 
L 494 0 
z
M 1100 541 
L 2078 541 
Q 2531 541 2789 625 
Q 3047 709 3200 863 
Q 3416 1078 3536 1442 
Q 3656 1806 3656 2325 
Q 3656 3044 3420 3430 
Q 3184 3816 2847 3947 
Q 2603 4041 2063 4041 
L 1100 4041 
L 1100 541 
z
" transform="scale(0.015625)"/>
       <path id="ArialMT-69" d="M 425 3934 
L 425 4581 
L 988 4581 
L 988 3934 
L 425 3934 
z
M 425 0 
L 425 3319 
L 988 3319 
L 988 0 
L 425 0 
z
" transform="scale(0.015625)"/>
       <path id="ArialMT-79" d="M 397 -1278 
L 334 -750 
Q 519 -800 656 -800 
Q 844 -800 956 -737 
Q 1069 -675 1141 -563 
Q 1194 -478 1313 -144 
Q 1328 -97 1363 -6 
L 103 3319 
L 709 3319 
L 1400 1397 
Q 1534 1031 1641 628 
Q 1738 1016 1872 1384 
L 2581 3319 
L 3144 3319 
L 1881 -56 
Q 1678 -603 1566 -809 
Q 1416 -1088 1222 -1217 
Q 1028 -1347 759 -1347 
Q 597 -1347 397 -1278 
z
" transform="scale(0.015625)"/>
      </defs>
      <use xlink:href="#ArialMT-44"/>
      <use xlink:href="#ArialMT-65" transform="translate(72.216797 0)"/>
      <use xlink:href="#ArialMT-6e" transform="translate(127.832031 0)"/>
      <use xlink:href="#ArialMT-73" transform="translate(183.447266 0)"/>
      <use xlink:href="#ArialMT-69" transform="translate(233.447266 0)"/>
      <use xlink:href="#ArialMT-74" transform="translate(255.664062 0)"/>
      <use xlink:href="#ArialMT-79" transform="translate(283.447266 0)"/>
     </g>
    </g>
   </g>
   <g id="line2d_1">
    <path d="M 58.969746 307.519261 
L 62.493665 307.313846 
L 65.136605 306.905722 
L 66.898564 306.415343 
L 68.660524 305.675778 
L 70.422484 304.624226 
L 72.184444 303.209223 
L 73.946403 301.395721 
L 75.708363 299.159767 
L 77.470323 296.469125 
L 79.232283 293.25196 
L 80.994242 289.363322 
L 82.756202 284.564951 
L 84.518162 278.533945 
L 86.280122 270.907985 
L 88.042081 261.36092 
L 89.804041 249.688125 
L 91.566001 235.873719 
L 93.327961 220.116339 
L 95.9709 193.728013 
L 103.018739 120.444516 
L 104.780699 104.427722 
L 106.542659 90.283841 
L 108.304618 78.372759 
L 110.066578 68.925962 
L 110.947558 65.151573 
L 111.828538 61.998233 
L 112.709518 59.441684 
L 113.590498 57.446697 
L 114.471477 55.969376 
L 115.352457 54.960287 
L 116.233437 54.368181 
L 117.114417 54.143986 
L 117.995397 54.244696 
L 118.876377 54.636758 
L 119.757357 55.29859 
L 120.638337 56.221936 
L 121.519316 57.411889 
L 122.400296 58.885532 
L 123.281276 60.669319 
L 124.162256 62.795435 
L 125.043236 65.297507 
L 125.924216 68.206084 
L 126.805196 71.54436 
L 128.567155 79.545182 
L 130.329115 89.22711 
L 132.091075 100.286791 
L 135.614994 124.564621 
L 139.138914 148.511639 
L 141.781853 165.093482 
L 147.067733 196.190149 
L 155.877531 247.618585 
L 157.639491 256.525778 
L 159.401451 264.395436 
L 161.163411 271.095543 
L 162.92537 276.604583 
L 164.68733 281.009683 
L 166.44929 284.485727 
L 168.21125 287.260206 
L 169.973209 289.571022 
L 172.616149 292.604891 
L 177.021048 297.295537 
L 178.783008 298.981622 
L 180.544968 300.403158 
L 182.306928 301.438046 
L 183.187907 301.779795 
L 184.068887 301.994328 
L 184.949867 302.079165 
L 185.830847 302.036359 
L 187.592807 301.599103 
L 189.354767 300.787775 
L 194.640646 297.807725 
L 196.402605 297.193455 
L 198.164565 296.938807 
L 199.926525 297.045408 
L 201.688485 297.45664 
L 204.331424 298.446735 
L 213.141223 302.398039 
L 219.308082 305.082454 
L 221.951022 306.019467 
L 224.593961 306.711946 
L 227.236901 307.154531 
L 230.76082 307.447529 
L 234.28474 307.549822 
L 234.28474 307.549822 
" clip-path="url(#pb3f5ba2e48)" style="fill: none; stroke: #4c72b0; stroke-width: 1.5; stroke-linecap: round"/>
   </g>
   <g id="line2d_2">
    <path d="M 19.3112 307.577847 
L 25.267209 307.461086 
L 29.237881 307.171901 
L 39.164562 306.085682 
L 41.149899 305.589196 
L 43.135235 304.85187 
L 45.120571 303.878378 
L 49.091243 301.484451 
L 53.061916 299.030405 
L 57.032588 296.933495 
L 62.988597 294.310957 
L 64.973933 293.175488 
L 66.959269 291.733539 
L 68.944605 289.987947 
L 72.915278 285.915582 
L 76.88595 281.558068 
L 78.871286 279.211709 
L 80.856622 276.466042 
L 82.841959 272.874973 
L 84.827295 267.862803 
L 86.812631 260.887558 
L 88.797967 251.614985 
L 90.783303 239.980405 
L 92.76864 226.115332 
L 94.753976 210.263296 
L 98.724648 174.464557 
L 102.695321 138.674749 
L 104.680657 122.684389 
L 106.665993 108.254712 
L 108.651329 95.351018 
L 110.636665 84.149658 
L 112.622002 75.09529 
L 114.607338 68.609903 
L 116.592674 64.795028 
L 118.57801 63.488431 
L 120.563346 64.648511 
L 122.548683 68.639898 
L 124.534019 76.019085 
L 126.519355 86.91847 
L 128.504691 100.610809 
L 132.475364 130.832157 
L 134.4607 145.048135 
L 136.446036 157.905795 
L 138.431372 169.183258 
L 140.416708 178.826232 
L 142.402044 187.088836 
L 146.372717 202.079292 
L 148.358053 210.0507 
L 154.314062 235.454185 
L 156.299398 243.14572 
L 158.284734 250.040251 
L 160.27007 256.063892 
L 162.255406 261.21273 
L 164.240743 265.562966 
L 166.226079 269.269221 
L 168.211415 272.524507 
L 172.182087 278.32164 
L 178.138096 286.349618 
L 182.108768 291.457071 
L 184.094105 293.786197 
L 186.079441 295.81341 
L 188.064777 297.444388 
L 190.050113 298.66405 
L 192.035449 299.557146 
L 199.976794 302.315168 
L 201.96213 302.824509 
L 203.947466 303.095152 
L 211.888811 303.447724 
L 221.815492 305.252843 
L 227.771501 306.419277 
L 231.742173 306.906233 
L 235.712846 306.988916 
L 241.668854 306.948148 
L 249.610199 307.236856 
L 257.551544 307.521145 
L 263.507552 307.452363 
L 269.463561 307.364493 
L 289.316923 307.582155 
L 297.258268 307.506281 
L 309.170285 307.242182 
L 317.11163 307.46173 
L 325.052974 307.579268 
L 340.935664 307.531123 
L 350.862345 307.373039 
L 364.759698 307.580207 
L 372.701043 307.500374 
L 380.642388 307.366462 
L 392.554405 307.500558 
L 400.49575 307.364074 
L 414.393103 307.581525 
L 414.393103 307.581525 
" clip-path="url(#pb3f5ba2e48)" style="fill: none; stroke: #dd8452; stroke-width: 1.5; stroke-linecap: round"/>
   </g>
   <g id="line2d_3">
    <path d="M -1 178.200069 
L -0.782707 177.896622 
L 1.001405 176.036613 
L 2.785517 174.825409 
L 4.569629 174.269555 
L 6.353741 174.364799 
L 8.137853 175.09636 
L 9.921966 176.439481 
L 11.706078 178.36022 
L 13.49019 180.816465 
L 15.274302 183.759126 
L 17.058414 187.133457 
L 18.842526 190.880462 
L 22.41075 199.2439 
L 25.978975 208.34662 
L 33.115423 226.889755 
L 36.683647 235.547377 
L 40.251872 243.414433 
L 42.035984 246.994121 
L 43.820096 250.318257 
L 45.604208 253.378385 
L 47.38832 256.170587 
L 49.172432 258.695014 
L 50.956545 260.955391 
L 52.740657 262.958519 
L 54.524769 264.713778 
L 56.308881 266.232643 
L 58.092993 267.528231 
L 59.877105 268.614869 
L 61.661217 269.507701 
L 63.445329 270.222326 
L 65.229442 270.774475 
L 67.013554 271.179722 
L 68.797666 271.453237 
L 72.36589 271.662508 
L 75.934114 271.50858 
L 79.502339 271.082044 
L 83.070563 270.456941 
L 88.422899 269.273063 
L 106.26402 264.969631 
L 109.832245 264.389409 
L 113.400469 264.031497 
L 116.968693 263.95353 
L 120.536918 264.207259 
L 124.105142 264.834148 
L 127.673366 265.861634 
L 131.24159 267.30033 
L 134.809815 269.142285 
L 138.378039 271.360306 
L 141.946263 273.90834 
L 145.514487 276.723001 
L 150.866824 281.271267 
L 159.787384 288.959895 
L 163.355609 291.805861 
L 166.923833 294.401847 
L 170.492057 296.690411 
L 174.060281 298.634833 
L 177.628506 300.220635 
L 181.19673 301.455161 
L 184.764954 302.365337 
L 188.333178 302.993939 
L 191.901403 303.394808 
L 197.253739 303.699626 
L 216.878972 304.330603 
L 224.015421 304.903071 
L 243.640654 306.684078 
L 252.561215 307.171697 
L 261.481776 307.426341 
L 275.754673 307.560822 
L 275.754673 307.560822 
" clip-path="url(#pb3f5ba2e48)" style="fill: none; stroke: #55a868; stroke-width: 1.5; stroke-linecap: round"/>
   </g>
   <g id="line2d_4">
    <path d="M -1 302.146477 
L 1.627722 301.730213 
L 4.452083 301.44993 
L 8.688625 301.275799 
L 12.925167 301.126248 
L 15.749529 300.814125 
L 18.57389 300.150684 
L 19.986071 299.64178 
L 21.398252 298.994764 
L 22.810433 298.198688 
L 24.222613 297.246663 
L 25.634794 296.136368 
L 28.459155 293.456186 
L 31.283517 290.237006 
L 34.107878 286.625653 
L 42.580963 275.348576 
L 45.405324 271.98656 
L 48.229686 268.959818 
L 51.054047 266.257543 
L 53.878409 263.829282 
L 58.114951 260.564417 
L 62.351493 257.610509 
L 68.000216 253.974027 
L 72.236758 251.21736 
L 75.06112 249.122125 
L 77.885481 246.581304 
L 79.297662 245.068164 
L 80.709843 243.35164 
L 82.122023 241.401712 
L 83.534204 239.190589 
L 84.946385 236.693724 
L 86.358566 233.89073 
L 87.770746 230.766188 
L 89.182927 227.310347 
L 90.595108 223.519741 
L 93.419469 214.954974 
L 96.243831 205.188927 
L 99.068192 194.467373 
L 107.541277 160.986968 
L 110.365638 151.376217 
L 111.777819 147.229707 
L 113.19 143.622717 
L 114.60218 140.619956 
L 116.014361 138.27477 
L 117.426542 136.627097 
L 118.838722 135.701965 
L 120.250903 135.508646 
L 121.663084 136.040553 
L 123.075265 137.275893 
L 124.487445 139.179053 
L 125.899626 141.702609 
L 127.311807 144.789821 
L 128.723988 148.377438 
L 130.136168 152.398589 
L 132.96053 161.47236 
L 135.784891 171.501367 
L 141.433614 192.804133 
L 147.082337 214.002658 
L 151.318879 229.047165 
L 154.143241 238.443421 
L 156.967602 247.206206 
L 159.791964 255.240492 
L 162.616325 262.472701 
L 165.440687 268.859304 
L 168.265048 274.392916 
L 171.08941 279.104421 
L 173.913771 283.060196 
L 176.738133 286.354269 
L 179.562494 289.096445 
L 182.386855 291.398732 
L 185.211217 293.363011 
L 188.035578 295.072533 
L 192.272121 297.287512 
L 196.508663 299.188351 
L 200.745205 300.837952 
L 204.981747 302.274494 
L 210.63047 303.908268 
L 216.279193 305.245894 
L 220.515735 306.042221 
L 224.752278 306.64674 
L 228.98882 307.0644 
L 234.637543 307.381726 
L 241.698446 307.536471 
L 244.522808 307.559582 
L 244.522808 307.559582 
" clip-path="url(#pb3f5ba2e48)" style="fill: none; stroke: #c44e52; stroke-width: 1.5; stroke-linecap: round"/>
   </g>
   <g id="line2d_5">
    <path d="M 220.776899 307.584 
L 220.776899 41.472 
" clip-path="url(#pb3f5ba2e48)" style="fill: none; stroke-dasharray: 5.55,2.4; stroke-dashoffset: 0; stroke: #808080; stroke-width: 1.5"/>
   </g>
   <g id="line2d_6">
    <path d="M 121.892034 307.584 
L 121.892034 41.472 
" clip-path="url(#pb3f5ba2e48)" style="fill: none; stroke-dasharray: 5.55,2.4; stroke-dashoffset: 0; stroke: #808080; stroke-width: 1.5"/>
   </g>
   <g id="line2d_7">
    <path d="M 58.514547 307.584 
L 58.514547 41.472 
" clip-path="url(#pb3f5ba2e48)" style="fill: none; stroke-dasharray: 5.55,2.4; stroke-dashoffset: 0; stroke: #808080; stroke-width: 1.5"/>
   </g>
   <g id="patch_3">
    <path d="M 57.6 307.584 
L 57.6 41.472 
" style="fill: none; stroke: #262626; stroke-width: 1.25; stroke-linejoin: miter; stroke-linecap: square"/>
   </g>
   <g id="patch_4">
    <path d="M 414.72 307.584 
L 414.72 41.472 
" style="fill: none; stroke: #262626; stroke-width: 1.25; stroke-linejoin: miter; stroke-linecap: square"/>
   </g>
   <g id="patch_5">
    <path d="M 57.6 307.584 
L 414.72 307.584 
" style="fill: none; stroke: #262626; stroke-width: 1.25; stroke-linejoin: miter; stroke-linecap: square"/>
   </g>
   <g id="patch_6">
    <path d="M 57.6 41.472 
L 414.72 41.472 
" style="fill: none; stroke: #262626; stroke-width: 1.25; stroke-linejoin: miter; stroke-linecap: square"/>
   </g>
   <g id="text_20">
    <!-- BRAF_cterm abundance -->
    <g style="fill: #262626" transform="translate(170.462812 35.472) scale(0.12 -0.12)">
     <defs>
      <path id="ArialMT-42" d="M 469 0 
L 469 4581 
L 2188 4581 
Q 2713 4581 3030 4442 
Q 3347 4303 3526 4014 
Q 3706 3725 3706 3409 
Q 3706 3116 3547 2856 
Q 3388 2597 3066 2438 
Q 3481 2316 3704 2022 
Q 3928 1728 3928 1328 
Q 3928 1006 3792 729 
Q 3656 453 3456 303 
Q 3256 153 2954 76 
Q 2653 0 2216 0 
L 469 0 
z
M 1075 2656 
L 2066 2656 
Q 2469 2656 2644 2709 
Q 2875 2778 2992 2937 
Q 3109 3097 3109 3338 
Q 3109 3566 3000 3739 
Q 2891 3913 2687 3977 
Q 2484 4041 1991 4041 
L 1075 4041 
L 1075 2656 
z
M 1075 541 
L 2216 541 
Q 2509 541 2628 563 
Q 2838 600 2978 687 
Q 3119 775 3209 942 
Q 3300 1109 3300 1328 
Q 3300 1584 3169 1773 
Q 3038 1963 2805 2039 
Q 2572 2116 2134 2116 
L 1075 2116 
L 1075 541 
z
" transform="scale(0.015625)"/>
      <path id="ArialMT-52" d="M 503 0 
L 503 4581 
L 2534 4581 
Q 3147 4581 3465 4457 
Q 3784 4334 3975 4021 
Q 4166 3709 4166 3331 
Q 4166 2844 3850 2509 
Q 3534 2175 2875 2084 
Q 3116 1969 3241 1856 
Q 3506 1613 3744 1247 
L 4541 0 
L 3778 0 
L 3172 953 
Q 2906 1366 2734 1584 
Q 2563 1803 2427 1890 
Q 2291 1978 2150 2013 
Q 2047 2034 1813 2034 
L 1109 2034 
L 1109 0 
L 503 0 
z
M 1109 2559 
L 2413 2559 
Q 2828 2559 3062 2645 
Q 3297 2731 3419 2920 
Q 3541 3109 3541 3331 
Q 3541 3656 3305 3865 
Q 3069 4075 2559 4075 
L 1109 4075 
L 1109 2559 
z
" transform="scale(0.015625)"/>
      <path id="ArialMT-41" d="M -9 0 
L 1750 4581 
L 2403 4581 
L 4278 0 
L 3588 0 
L 3053 1388 
L 1138 1388 
L 634 0 
L -9 0 
z
M 1313 1881 
L 2866 1881 
L 2388 3150 
Q 2169 3728 2063 4100 
Q 1975 3659 1816 3225 
L 1313 1881 
z
" transform="scale(0.015625)"/>
      <path id="ArialMT-46" d="M 525 0 
L 525 4581 
L 3616 4581 
L 3616 4041 
L 1131 4041 
L 1131 2622 
L 3281 2622 
L 3281 2081 
L 1131 2081 
L 1131 0 
L 525 0 
z
" transform="scale(0.015625)"/>
      <path id="ArialMT-5f" d="M -97 -1272 
L -97 -866 
L 3631 -866 
L 3631 -1272 
L -97 -1272 
z
" transform="scale(0.015625)"/>
      <path id="ArialMT-6d" d="M 422 0 
L 422 3319 
L 925 3319 
L 925 2853 
Q 1081 3097 1340 3245 
Q 1600 3394 1931 3394 
Q 2300 3394 2536 3241 
Q 2772 3088 2869 2813 
Q 3263 3394 3894 3394 
Q 4388 3394 4653 3120 
Q 4919 2847 4919 2278 
L 4919 0 
L 4359 0 
L 4359 2091 
Q 4359 2428 4304 2576 
Q 4250 2725 4106 2815 
Q 3963 2906 3769 2906 
Q 3419 2906 3187 2673 
Q 2956 2441 2956 1928 
L 2956 0 
L 2394 0 
L 2394 2156 
Q 2394 2531 2256 2718 
Q 2119 2906 1806 2906 
Q 1569 2906 1367 2781 
Q 1166 2656 1075 2415 
Q 984 2175 984 1722 
L 984 0 
L 422 0 
z
" transform="scale(0.015625)"/>
      <path id="ArialMT-62" d="M 941 0 
L 419 0 
L 419 4581 
L 981 4581 
L 981 2947 
Q 1338 3394 1891 3394 
Q 2197 3394 2470 3270 
Q 2744 3147 2920 2923 
Q 3097 2700 3197 2384 
Q 3297 2069 3297 1709 
Q 3297 856 2875 390 
Q 2453 -75 1863 -75 
Q 1275 -75 941 416 
L 941 0 
z
M 934 1684 
Q 934 1088 1097 822 
Q 1363 388 1816 388 
Q 2184 388 2453 708 
Q 2722 1028 2722 1663 
Q 2722 2313 2464 2622 
Q 2206 2931 1841 2931 
Q 1472 2931 1203 2611 
Q 934 2291 934 1684 
z
" transform="scale(0.015625)"/>
     </defs>
     <use xlink:href="#ArialMT-42"/>
     <use xlink:href="#ArialMT-52" transform="translate(66.699219 0)"/>
     <use xlink:href="#ArialMT-41" transform="translate(138.916016 0)"/>
     <use xlink:href="#ArialMT-46" transform="translate(205.615234 0)"/>
     <use xlink:href="#ArialMT-5f" transform="translate(266.699219 0)"/>
     <use xlink:href="#ArialMT-63" transform="translate(322.314453 0)"/>
     <use xlink:href="#ArialMT-74" transform="translate(372.314453 0)"/>
     <use xlink:href="#ArialMT-65" transform="translate(400.097656 0)"/>
     <use xlink:href="#ArialMT-72" transform="translate(455.712891 0)"/>
     <use xlink:href="#ArialMT-6d" transform="translate(489.013672 0)"/>
     <use xlink:href="#ArialMT-20" transform="translate(572.314453 0)"/>
     <use xlink:href="#ArialMT-61" transform="translate(600.097656 0)"/>
     <use xlink:href="#ArialMT-62" transform="translate(655.712891 0)"/>
     <use xlink:href="#ArialMT-75" transform="translate(711.328125 0)"/>
     <use xlink:href="#ArialMT-6e" transform="translate(766.943359 0)"/>
     <use xlink:href="#ArialMT-64" transform="translate(822.558594 0)"/>
     <use xlink:href="#ArialMT-61" transform="translate(878.173828 0)"/>
     <use xlink:href="#ArialMT-6e" transform="translate(933.789062 0)"/>
     <use xlink:href="#ArialMT-63" transform="translate(989.404297 0)"/>
     <use xlink:href="#ArialMT-65" transform="translate(1039.404297 0)"/>
    </g>
   </g>
   <g id="legend_1">
    <g id="patch_7">
     <path d="M 289.914688 112.640281 
L 407.02 112.640281 
Q 409.22 112.640281 409.22 110.440281 
L 409.22 49.172 
Q 409.22 46.972 407.02 46.972 
L 289.914688 46.972 
Q 287.714688 46.972 287.714688 49.172 
L 287.714688 110.440281 
Q 287.714688 112.640281 289.914688 112.640281 
z
" style="fill: #ffffff; opacity: 0.8; stroke: #cccccc; stroke-linejoin: miter"/>
    </g>
    <g id="line2d_8">
     <path d="M 292.114688 55.395594 
L 303.114688 55.395594 
L 314.114688 55.395594 
" style="fill: none; stroke: #4c72b0; stroke-width: 1.5; stroke-linecap: round"/>
    </g>
    <g id="text_21">
     <!-- synonymous WT -->
     <g style="fill: #262626" transform="translate(322.914688 59.245594) scale(0.11 -0.11)">
      <defs>
       <path id="ArialMT-57" d="M 1294 0 
L 78 4581 
L 700 4581 
L 1397 1578 
Q 1509 1106 1591 641 
Q 1766 1375 1797 1488 
L 2669 4581 
L 3400 4581 
L 4056 2263 
Q 4303 1400 4413 641 
Q 4500 1075 4641 1638 
L 5359 4581 
L 5969 4581 
L 4713 0 
L 4128 0 
L 3163 3491 
Q 3041 3928 3019 4028 
Q 2947 3713 2884 3491 
L 1913 0 
L 1294 0 
z
" transform="scale(0.015625)"/>
       <path id="ArialMT-54" d="M 1659 0 
L 1659 4041 
L 150 4041 
L 150 4581 
L 3781 4581 
L 3781 4041 
L 2266 4041 
L 2266 0 
L 1659 0 
z
" transform="scale(0.015625)"/>
      </defs>
      <use xlink:href="#ArialMT-73"/>
      <use xlink:href="#ArialMT-79" transform="translate(50 0)"/>
      <use xlink:href="#ArialMT-6e" transform="translate(100 0)"/>
      <use xlink:href="#ArialMT-6f" transform="translate(155.615234 0)"/>
      <use xlink:href="#ArialMT-6e" transform="translate(211.230469 0)"/>
      <use xlink:href="#ArialMT-79" transform="translate(266.845703 0)"/>
      <use xlink:href="#ArialMT-6d" transform="translate(316.845703 0)"/>
      <use xlink:href="#ArialMT-6f" transform="translate(400.146484 0)"/>
      <use xlink:href="#ArialMT-75" transform="translate(455.761719 0)"/>
      <use xlink:href="#ArialMT-73" transform="translate(511.376953 0)"/>
      <use xlink:href="#ArialMT-20" transform="translate(561.376953 0)"/>
      <use xlink:href="#ArialMT-57" transform="translate(589.160156 0)"/>
      <use xlink:href="#ArialMT-54" transform="translate(683.544922 0)"/>
     </g>
    </g>
    <g id="line2d_9">
     <path d="M 292.114688 71.084344 
L 303.114688 71.084344 
L 314.114688 71.084344 
" style="fill: none; stroke: #dd8452; stroke-width: 1.5; stroke-linecap: round"/>
    </g>
    <g id="text_22">
     <!-- missense -->
     <g style="fill: #262626" transform="translate(322.914688 74.934344) scale(0.11 -0.11)">
      <use xlink:href="#ArialMT-6d"/>
      <use xlink:href="#ArialMT-69" transform="translate(83.300781 0)"/>
      <use xlink:href="#ArialMT-73" transform="translate(105.517578 0)"/>
      <use xlink:href="#ArialMT-73" transform="translate(155.517578 0)"/>
      <use xlink:href="#ArialMT-65" transform="translate(205.517578 0)"/>
      <use xlink:href="#ArialMT-6e" transform="translate(261.132812 0)"/>
      <use xlink:href="#ArialMT-73" transform="translate(316.748047 0)"/>
      <use xlink:href="#ArialMT-65" transform="translate(366.748047 0)"/>
     </g>
    </g>
    <g id="line2d_10">
     <path d="M 292.114688 86.644188 
L 303.114688 86.644188 
L 314.114688 86.644188 
" style="fill: none; stroke: #55a868; stroke-width: 1.5; stroke-linecap: round"/>
    </g>
    <g id="text_23">
     <!-- nonsense -->
     <g style="fill: #262626" transform="translate(322.914688 90.494188) scale(0.11 -0.11)">
      <use xlink:href="#ArialMT-6e"/>
      <use xlink:href="#ArialMT-6f" transform="translate(55.615234 0)"/>
      <use xlink:href="#ArialMT-6e" transform="translate(111.230469 0)"/>
      <use xlink:href="#ArialMT-73" transform="translate(166.845703 0)"/>
      <use xlink:href="#ArialMT-65" transform="translate(216.845703 0)"/>
      <use xlink:href="#ArialMT-6e" transform="translate(272.460938 0)"/>
      <use xlink:href="#ArialMT-73" transform="translate(328.076172 0)"/>
      <use xlink:href="#ArialMT-65" transform="translate(378.076172 0)"/>
     </g>
    </g>
    <g id="line2d_11">
     <path d="M 292.114688 102.204031 
L 303.114688 102.204031 
L 314.114688 102.204031 
" style="fill: none; stroke: #c44e52; stroke-width: 1.5; stroke-linecap: round"/>
    </g>
    <g id="text_24">
     <!-- deletion -->
     <g style="fill: #262626" transform="translate(322.914688 106.054031) scale(0.11 -0.11)">
      <defs>
       <path id="ArialMT-6c" d="M 409 0 
L 409 4581 
L 972 4581 
L 972 0 
L 409 0 
z
" transform="scale(0.015625)"/>
      </defs>
      <use xlink:href="#ArialMT-64"/>
      <use xlink:href="#ArialMT-65" transform="translate(55.615234 0)"/>
      <use xlink:href="#ArialMT-6c" transform="translate(111.230469 0)"/>
      <use xlink:href="#ArialMT-65" transform="translate(133.447266 0)"/>
      <use xlink:href="#ArialMT-74" transform="translate(189.0625 0)"/>
      <use xlink:href="#ArialMT-69" transform="translate(216.845703 0)"/>
      <use xlink:href="#ArialMT-6f" transform="translate(239.0625 0)"/>
      <use xlink:href="#ArialMT-6e" transform="translate(294.677734 0)"/>
     </g>
    </g>
   </g>
  </g>
 </g>
 <defs>
  <clipPath id="pb3f5ba2e48">
   <rect x="57.6" y="41.472" width="357.12" height="266.112"/>
  </clipPath>
 </defs>
</svg>
