<?xml version="1.0" encoding="utf-8" standalone="no"?>
<!DOCTYPE svg PUBLIC "-//W3C//DTD SVG 1.1//EN"
  "http://www.w3.org/Graphics/SVG/1.1/DTD/svg11.dtd">
<svg xmlns:xlink="http://www.w3.org/1999/xlink" width="460.8pt" height="345.6pt" viewBox="0 0 460.8 345.6" xmlns="http://www.w3.org/2000/svg" version="1.1">
 <metadata>
  <rdf:RDF xmlns:dc="http://purl.org/dc/elements/1.1/" xmlns:cc="http://creativecommons.org/ns#" xmlns:rdf="http://www.w3.org/1999/02/22-rdf-syntax-ns#">
   <cc:Work>
    <dc:type rdf:resource="http://purl.org/dc/dcmitype/StillImage"/>
    <dc:date>2026-04-01T16:39:38.281130</dc:date>
    <dc:format>image/svg+xml</dc:format>
    <dc:creator>
     <cc:Agent>
      <dc:title>Matplotlib v3.10.8, https://matplotlib.org/</dc:title>
     </cc:Agent>
    </dc:creator>
   </cc:Work>
  </rdf:RDF>
 </metadata>
 <defs>
  <style type="text/css">*{stroke-linejoin: round; stroke-linecap: butt}</style>
 </defs>
 <g id="figure_1">
  <g id="patch_1">
   <path d="M 0 345.6 
L 460.8 345.6 
L 460.8 0 
L 0 0 
z
" style="fill: #ffffff"/>
  </g>
  <g id="axes_1">
   <g id="patch_2">
    <path d="M 57.6 307.584 
L 414.72 307.584 
L 414.72 41.472 
L 57.6 41.472 
z
" style="fill: #ffffff"/>
   </g>
   <g id="matplotlib.axis_1">
    <g id="xtick_1">
     <g id="text_1">
      <!-- 0.00 -->
      <g style="fill: #262626" transform="translate(46.896484 324.957594) scale(0.11 -0.11)">
       <defs>
        <path id="ArialMT-30" d="M 266 2259 
Q 266 3072 433 3567 
Q 600 4063 929 4331 
Q 1259 4600 1759 4600 
Q 2128 4600 2406 4451 
Q 2684 4303 2865 4023 
Q 3047 3744 3150 3342 
Q 3253 2941 3253 2259 
Q 3253 1453 3087 958 
Q 2922 463 2592 192 
Q 2263 -78 1759 -78 
Q 1097 -78 719 397 
Q 266 969 266 2259 
z
M 844 2259 
Q 844 1131 1108 757 
Q 1372 384 1759 384 
Q 2147 384 2411 759 
Q 2675 1134 2675 2259 
Q 2675 3391 2411 3762 
Q 2147 4134 1753 4134 
Q 1366 4134 1134 3806 
Q 844 3388 844 2259 
z
" transform="scale(0.015625)"/>
        <path id="ArialMT-2e" d="M 581 0 
L 581 641 
L 1222 641 
L 1222 0 
L 581 0 
z
" transform="scale(0.015625)"/>
       </defs>
       <use xlink:href="#ArialMT-30"/>
       <use xlink:href="#ArialMT-2e" transform="translate(55.615234 0)"/>
       <use xlink:href="#ArialMT-30" transform="translate(83.398438 0)"/>
       <use xlink:href="#ArialMT-30" transform="translate(139.013672 0)"/>
      </g>
     </g>
    </g>
    <g id="xtick_2">
     <g id="text_2">
      <!-- 0.25 -->
      <g style="fill: #262626" transform="translate(91.536484 324.957594) scale(0.11 -0.11)">
       <defs>
        <path id="ArialMT-32" d="M 3222 541 
L 3222 0 
L 194 0 
Q 188 203 259 391 
Q 375 700 629 1000 
Q 884 1300 1366 1694 
Q 2113 2306 2375 2664 
Q 2638 3022 2638 3341 
Q 2638 3675 2398 3904 
Q 2159 4134 1775 4134 
Q 1369 4134 1125 3890 
Q 881 3647 878 3216 
L 300 3275 
Q 359 3922 746 4261 
Q 1134 4600 1788 4600 
Q 2447 4600 2831 4234 
Q 3216 3869 3216 3328 
Q 3216 3053 3103 2787 
Q 2991 2522 2730 2228 
Q 2469 1934 1863 1422 
Q 1356 997 1212 845 
Q 1069 694 975 541 
L 3222 541 
z
" transform="scale(0.015625)"/>
        <path id="ArialMT-35" d="M 266 1200 
L 856 1250 
Q 922 819 1161 601 
Q 1400 384 1738 384 
Q 2144 384 2425 690 
Q 2706 997 2706 1503 
Q 2706 1984 2436 2262 
Q 2166 2541 1728 2541 
Q 1456 2541 1237 2417 
Q 1019 2294 894 2097 
L 366 2166 
L 809 4519 
L 3088 4519 
L 3088 3981 
L 1259 3981 
L 1013 2750 
Q 1425 3038 1878 3038 
Q 2478 3038 2890 2622 
Q 3303 2206 3303 1553 
Q 3303 931 2941 478 
Q 2500 -78 1738 -78 
Q 1113 -78 717 272 
Q 322 622 266 1200 
z
" transform="scale(0.015625)"/>
       </defs>
       <use xlink:href="#ArialMT-30"/>
       <use xlink:href="#ArialMT-2e" transform="translate(55.615234 0)"/>
       <use xlink:href="#ArialMT-32" transform="translate(83.398438 0)"/>
       <use xlink:href="#ArialMT-35" transform="translate(139.013672 0)"/>
      </g>
     </g>
    </g>
    <g id="xtick_3">
     <g id="text_3">
      <!-- 0.50 -->
      <g style="fill: #262626" transform="translate(136.176484 324.957594) scale(0.11 -0.11)">
       <use xlink:href="#ArialMT-30"/>
       <use xlink:href="#ArialMT-2e" transform="translate(55.615234 0)"/>
       <use xlink:href="#ArialMT-35" transform="translate(83.398438 0)"/>
       <use xlink:href="#ArialMT-30" transform="translate(139.013672 0)"/>
      </g>
     </g>
    </g>
    <g id="xtick_4">
     <g id="text_4">
      <!-- 0.75 -->
      <g style="fill: #262626" transform="translate(180.816484 324.957594) scale(0.11 -0.11)">
       <defs>
        <path id="ArialMT-37" d="M 303 3981 
L 303 4522 
L 3269 4522 
L 3269 4084 
Q 2831 3619 2401 2847 
Q 1972 2075 1738 1259 
Q 1569 684 1522 0 
L 944 0 
Q 953 541 1156 1306 
Q 1359 2072 1739 2783 
Q 2119 3494 2547 3981 
L 303 3981 
z
" transform="scale(0.015625)"/>
       </defs>
       <use xlink:href="#ArialMT-30"/>
       <use xlink:href="#ArialMT-2e" transform="translate(55.615234 0)"/>
       <use xlink:href="#ArialMT-37" transform="translate(83.398438 0)"/>
       <use xlink:href="#ArialMT-35" transform="translate(139.013672 0)"/>
      </g>
     </g>
    </g>
    <g id="xtick_5">
     <g id="text_5">
      <!-- 1.00 -->
      <g style="fill: #262626" transform="translate(225.456484 324.957594) scale(0.11 -0.11)">
       <defs>
        <path id="ArialMT-31" d="M 2384 0 
L 1822 0 
L 1822 3584 
Q 1619 3391 1289 3197 
Q 959 3003 697 2906 
L 697 3450 
Q 1169 3672 1522 3987 
Q 1875 4303 2022 4600 
L 2384 4600 
L 2384 0 
z
" transform="scale(0.015625)"/>
       </defs>
       <use xlink:href="#ArialMT-31"/>
       <use xlink:href="#ArialMT-2e" transform="translate(55.615234 0)"/>
       <use xlink:href="#ArialMT-30" transform="translate(83.398438 0)"/>
       <use xlink:href="#ArialMT-30" transform="translate(139.013672 0)"/>
      </g>
     </g>
    </g>
    <g id="xtick_6">
     <g id="text_6">
      <!-- 1.25 -->
      <g style="fill: #262626" transform="translate(270.096484 324.957594) scale(0.11 -0.11)">
       <use xlink:href="#ArialMT-31"/>
       <use xlink:href="#ArialMT-2e" transform="translate(55.615234 0)"/>
       <use xlink:href="#ArialMT-32" transform="translate(83.398438 0)"/>
       <use xlink:href="#ArialMT-35" transform="translate(139.013672 0)"/>
      </g>
     </g>
    </g>
    <g id="xtick_7">
     <g id="text_7">
      <!-- 1.50 -->
      <g style="fill: #262626" transform="translate(314.736484 324.957594) scale(0.11 -0.11)">
       <use xlink:href="#ArialMT-31"/>
       <use xlink:href="#ArialMT-2e" transform="translate(55.615234 0)"/>
       <use xlink:href="#ArialMT-35" transform="translate(83.398438 0)"/>
       <use xlink:href="#ArialMT-30" transform="translate(139.013672 0)"/>
      </g>
     </g>
    </g>
    <g id="xtick_8">
     <g id="text_8">
      <!-- 1.75 -->
      <g style="fill: #262626" transform="translate(359.376484 324.957594) scale(0.11 -0.11)">
       <use xlink:href="#ArialMT-31"/>
       <use xlink:href="#ArialMT-2e" transform="translate(55.615234 0)"/>
       <use xlink:href="#ArialMT-37" transform="translate(83.398438 0)"/>
       <use xlink:href="#ArialMT-35" transform="translate(139.013672 0)"/>
      </g>
     </g>
    </g>
    <g id="xtick_9">
     <g id="text_9">
      <!-- 2.00 -->
      <g style="fill: #262626" transform="translate(404.016484 324.957594) scale(0.11 -0.11)">
       <use xlink:href="#ArialMT-32"/>
       <use xlink:href="#ArialMT-2e" transform="translate(55.615234 0)"/>
       <use xlink:href="#ArialMT-30" transform="translate(83.398438 0)"/>
       <use xlink:href="#ArialMT-30" transform="translate(139.013672 0)"/>
      </g>
     </g>
    </g>
    <g id="text_10">
     <!-- standard-adjusted score -->
     <g style="fill: #262626" transform="translate(171.794062 339.733219) scale(0.12 -0.12)">
      <defs>
       <path id="ArialMT-73" d="M 197 991 
L 753 1078 
Q 800 744 1014 566 
Q 1228 388 1613 388 
Q 2000 388 2187 545 
Q 2375 703 2375 916 
Q 2375 1106 2209 1216 
Q 2094 1291 1634 1406 
Q 1016 1563 777 1677 
Q 538 1791 414 1992 
Q 291 2194 291 2438 
Q 291 2659 392 2848 
Q 494 3038 669 3163 
Q 800 3259 1026 3326 
Q 1253 3394 1513 3394 
Q 1903 3394 2198 3281 
Q 2494 3169 2634 2976 
Q 2775 2784 2828 2463 
L 2278 2388 
Q 2241 2644 2061 2787 
Q 1881 2931 1553 2931 
Q 1166 2931 1000 2803 
Q 834 2675 834 2503 
Q 834 2394 903 2306 
Q 972 2216 1119 2156 
Q 1203 2125 1616 2013 
Q 2213 1853 2448 1751 
Q 2684 1650 2818 1456 
Q 2953 1263 2953 975 
Q 2953 694 2789 445 
Q 2625 197 2315 61 
Q 2006 -75 1616 -75 
Q 969 -75 630 194 
Q 291 463 197 991 
z
" transform="scale(0.015625)"/>
       <path id="ArialMT-74" d="M 1650 503 
L 1731 6 
Q 1494 -44 1306 -44 
Q 1000 -44 831 53 
Q 663 150 594 308 
Q 525 466 525 972 
L 525 2881 
L 113 2881 
L 113 3319 
L 525 3319 
L 525 4141 
L 1084 4478 
L 1084 3319 
L 1650 3319 
L 1650 2881 
L 1084 2881 
L 1084 941 
Q 1084 700 1114 631 
Q 1144 563 1211 522 
Q 1278 481 1403 481 
Q 1497 481 1650 503 
z
" transform="scale(0.015625)"/>
       <path id="ArialMT-61" d="M 2588 409 
Q 2275 144 1986 34 
Q 1697 -75 1366 -75 
Q 819 -75 525 192 
Q 231 459 231 875 
Q 231 1119 342 1320 
Q 453 1522 633 1644 
Q 813 1766 1038 1828 
Q 1203 1872 1538 1913 
Q 2219 1994 2541 2106 
Q 2544 2222 2544 2253 
Q 2544 2597 2384 2738 
Q 2169 2928 1744 2928 
Q 1347 2928 1158 2789 
Q 969 2650 878 2297 
L 328 2372 
Q 403 2725 575 2942 
Q 747 3159 1072 3276 
Q 1397 3394 1825 3394 
Q 2250 3394 2515 3294 
Q 2781 3194 2906 3042 
Q 3031 2891 3081 2659 
Q 3109 2516 3109 2141 
L 3109 1391 
Q 3109 606 3145 398 
Q 3181 191 3288 0 
L 2700 0 
Q 2613 175 2588 409 
z
M 2541 1666 
Q 2234 1541 1622 1453 
Q 1275 1403 1131 1340 
Q 988 1278 909 1158 
Q 831 1038 831 891 
Q 831 666 1001 516 
Q 1172 366 1500 366 
Q 1825 366 2078 508 
Q 2331 650 2450 897 
Q 2541 1088 2541 1459 
L 2541 1666 
z
" transform="scale(0.015625)"/>
       <path id="ArialMT-6e" d="M 422 0 
L 422 3319 
L 928 3319 
L 928 2847 
Q 1294 3394 1984 3394 
Q 2284 3394 2536 3286 
Q 2788 3178 2913 3003 
Q 3038 2828 3088 2588 
Q 3119 2431 3119 2041 
L 3119 0 
L 2556 0 
L 2556 2019 
Q 2556 2363 2490 2533 
Q 2425 2703 2258 2804 
Q 2091 2906 1866 2906 
Q 1506 2906 1245 2678 
Q 984 2450 984 1813 
L 984 0 
L 422 0 
z
" transform="scale(0.015625)"/>
       <path id="ArialMT-64" d="M 2575 0 
L 2575 419 
Q 2259 -75 1647 -75 
Q 1250 -75 917 144 
Q 584 363 401 755 
Q 219 1147 219 1656 
Q 219 2153 384 2558 
Q 550 2963 881 3178 
Q 1213 3394 1622 3394 
Q 1922 3394 2156 3267 
Q 2391 3141 2538 2938 
L 2538 4581 
L 3097 4581 
L 3097 0 
L 2575 0 
z
M 797 1656 
Q 797 1019 1065 703 
Q 1334 388 1700 388 
Q 2069 388 2326 689 
Q 2584 991 2584 1609 
Q 2584 2291 2321 2609 
Q 2059 2928 1675 2928 
Q 1300 2928 1048 2622 
Q 797 2316 797 1656 
z
" transform="scale(0.015625)"/>
       <path id="ArialMT-72" d="M 416 0 
L 416 3319 
L 922 3319 
L 922 2816 
Q 1116 3169 1280 3281 
Q 1444 3394 1641 3394 
Q 1925 3394 2219 3213 
L 2025 2691 
Q 1819 2813 1613 2813 
Q 1428 2813 1281 2702 
Q 1134 2591 1072 2394 
Q 978 2094 978 1738 
L 978 0 
L 416 0 
z
" transform="scale(0.015625)"/>
       <path id="ArialMT-2d" d="M 203 1375 
L 203 1941 
L 1931 1941 
L 1931 1375 
L 203 1375 
z
" transform="scale(0.015625)"/>
       <path id="ArialMT-6a" d="M 419 3928 
L 419 4581 
L 981 4581 
L 981 3928 
L 419 3928 
z
M -294 -1288 
L -188 -809 
Q -19 -853 78 -853 
Q 250 -853 334 -739 
Q 419 -625 419 -169 
L 419 3319 
L 981 3319 
L 981 -181 
Q 981 -794 822 -1034 
Q 619 -1347 147 -1347 
Q -81 -1347 -294 -1288 
z
" transform="scale(0.015625)"/>
       <path id="ArialMT-75" d="M 2597 0 
L 2597 488 
Q 2209 -75 1544 -75 
Q 1250 -75 995 37 
Q 741 150 617 320 
Q 494 491 444 738 
Q 409 903 409 1263 
L 409 3319 
L 972 3319 
L 972 1478 
Q 972 1038 1006 884 
Q 1059 663 1231 536 
Q 1403 409 1656 409 
Q 1909 409 2131 539 
Q 2353 669 2445 892 
Q 2538 1116 2538 1541 
L 2538 3319 
L 3100 3319 
L 3100 0 
L 2597 0 
z
" transform="scale(0.015625)"/>
       <path id="ArialMT-65" d="M 2694 1069 
L 3275 997 
Q 3138 488 2766 206 
Q 2394 -75 1816 -75 
Q 1088 -75 661 373 
Q 234 822 234 1631 
Q 234 2469 665 2931 
Q 1097 3394 1784 3394 
Q 2450 3394 2872 2941 
Q 3294 2488 3294 1666 
Q 3294 1616 3291 1516 
L 816 1516 
Q 847 969 1125 678 
Q 1403 388 1819 388 
Q 2128 388 2347 550 
Q 2566 713 2694 1069 
z
M 847 1978 
L 2700 1978 
Q 2663 2397 2488 2606 
Q 2219 2931 1791 2931 
Q 1403 2931 1139 2672 
Q 875 2413 847 1978 
z
" transform="scale(0.015625)"/>
       <path id="ArialMT-20" transform="scale(0.015625)"/>
       <path id="ArialMT-63" d="M 2588 1216 
L 3141 1144 
Q 3050 572 2676 248 
Q 2303 -75 1759 -75 
Q 1078 -75 664 370 
Q 250 816 250 1647 
Q 250 2184 428 2587 
Q 606 2991 970 3192 
Q 1334 3394 1763 3394 
Q 2303 3394 2647 3120 
Q 2991 2847 3088 2344 
L 2541 2259 
Q 2463 2594 2264 2762 
Q 2066 2931 1784 2931 
Q 1359 2931 1093 2626 
Q 828 2322 828 1663 
Q 828 994 1084 691 
Q 1341 388 1753 388 
Q 2084 388 2306 591 
Q 2528 794 2588 1216 
z
" transform="scale(0.015625)"/>
       <path id="ArialMT-6f" d="M 213 1659 
Q 213 2581 725 3025 
Q 1153 3394 1769 3394 
Q 2453 3394 2887 2945 
Q 3322 2497 3322 1706 
Q 3322 1066 3130 698 
Q 2938 331 2570 128 
Q 2203 -75 1769 -75 
Q 1072 -75 642 372 
Q 213 819 213 1659 
z
M 791 1659 
Q 791 1022 1069 705 
Q 1347 388 1769 388 
Q 2188 388 2466 706 
Q 2744 1025 2744 1678 
Q 2744 2294 2464 2611 
Q 2184 2928 1769 2928 
Q 1347 2928 1069 2612 
Q 791 2297 791 1659 
z
" transform="scale(0.015625)"/>
      </defs>
      <use xlink:href="#ArialMT-73"/>
      <use xlink:href="#ArialMT-74" transform="translate(50 0)"/>
      <use xlink:href="#ArialMT-61" transform="translate(77.783203 0)"/>
      <use xlink:href="#ArialMT-6e" transform="translate(133.398438 0)"/>
      <use xlink:href="#ArialMT-64" transform="translate(189.013672 0)"/>
      <use xlink:href="#ArialMT-61" transform="translate(244.628906 0)"/>
      <use xlink:href="#ArialMT-72" transform="translate(300.244141 0)"/>
      <use xlink:href="#ArialMT-64" transform="translate(333.544922 0)"/>
      <use xlink:href="#ArialMT-2d" transform="translate(389.160156 0)"/>
      <use xlink:href="#ArialMT-61" transform="translate(422.460938 0)"/>
      <use xlink:href="#ArialMT-64" transform="translate(478.076172 0)"/>
      <use xlink:href="#ArialMT-6a" transform="translate(533.691406 0)"/>
      <use xlink:href="#ArialMT-75" transform="translate(555.908203 0)"/>
      <use xlink:href="#ArialMT-73" transform="translate(611.523438 0)"/>
      <use xlink:href="#ArialMT-74" transform="translate(661.523438 0)"/>
      <use xlink:href="#ArialMT-65" transform="translate(689.306641 0)"/>
      <use xlink:href="#ArialMT-64" transform="translate(744.921875 0)"/>
      <use xlink:href="#ArialMT-20" transform="translate(800.537109 0)"/>
      <use xlink:href="#ArialMT-73" transform="translate(828.320312 0)"/>
      <use xlink:href="#ArialMT-63" transform="translate(878.320312 0)"/>
      <use xlink:href="#ArialMT-6f" transform="translate(928.320312 0)"/>
      <use xlink:href="#ArialMT-72" transform="translate(983.935547 0)"/>
      <use xlink:href="#ArialMT-65" transform="translate(1017.236328 0)"/>
     </g>
    </g>
   </g>
   <g id="matplotlib.axis_2">
    <g id="ytick_1">
     <g id="text_11">
      <!-- 0.0 -->
      <g style="fill: #262626" transform="translate(32.81 311.520797) scale(0.11 -0.11)">
       <use xlink:href="#ArialMT-30"/>
       <use xlink:href="#ArialMT-2e" transform="translate(55.615234 0)"/>
       <use xlink:href="#ArialMT-30" transform="translate(83.398438 0)"/>
      </g>
     </g>
    </g>
    <g id="ytick_2">
     <g id="text_12">
      <!-- 0.5 -->
      <g style="fill: #262626" transform="translate(32.81 278.642388) scale(0.11 -0.11)">
       <use xlink:href="#ArialMT-30"/>
       <use xlink:href="#ArialMT-2e" transform="translate(55.615234 0)"/>
       <use xlink:href="#ArialMT-35" transform="translate(83.398438 0)"/>
      </g>
     </g>
    </g>
    <g id="ytick_3">
     <g id="text_13">
      <!-- 1.0 -->
      <g style="fill: #262626" transform="translate(32.81 245.76398) scale(0.11 -0.11)">
       <use xlink:href="#ArialMT-31"/>
       <use xlink:href="#ArialMT-2e" transform="translate(55.615234 0)"/>
       <use xlink:href="#ArialMT-30" transform="translate(83.398438 0)"/>
      </g>
     </g>
    </g>
    <g id="ytick_4">
     <g id="text_14">
      <!-- 1.5 -->
      <g style="fill: #262626" transform="translate(32.81 212.885571) scale(0.11 -0.11)">
       <use xlink:href="#ArialMT-31"/>
       <use xlink:href="#ArialMT-2e" transform="translate(55.615234 0)"/>
       <use xlink:href="#ArialMT-35" transform="translate(83.398438 0)"/>
      </g>
     </g>
    </g>
    <g id="ytick_5">
     <g id="text_15">
      <!-- 2.0 -->
      <g style="fill: #262626" transform="translate(32.81 180.007163) scale(0.11 -0.11)">
       <use xlink:href="#ArialMT-32"/>
       <use xlink:href="#ArialMT-2e" transform="translate(55.615234 0)"/>
       <use xlink:href="#ArialMT-30" transform="translate(83.398438 0)"/>
      </g>
     </g>
    </g>
    <g id="ytick_6">
     <g id="text_16">
      <!-- 2.5 -->
      <g style="fill: #262626" transform="translate(32.81 147.128754) scale(0.11 -0.11)">
       <use xlink:href="#ArialMT-32"/>
       <use xlink:href="#ArialMT-2e" transform="translate(55.615234 0)"/>
       <use xlink:href="#ArialMT-35" transform="translate(83.398438 0)"/>
      </g>
     </g>
    </g>
    <g id="ytick_7">
     <g id="text_17">
      <!-- 3.0 -->
      <g style="fill: #262626" transform="translate(32.81 114.250345) scale(0.11 -0.11)">
       <defs>
        <path id="ArialMT-33" d="M 269 1209 
L 831 1284 
Q 928 806 1161 595 
Q 1394 384 1728 384 
Q 2125 384 2398 659 
Q 2672 934 2672 1341 
Q 2672 1728 2419 1979 
Q 2166 2231 1775 2231 
Q 1616 2231 1378 2169 
L 1441 2663 
Q 1497 2656 1531 2656 
Q 1891 2656 2178 2843 
Q 2466 3031 2466 3422 
Q 2466 3731 2256 3934 
Q 2047 4138 1716 4138 
Q 1388 4138 1169 3931 
Q 950 3725 888 3313 
L 325 3413 
Q 428 3978 793 4289 
Q 1159 4600 1703 4600 
Q 2078 4600 2393 4439 
Q 2709 4278 2876 4000 
Q 3044 3722 3044 3409 
Q 3044 3113 2884 2869 
Q 2725 2625 2413 2481 
Q 2819 2388 3044 2092 
Q 3269 1797 3269 1353 
Q 3269 753 2831 336 
Q 2394 -81 1725 -81 
Q 1122 -81 723 278 
Q 325 638 269 1209 
z
" transform="scale(0.015625)"/>
       </defs>
       <use xlink:href="#ArialMT-33"/>
       <use xlink:href="#ArialMT-2e" transform="translate(55.615234 0)"/>
       <use xlink:href="#ArialMT-30" transform="translate(83.398438 0)"/>
      </g>
     </g>
    </g>
    <g id="ytick_8">
     <g id="text_18">
      <!-- 3.5 -->
      <g style="fill: #262626" transform="translate(32.81 81.371937) scale(0.11 -0.11)">
       <use xlink:href="#ArialMT-33"/>
       <use xlink:href="#ArialMT-2e" transform="translate(55.615234 0)"/>
       <use xlink:href="#ArialMT-35" transform="translate(83.398438 0)"/>
      </g>
     </g>
    </g>
    <g id="ytick_9">
     <g id="text_19">
      <!-- 4.0 -->
      <g style="fill: #262626" transform="translate(32.81 48.493528) scale(0.11 -0.11)">
       <defs>
        <path id="ArialMT-34" d="M 2069 0 
L 2069 1097 
L 81 1097 
L 81 1613 
L 2172 4581 
L 2631 4581 
L 2631 1613 
L 3250 1613 
L 3250 1097 
L 2631 1097 
L 2631 0 
L 2069 0 
z
M 2069 1613 
L 2069 3678 
L 634 1613 
L 2069 1613 
z
" transform="scale(0.015625)"/>
       </defs>
       <use xlink:href="#ArialMT-34"/>
       <use xlink:href="#ArialMT-2e" transform="translate(55.615234 0)"/>
       <use xlink:href="#ArialMT-30" transform="translate(83.398438 0)"/>
      </g>
     </g>
    </g>
    <g id="text_20">
     <!-- Density -->
     <g style="fill: #262626" transform="translate(26.284375 194.53425) rotate(-90) scale(0.12 -0.12)">
      <defs>
       <path id="ArialMT-44" d="M 494 0 
L 494 4581 
L 2072 4581 
Q 2606 4581 2888 4516 
Q 3281 4425 3559 4188 
Q 3922 3881 4101 3404 
Q 4281 2928 4281 2316 
Q 4281 1794 4159 1391 
Q 4038 988 3847 723 
Q 3656 459 3429 307 
Q 3203 156 2883 78 
Q 2563 0 2147 0 
L 494 0 
z
M 1100 541 
L 2078 541 
Q 2531 541 2789 625 
Q 3047 709 3200 863 
Q 3416 1078 3536 1442 
Q 3656 1806 3656 2325 
Q 3656 3044 3420 3430 
Q 3184 3816 2847 3947 
Q 2603 4041 2063 4041 
L 1100 4041 
L 1100 541 
z
" transform="scale(0.015625)"/>
       <path id="ArialMT-69" d="M 425 3934 
L 425 4581 
L 988 4581 
L 988 3934 
L 425 3934 
z
M 425 0 
L 425 3319 
L 988 3319 
L 988 0 
L 425 0 
z
" transform="scale(0.015625)"/>
       <path id="ArialMT-79" d="M 397 -1278 
L 334 -750 
Q 519 -800 656 -800 
Q 844 -800 956 -737 
Q 1069 -675 1141 -563 
Q 1194 -478 1313 -144 
Q 1328 -97 1363 -6 
L 103 3319 
L 709 3319 
L 1400 1397 
Q 1534 1031 1641 628 
Q 1738 1016 1872 1384 
L 2581 3319 
L 3144 3319 
L 1881 -56 
Q 1678 -603 1566 -809 
Q 1416 -1088 1222 -1217 
Q 1028 -1347 759 -1347 
Q 597 -1347 397 -1278 
z
" transform="scale(0.015625)"/>
      </defs>
      <use xlink:href="#ArialMT-44"/>
      <use xlink:href="#ArialMT-65" transform="translate(72.216797 0)"/>
      <use xlink:href="#ArialMT-6e" transform="translate(127.832031 0)"/>
      <use xlink:href="#ArialMT-73" transform="translate(183.447266 0)"/>
      <use xlink:href="#ArialMT-69" transform="translate(233.447266 0)"/>
      <use xlink:href="#ArialMT-74" transform="translate(255.664062 0)"/>
      <use xlink:href="#ArialMT-79" transform="translate(283.447266 0)"/>
     </g>
    </g>
   </g>
   <g id="line2d_1">
    <path d="M 90.747245 307.562074 
L 96.479386 307.418984 
L 100.778491 307.053557 
L 103.644562 306.59866 
L 107.943667 305.594747 
L 115.108843 303.740896 
L 119.407949 302.726796 
L 120.840984 302.281373 
L 122.274019 301.701231 
L 123.707054 300.926156 
L 125.14009 299.893355 
L 126.573125 298.541869 
L 128.00616 296.817066 
L 129.439195 294.67478 
L 130.872231 292.084484 
L 132.305266 289.030743 
L 133.738301 285.512088 
L 135.171336 281.536689 
L 136.604371 277.114719 
L 138.037407 272.248234 
L 139.470442 266.920385 
L 140.903477 261.086551 
L 142.336512 254.670177 
L 143.769547 247.565406 
L 145.202583 239.647282 
L 146.635618 230.788536 
L 148.068653 220.880489 
L 149.501688 209.854788 
L 150.934723 197.702773 
L 153.800794 170.365633 
L 160.96597 96.838936 
L 162.399005 84.482207 
L 163.83204 73.925709 
L 165.265075 65.492081 
L 166.698111 59.378377 
L 168.131146 55.63169 
L 169.564181 54.144 
L 170.997216 54.670288 
L 172.430251 56.869479 
L 173.863287 60.362467 
L 175.296322 64.796784 
L 176.729357 69.904803 
L 178.162392 75.54279 
L 179.595428 81.701841 
L 181.028463 88.488074 
L 182.461498 96.076719 
L 183.894533 104.651012 
L 185.327568 114.340227 
L 186.760604 125.170832 
L 189.626674 149.721524 
L 195.358815 201.377195 
L 196.79185 212.713635 
L 198.224885 222.902428 
L 199.65792 231.84569 
L 201.090956 239.53789 
L 202.523991 246.051672 
L 203.957026 251.51889 
L 205.390061 256.109652 
L 206.823096 260.011321 
L 208.256132 263.40883 
L 211.122202 269.319593 
L 215.421308 277.328555 
L 218.287378 282.241027 
L 221.153449 286.483695 
L 222.586484 288.286365 
L 224.019519 289.880125 
L 226.885589 292.563058 
L 229.75166 294.837384 
L 234.050765 297.87522 
L 236.916836 299.568755 
L 239.782906 300.854016 
L 242.648977 301.751518 
L 246.948082 302.713194 
L 258.412364 304.944524 
L 268.44361 306.783265 
L 272.742716 307.268575 
L 277.041822 307.491899 
L 284.206998 307.571957 
L 291.372174 307.473087 
L 295.671279 307.169375 
L 298.53735 306.742963 
L 301.40342 306.098019 
L 308.568596 304.212736 
L 310.001631 304.00292 
L 311.434667 303.908979 
L 312.867702 303.940401 
L 315.733772 304.354413 
L 318.599843 305.090177 
L 322.898948 306.276867 
L 325.765019 306.866402 
L 328.631089 307.23229 
L 331.497159 307.407531 
L 335.796265 307.40791 
L 340.095371 307.133894 
L 344.394476 306.598881 
L 350.126617 305.853081 
L 352.992687 305.725874 
L 355.858758 305.851214 
L 360.157864 306.385527 
L 365.890004 307.136102 
L 370.18911 307.436048 
L 375.921251 307.563358 
L 375.921251 307.563358 
" clip-path="url(#p4286158626)" style="fill: none; stroke: #4c72b0; stroke-width: 1.5; stroke-linecap: round"/>
   </g>
   <g id="line2d_2">
    <path d="M 46.974373 307.58234 
L 56.776591 307.464163 
L 60.043997 307.313447 
L 63.311403 307.050042 
L 66.578809 306.591927 
L 69.846215 305.882454 
L 73.11362 305.037407 
L 76.381026 304.337045 
L 82.915838 303.588398 
L 86.183244 302.973523 
L 89.45065 302.12222 
L 92.718056 301.481029 
L 95.985462 301.290964 
L 99.252868 301.408931 
L 102.520273 301.739257 
L 109.055085 302.689536 
L 112.322491 302.794779 
L 115.589897 302.330221 
L 118.857303 301.155373 
L 122.124709 299.205604 
L 125.392115 296.564359 
L 128.659521 293.261639 
L 131.926926 288.669145 
L 135.194332 281.521322 
L 138.461738 270.737079 
L 141.729144 255.992793 
L 144.99655 237.583887 
L 148.263956 215.823733 
L 151.531362 191.122383 
L 158.066173 138.305372 
L 161.333579 114.02504 
L 164.600985 93.929043 
L 167.868391 79.549462 
L 171.135797 71.669497 
L 174.403203 71.043128 
L 177.670609 79.296324 
L 180.938015 97.530789 
L 187.472826 149.033384 
L 190.740232 171.624172 
L 194.007638 190.581302 
L 197.275044 207.798537 
L 200.54245 224.088207 
L 203.809856 238.718949 
L 207.077262 250.902831 
L 210.344668 260.756566 
L 213.612074 268.681321 
L 216.879479 275.016449 
L 220.146885 280.429749 
L 223.414291 285.267781 
L 226.681697 289.03815 
L 229.949103 291.612072 
L 236.483915 295.793597 
L 239.751321 297.69912 
L 243.018727 299.383248 
L 246.286132 300.817539 
L 249.553538 301.914609 
L 259.355756 304.665776 
L 262.623162 305.129277 
L 272.42538 305.576076 
L 278.960191 305.984822 
L 285.495003 306.309941 
L 288.762409 306.294011 
L 295.297221 305.98218 
L 298.564627 306.154198 
L 305.099438 306.73559 
L 311.63425 306.677646 
L 314.901656 306.638751 
L 321.436468 306.870415 
L 327.97128 307.08777 
L 344.308309 307.177223 
L 373.714962 307.264331 
L 380.249774 307.435336 
L 393.319397 307.532113 
L 406.389021 307.583964 
L 432.528268 307.505632 
L 439.06308 307.443479 
L 455.400109 307.583705 
L 461.8 307.583998 
L 461.8 307.583998 
" clip-path="url(#p4286158626)" style="fill: none; stroke: #dd8452; stroke-width: 1.5; stroke-linecap: round"/>
   </g>
   <g id="line2d_3">
    <path d="M -1 215.188924 
L 0.944262 210.332106 
L 2.425546 207.004951 
L 3.90683 203.999407 
L 5.388115 201.326775 
L 6.869399 198.993843 
L 8.350683 197.003271 
L 9.831967 195.353978 
L 11.313251 194.041484 
L 12.794535 193.058208 
L 14.275819 192.393706 
L 15.757103 192.034846 
L 17.238387 191.965954 
L 18.719671 192.168934 
L 20.200955 192.623403 
L 21.682239 193.306865 
L 23.163523 194.194933 
L 24.644807 195.26164 
L 27.607375 197.821566 
L 30.569943 200.763852 
L 37.976364 208.445689 
L 40.938932 211.245426 
L 43.9015 213.774455 
L 46.864068 216.042992 
L 51.30792 219.111384 
L 57.233056 223.16037 
L 60.195624 225.416225 
L 63.158192 227.926521 
L 66.12076 230.715675 
L 69.083328 233.768169 
L 73.527181 238.73708 
L 80.933601 247.551115 
L 88.340021 256.32672 
L 92.783873 261.279336 
L 95.746441 264.33726 
L 98.709009 267.127393 
L 101.671577 269.594201 
L 104.634145 271.701815 
L 107.596714 273.445093 
L 110.559282 274.855729 
L 113.52185 276.001324 
L 117.965702 277.435636 
L 122.409554 278.855263 
L 125.372122 279.953823 
L 128.33469 281.248518 
L 131.297258 282.764225 
L 134.259826 284.491221 
L 138.703678 287.388118 
L 150.553951 295.416154 
L 154.997803 298.001536 
L 157.960371 299.506218 
L 160.922939 300.823653 
L 163.885507 301.953203 
L 166.848075 302.900008 
L 169.810643 303.673029 
L 172.773211 304.284105 
L 177.217064 304.930221 
L 181.660916 305.310879 
L 187.586052 305.553338 
L 200.917608 305.994045 
L 212.767881 306.776427 
L 221.655585 307.258024 
L 230.543289 307.492203 
L 239.430993 307.566034 
L 239.430993 307.566034 
" clip-path="url(#p4286158626)" style="fill: none; stroke: #55a868; stroke-width: 1.5; stroke-linecap: round"/>
   </g>
   <g id="line2d_4">
    <path d="M -1 304.968884 
L 2.38975 304.894692 
L 7.448847 304.989797 
L 17.567039 305.311062 
L 24.312501 305.250679 
L 34.430694 305.085339 
L 47.921617 305.120144 
L 51.294348 304.821421 
L 54.667079 304.2371 
L 58.03981 303.343235 
L 61.412541 302.186237 
L 71.530733 298.413462 
L 74.903464 297.484246 
L 78.276195 296.796742 
L 83.335291 296.072123 
L 91.767118 294.945649 
L 108.630773 292.257163 
L 112.003504 291.298299 
L 113.689869 290.635133 
L 115.376235 289.81472 
L 117.0626 288.812616 
L 118.748965 287.606138 
L 120.435331 286.174317 
L 122.121696 284.49755 
L 123.808062 282.557131 
L 125.494427 280.334795 
L 127.180793 277.812441 
L 128.867158 274.972123 
L 130.553523 271.796379 
L 132.239889 268.268851 
L 133.926254 264.375122 
L 135.61262 260.103648 
L 137.298985 255.446641 
L 138.985351 250.40079 
L 140.671716 244.967765 
L 144.044447 232.973522 
L 147.417178 219.587943 
L 150.789909 205.043158 
L 160.908101 159.573156 
L 162.594467 152.876862 
L 164.280832 146.827059 
L 165.967198 141.582019 
L 167.653563 137.286316 
L 169.339929 134.05996 
L 171.026294 131.988648 
L 172.712659 131.116411 
L 174.399025 131.441739 
L 176.08539 132.917759 
L 177.771756 135.456531 
L 179.458121 138.936935 
L 181.144487 143.21518 
L 182.830852 148.136617 
L 186.203583 159.3051 
L 191.262679 177.545236 
L 199.694506 207.925657 
L 204.753603 225.497901 
L 208.126334 236.702218 
L 211.499064 247.20769 
L 214.871795 256.753633 
L 218.244526 265.168685 
L 219.930892 268.934549 
L 221.617257 272.41224 
L 223.303622 275.613579 
L 224.989988 278.553596 
L 226.676353 281.248485 
L 228.362719 283.713905 
L 230.049084 285.963799 
L 231.73545 288.009805 
L 233.421815 289.861234 
L 235.108181 291.525518 
L 236.794546 293.009012 
L 238.480911 294.317993 
L 240.167277 295.459701 
L 241.853642 296.443292 
L 243.540008 297.28057 
L 246.912739 298.578714 
L 250.285469 299.506947 
L 262.090028 302.205109 
L 275.580951 305.927138 
L 278.953682 306.54796 
L 282.326413 306.983331 
L 287.385509 307.354499 
L 294.130971 307.535614 
L 295.817336 307.552792 
L 295.817336 307.552792 
" clip-path="url(#p4286158626)" style="fill: none; stroke: #c44e52; stroke-width: 1.5; stroke-linecap: round"/>
   </g>
   <g id="line2d_5">
    <path d="M 212.799364 307.584 
L 212.799364 41.472 
" clip-path="url(#p4286158626)" style="fill: none; stroke-dasharray: 5.55,2.4; stroke-dashoffset: 0; stroke: #808080; stroke-width: 1.5"/>
   </g>
   <g id="line2d_6">
    <path d="M 117.104529 307.584 
L 117.104529 41.472 
" clip-path="url(#p4286158626)" style="fill: none; stroke-dasharray: 5.55,2.4; stroke-dashoffset: 0; stroke: #808080; stroke-width: 1.5"/>
   </g>
   <g id="line2d_7">
    <path d="M 67.955275 307.584 
L 67.955275 41.472 
" clip-path="url(#p4286158626)" style="fill: none; stroke-dasharray: 5.55,2.4; stroke-dashoffset: 0; stroke: #808080; stroke-width: 1.5"/>
   </g>
   <g id="patch_3">
    <path d="M 57.6 307.584 
L 57.6 41.472 
" style="fill: none; stroke: #262626; stroke-width: 1.25; stroke-linejoin: miter; stroke-linecap: square"/>
   </g>
   <g id="patch_4">
    <path d="M 414.72 307.584 
L 414.72 41.472 
" style="fill: none; stroke: #262626; stroke-width: 1.25; stroke-linejoin: miter; stroke-linecap: square"/>
   </g>
   <g id="patch_5">
    <path d="M 57.6 307.584 
L 414.72 307.584 
" style="fill: none; stroke: #262626; stroke-width: 1.25; stroke-linejoin: miter; stroke-linecap: square"/>
   </g>
   <g id="patch_6">
    <path d="M 57.6 41.472 
L 414.72 41.472 
" style="fill: none; stroke: #262626; stroke-width: 1.25; stroke-linejoin: miter; stroke-linecap: square"/>
   </g>
   <g id="text_21">
    <!-- BRAF_nterm abundance -->
    <g style="fill: #262626" transform="translate(170.12625 35.472) scale(0.12 -0.12)">
     <defs>
      <path id="ArialMT-42" d="M 469 0 
L 469 4581 
L 2188 4581 
Q 2713 4581 3030 4442 
Q 3347 4303 3526 4014 
Q 3706 3725 3706 3409 
Q 3706 3116 3547 2856 
Q 3388 2597 3066 2438 
Q 3481 2316 3704 2022 
Q 3928 1728 3928 1328 
Q 3928 1006 3792 729 
Q 3656 453 3456 303 
Q 3256 153 2954 76 
Q 2653 0 2216 0 
L 469 0 
z
M 1075 2656 
L 2066 2656 
Q 2469 2656 2644 2709 
Q 2875 2778 2992 2937 
Q 3109 3097 3109 3338 
Q 3109 3566 3000 3739 
Q 2891 3913 2687 3977 
Q 2484 4041 1991 4041 
L 1075 4041 
L 1075 2656 
z
M 1075 541 
L 2216 541 
Q 2509 541 2628 563 
Q 2838 600 2978 687 
Q 3119 775 3209 942 
Q 3300 1109 3300 1328 
Q 3300 1584 3169 1773 
Q 3038 1963 2805 2039 
Q 2572 2116 2134 2116 
L 1075 2116 
L 1075 541 
z
" transform="scale(0.015625)"/>
      <path id="ArialMT-52" d="M 503 0 
L 503 4581 
L 2534 4581 
Q 3147 4581 3465 4457 
Q 3784 4334 3975 4021 
Q 4166 3709 4166 3331 
Q 4166 2844 3850 2509 
Q 3534 2175 2875 2084 
Q 3116 1969 3241 1856 
Q 3506 1613 3744 1247 
L 4541 0 
L 3778 0 
L 3172 953 
Q 2906 1366 2734 1584 
Q 2563 1803 2427 1890 
Q 2291 1978 2150 2013 
Q 2047 2034 1813 2034 
L 1109 2034 
L 1109 0 
L 503 0 
z
M 1109 2559 
L 2413 2559 
Q 2828 2559 3062 2645 
Q 3297 2731 3419 2920 
Q 3541 3109 3541 3331 
Q 3541 3656 3305 3865 
Q 3069 4075 2559 4075 
L 1109 4075 
L 1109 2559 
z
" transform="scale(0.015625)"/>
      <path id="ArialMT-41" d="M -9 0 
L 1750 4581 
L 2403 4581 
L 4278 0 
L 3588 0 
L 3053 1388 
L 1138 1388 
L 634 0 
L -9 0 
z
M 1313 1881 
L 2866 1881 
L 2388 3150 
Q 2169 3728 2063 4100 
Q 1975 3659 1816 3225 
L 1313 1881 
z
" transform="scale(0.015625)"/>
      <path id="ArialMT-46" d="M 525 0 
L 525 4581 
L 3616 4581 
L 3616 4041 
L 1131 4041 
L 1131 2622 
L 3281 2622 
L 3281 2081 
L 1131 2081 
L 1131 0 
L 525 0 
z
" transform="scale(0.015625)"/>
      <path id="ArialMT-5f" d="M -97 -1272 
L -97 -866 
L 3631 -866 
L 3631 -1272 
L -97 -1272 
z
" transform="scale(0.015625)"/>
      <path id="ArialMT-6d" d="M 422 0 
L 422 3319 
L 925 3319 
L 925 2853 
Q 1081 3097 1340 3245 
Q 1600 3394 1931 3394 
Q 2300 3394 2536 3241 
Q 2772 3088 2869 2813 
Q 3263 3394 3894 3394 
Q 4388 3394 4653 3120 
Q 4919 2847 4919 2278 
L 4919 0 
L 4359 0 
L 4359 2091 
Q 4359 2428 4304 2576 
Q 4250 2725 4106 2815 
Q 3963 2906 3769 2906 
Q 3419 2906 3187 2673 
Q 2956 2441 2956 1928 
L 2956 0 
L 2394 0 
L 2394 2156 
Q 2394 2531 2256 2718 
Q 2119 2906 1806 2906 
Q 1569 2906 1367 2781 
Q 1166 2656 1075 2415 
Q 984 2175 984 1722 
L 984 0 
L 422 0 
z
" transform="scale(0.015625)"/>
      <path id="ArialMT-62" d="M 941 0 
L 419 0 
L 419 4581 
L 981 4581 
L 981 2947 
Q 1338 3394 1891 3394 
Q 2197 3394 2470 3270 
Q 2744 3147 2920 2923 
Q 3097 2700 3197 2384 
Q 3297 2069 3297 1709 
Q 3297 856 2875 390 
Q 2453 -75 1863 -75 
Q 1275 -75 941 416 
L 941 0 
z
M 934 1684 
Q 934 1088 1097 822 
Q 1363 388 1816 388 
Q 2184 388 2453 708 
Q 2722 1028 2722 1663 
Q 2722 2313 2464 2622 
Q 2206 2931 1841 2931 
Q 1472 2931 1203 2611 
Q 934 2291 934 1684 
z
" transform="scale(0.015625)"/>
     </defs>
     <use xlink:href="#ArialMT-42"/>
     <use xlink:href="#ArialMT-52" transform="translate(66.699219 0)"/>
     <use xlink:href="#ArialMT-41" transform="translate(138.916016 0)"/>
     <use xlink:href="#ArialMT-46" transform="translate(205.615234 0)"/>
     <use xlink:href="#ArialMT-5f" transform="translate(266.699219 0)"/>
     <use xlink:href="#ArialMT-6e" transform="translate(322.314453 0)"/>
     <use xlink:href="#ArialMT-74" transform="translate(377.929688 0)"/>
     <use xlink:href="#ArialMT-65" transform="translate(405.712891 0)"/>
     <use xlink:href="#ArialMT-72" transform="translate(461.328125 0)"/>
     <use xlink:href="#ArialMT-6d" transform="translate(494.628906 0)"/>
     <use xlink:href="#ArialMT-20" transform="translate(577.929688 0)"/>
     <use xlink:href="#ArialMT-61" transform="translate(605.712891 0)"/>
     <use xlink:href="#ArialMT-62" transform="translate(661.328125 0)"/>
     <use xlink:href="#ArialMT-75" transform="translate(716.943359 0)"/>
     <use xlink:href="#ArialMT-6e" transform="translate(772.558594 0)"/>
     <use xlink:href="#ArialMT-64" transform="translate(828.173828 0)"/>
     <use xlink:href="#ArialMT-61" transform="translate(883.789062 0)"/>
     <use xlink:href="#ArialMT-6e" transform="translate(939.404297 0)"/>
     <use xlink:href="#ArialMT-63" transform="translate(995.019531 0)"/>
     <use xlink:href="#ArialMT-65" transform="translate(1045.019531 0)"/>
    </g>
   </g>
   <g id="legend_1">
    <g id="patch_7">
     <path d="M 289.914688 112.640281 
L 407.02 112.640281 
Q 409.22 112.640281 409.22 110.440281 
L 409.22 49.172 
Q 409.22 46.972 407.02 46.972 
L 289.914688 46.972 
Q 287.714688 46.972 287.714688 49.172 
L 287.714688 110.440281 
Q 287.714688 112.640281 289.914688 112.640281 
z
" style="fill: #ffffff; opacity: 0.8; stroke: #cccccc; stroke-linejoin: miter"/>
    </g>
    <g id="line2d_8">
     <path d="M 292.114688 55.395594 
L 303.114688 55.395594 
L 314.114688 55.395594 
" style="fill: none; stroke: #4c72b0; stroke-width: 1.5; stroke-linecap: round"/>
    </g>
    <g id="text_22">
     <!-- synonymous WT -->
     <g style="fill: #262626" transform="translate(322.914688 59.245594) scale(0.11 -0.11)">
      <defs>
       <path id="ArialMT-57" d="M 1294 0 
L 78 4581 
L 700 4581 
L 1397 1578 
Q 1509 1106 1591 641 
Q 1766 1375 1797 1488 
L 2669 4581 
L 3400 4581 
L 4056 2263 
Q 4303 1400 4413 641 
Q 4500 1075 4641 1638 
L 5359 4581 
L 5969 4581 
L 4713 0 
L 4128 0 
L 3163 3491 
Q 3041 3928 3019 4028 
Q 2947 3713 2884 3491 
L 1913 0 
L 1294 0 
z
" transform="scale(0.015625)"/>
       <path id="ArialMT-54" d="M 1659 0 
L 1659 4041 
L 150 4041 
L 150 4581 
L 3781 4581 
L 3781 4041 
L 2266 4041 
L 2266 0 
L 1659 0 
z
" transform="scale(0.015625)"/>
      </defs>
      <use xlink:href="#ArialMT-73"/>
      <use xlink:href="#ArialMT-79" transform="translate(50 0)"/>
      <use xlink:href="#ArialMT-6e" transform="translate(100 0)"/>
      <use xlink:href="#ArialMT-6f" transform="translate(155.615234 0)"/>
      <use xlink:href="#ArialMT-6e" transform="translate(211.230469 0)"/>
      <use xlink:href="#ArialMT-79" transform="translate(266.845703 0)"/>
      <use xlink:href="#ArialMT-6d" transform="translate(316.845703 0)"/>
      <use xlink:href="#ArialMT-6f" transform="translate(400.146484 0)"/>
      <use xlink:href="#ArialMT-75" transform="translate(455.761719 0)"/>
      <use xlink:href="#ArialMT-73" transform="translate(511.376953 0)"/>
      <use xlink:href="#ArialMT-20" transform="translate(561.376953 0)"/>
      <use xlink:href="#ArialMT-57" transform="translate(589.160156 0)"/>
      <use xlink:href="#ArialMT-54" transform="translate(683.544922 0)"/>
     </g>
    </g>
    <g id="line2d_9">
     <path d="M 292.114688 71.084344 
L 303.114688 71.084344 
L 314.114688 71.084344 
" style="fill: none; stroke: #dd8452; stroke-width: 1.5; stroke-linecap: round"/>
    </g>
    <g id="text_23">
     <!-- missense -->
     <g style="fill: #262626" transform="translate(322.914688 74.934344) scale(0.11 -0.11)">
      <use xlink:href="#ArialMT-6d"/>
      <use xlink:href="#ArialMT-69" transform="translate(83.300781 0)"/>
      <use xlink:href="#ArialMT-73" transform="translate(105.517578 0)"/>
      <use xlink:href="#ArialMT-73" transform="translate(155.517578 0)"/>
      <use xlink:href="#ArialMT-65" transform="translate(205.517578 0)"/>
      <use xlink:href="#ArialMT-6e" transform="translate(261.132812 0)"/>
      <use xlink:href="#ArialMT-73" transform="translate(316.748047 0)"/>
      <use xlink:href="#ArialMT-65" transform="translate(366.748047 0)"/>
     </g>
    </g>
    <g id="line2d_10">
     <path d="M 292.114688 86.644188 
L 303.114688 86.644188 
L 314.114688 86.644188 
" style="fill: none; stroke: #55a868; stroke-width: 1.5; stroke-linecap: round"/>
    </g>
    <g id="text_24">
     <!-- nonsense -->
     <g style="fill: #262626" transform="translate(322.914688 90.494188) scale(0.11 -0.11)">
      <use xlink:href="#ArialMT-6e"/>
      <use xlink:href="#ArialMT-6f" transform="translate(55.615234 0)"/>
      <use xlink:href="#ArialMT-6e" transform="translate(111.230469 0)"/>
      <use xlink:href="#ArialMT-73" transform="translate(166.845703 0)"/>
      <use xlink:href="#ArialMT-65" transform="translate(216.845703 0)"/>
      <use xlink:href="#ArialMT-6e" transform="translate(272.460938 0)"/>
      <use xlink:href="#ArialMT-73" transform="translate(328.076172 0)"/>
      <use xlink:href="#ArialMT-65" transform="translate(378.076172 0)"/>
     </g>
    </g>
    <g id="line2d_11">
     <path d="M 292.114688 102.204031 
L 303.114688 102.204031 
L 314.114688 102.204031 
" style="fill: none; stroke: #c44e52; stroke-width: 1.5; stroke-linecap: round"/>
    </g>
    <g id="text_25">
     <!-- deletion -->
     <g style="fill: #262626" transform="translate(322.914688 106.054031) scale(0.11 -0.11)">
      <defs>
       <path id="ArialMT-6c" d="M 409 0 
L 409 4581 
L 972 4581 
L 972 0 
L 409 0 
z
" transform="scale(0.015625)"/>
      </defs>
      <use xlink:href="#ArialMT-64"/>
      <use xlink:href="#ArialMT-65" transform="translate(55.615234 0)"/>
      <use xlink:href="#ArialMT-6c" transform="translate(111.230469 0)"/>
      <use xlink:href="#ArialMT-65" transform="translate(133.447266 0)"/>
      <use xlink:href="#ArialMT-74" transform="translate(189.0625 0)"/>
      <use xlink:href="#ArialMT-69" transform="translate(216.845703 0)"/>
      <use xlink:href="#ArialMT-6f" transform="translate(239.0625 0)"/>
      <use xlink:href="#ArialMT-6e" transform="translate(294.677734 0)"/>
     </g>
    </g>
   </g>
  </g>
 </g>
 <defs>
  <clipPath id="p4286158626">
   <rect x="57.6" y="41.472" width="357.12" height="266.112"/>
  </clipPath>
 </defs>
</svg>
