<?xml version="1.0" encoding="utf-8" standalone="no"?>
<!DOCTYPE svg PUBLIC "-//W3C//DTD SVG 1.1//EN"
  "http://www.w3.org/Graphics/SVG/1.1/DTD/svg11.dtd">
<svg xmlns:xlink="http://www.w3.org/1999/xlink" width="460.8pt" height="345.6pt" viewBox="0 0 460.8 345.6" xmlns="http://www.w3.org/2000/svg" version="1.1">
 <metadata>
  <rdf:RDF xmlns:dc="http://purl.org/dc/elements/1.1/" xmlns:cc="http://creativecommons.org/ns#" xmlns:rdf="http://www.w3.org/1999/02/22-rdf-syntax-ns#">
   <cc:Work>
    <dc:type rdf:resource="http://purl.org/dc/dcmitype/StillImage"/>
    <dc:date>2026-04-01T17:01:25.000347</dc:date>
    <dc:format>image/svg+xml</dc:format>
    <dc:creator>
     <cc:Agent>
      <dc:title>Matplotlib v3.10.8, https://matplotlib.org/</dc:title>
     </cc:Agent>
    </dc:creator>
   </cc:Work>
  </rdf:RDF>
 </metadata>
 <defs>
  <style type="text/css">*{stroke-linejoin: round; stroke-linecap: butt}</style>
 </defs>
 <g id="figure_1">
  <g id="patch_1">
   <path d="M 0 345.6 
L 460.8 345.6 
L 460.8 0 
L 0 0 
z
" style="fill: #ffffff"/>
  </g>
  <g id="axes_1">
   <g id="patch_2">
    <path d="M 57.6 307.584 
L 414.72 307.584 
L 414.72 41.472 
L 57.6 41.472 
z
" style="fill: #ffffff"/>
   </g>
   <g id="matplotlib.axis_1">
    <g id="xtick_1">
     <g id="text_1">
      <!-- 0.00 -->
      <g style="fill: #262626" transform="translate(46.896484 324.957594) scale(0.11 -0.11)">
       <defs>
        <path id="ArialMT-30" d="M 266 2259 
Q 266 3072 433 3567 
Q 600 4063 929 4331 
Q 1259 4600 1759 4600 
Q 2128 4600 2406 4451 
Q 2684 4303 2865 4023 
Q 3047 3744 3150 3342 
Q 3253 2941 3253 2259 
Q 3253 1453 3087 958 
Q 2922 463 2592 192 
Q 2263 -78 1759 -78 
Q 1097 -78 719 397 
Q 266 969 266 2259 
z
M 844 2259 
Q 844 1131 1108 757 
Q 1372 384 1759 384 
Q 2147 384 2411 759 
Q 2675 1134 2675 2259 
Q 2675 3391 2411 3762 
Q 2147 4134 1753 4134 
Q 1366 4134 1134 3806 
Q 844 3388 844 2259 
z
" transform="scale(0.015625)"/>
        <path id="ArialMT-2e" d="M 581 0 
L 581 641 
L 1222 641 
L 1222 0 
L 581 0 
z
" transform="scale(0.015625)"/>
       </defs>
       <use xlink:href="#ArialMT-30"/>
       <use xlink:href="#ArialMT-2e" transform="translate(55.615234 0)"/>
       <use xlink:href="#ArialMT-30" transform="translate(83.398438 0)"/>
       <use xlink:href="#ArialMT-30" transform="translate(139.013672 0)"/>
      </g>
     </g>
    </g>
    <g id="xtick_2">
     <g id="text_2">
      <!-- 0.25 -->
      <g style="fill: #262626" transform="translate(91.536484 324.957594) scale(0.11 -0.11)">
       <defs>
        <path id="ArialMT-32" d="M 3222 541 
L 3222 0 
L 194 0 
Q 188 203 259 391 
Q 375 700 629 1000 
Q 884 1300 1366 1694 
Q 2113 2306 2375 2664 
Q 2638 3022 2638 3341 
Q 2638 3675 2398 3904 
Q 2159 4134 1775 4134 
Q 1369 4134 1125 3890 
Q 881 3647 878 3216 
L 300 3275 
Q 359 3922 746 4261 
Q 1134 4600 1788 4600 
Q 2447 4600 2831 4234 
Q 3216 3869 3216 3328 
Q 3216 3053 3103 2787 
Q 2991 2522 2730 2228 
Q 2469 1934 1863 1422 
Q 1356 997 1212 845 
Q 1069 694 975 541 
L 3222 541 
z
" transform="scale(0.015625)"/>
        <path id="ArialMT-35" d="M 266 1200 
L 856 1250 
Q 922 819 1161 601 
Q 1400 384 1738 384 
Q 2144 384 2425 690 
Q 2706 997 2706 1503 
Q 2706 1984 2436 2262 
Q 2166 2541 1728 2541 
Q 1456 2541 1237 2417 
Q 1019 2294 894 2097 
L 366 2166 
L 809 4519 
L 3088 4519 
L 3088 3981 
L 1259 3981 
L 1013 2750 
Q 1425 3038 1878 3038 
Q 2478 3038 2890 2622 
Q 3303 2206 3303 1553 
Q 3303 931 2941 478 
Q 2500 -78 1738 -78 
Q 1113 -78 717 272 
Q 322 622 266 1200 
z
" transform="scale(0.015625)"/>
       </defs>
       <use xlink:href="#ArialMT-30"/>
       <use xlink:href="#ArialMT-2e" transform="translate(55.615234 0)"/>
       <use xlink:href="#ArialMT-32" transform="translate(83.398438 0)"/>
       <use xlink:href="#ArialMT-35" transform="translate(139.013672 0)"/>
      </g>
     </g>
    </g>
    <g id="xtick_3">
     <g id="text_3">
      <!-- 0.50 -->
      <g style="fill: #262626" transform="translate(136.176484 324.957594) scale(0.11 -0.11)">
       <use xlink:href="#ArialMT-30"/>
       <use xlink:href="#ArialMT-2e" transform="translate(55.615234 0)"/>
       <use xlink:href="#ArialMT-35" transform="translate(83.398438 0)"/>
       <use xlink:href="#ArialMT-30" transform="translate(139.013672 0)"/>
      </g>
     </g>
    </g>
    <g id="xtick_4">
     <g id="text_4">
      <!-- 0.75 -->
      <g style="fill: #262626" transform="translate(180.816484 324.957594) scale(0.11 -0.11)">
       <defs>
        <path id="ArialMT-37" d="M 303 3981 
L 303 4522 
L 3269 4522 
L 3269 4084 
Q 2831 3619 2401 2847 
Q 1972 2075 1738 1259 
Q 1569 684 1522 0 
L 944 0 
Q 953 541 1156 1306 
Q 1359 2072 1739 2783 
Q 2119 3494 2547 3981 
L 303 3981 
z
" transform="scale(0.015625)"/>
       </defs>
       <use xlink:href="#ArialMT-30"/>
       <use xlink:href="#ArialMT-2e" transform="translate(55.615234 0)"/>
       <use xlink:href="#ArialMT-37" transform="translate(83.398438 0)"/>
       <use xlink:href="#ArialMT-35" transform="translate(139.013672 0)"/>
      </g>
     </g>
    </g>
    <g id="xtick_5">
     <g id="text_5">
      <!-- 1.00 -->
      <g style="fill: #262626" transform="translate(225.456484 324.957594) scale(0.11 -0.11)">
       <defs>
        <path id="ArialMT-31" d="M 2384 0 
L 1822 0 
L 1822 3584 
Q 1619 3391 1289 3197 
Q 959 3003 697 2906 
L 697 3450 
Q 1169 3672 1522 3987 
Q 1875 4303 2022 4600 
L 2384 4600 
L 2384 0 
z
" transform="scale(0.015625)"/>
       </defs>
       <use xlink:href="#ArialMT-31"/>
       <use xlink:href="#ArialMT-2e" transform="translate(55.615234 0)"/>
       <use xlink:href="#ArialMT-30" transform="translate(83.398438 0)"/>
       <use xlink:href="#ArialMT-30" transform="translate(139.013672 0)"/>
      </g>
     </g>
    </g>
    <g id="xtick_6">
     <g id="text_6">
      <!-- 1.25 -->
      <g style="fill: #262626" transform="translate(270.096484 324.957594) scale(0.11 -0.11)">
       <use xlink:href="#ArialMT-31"/>
       <use xlink:href="#ArialMT-2e" transform="translate(55.615234 0)"/>
       <use xlink:href="#ArialMT-32" transform="translate(83.398438 0)"/>
       <use xlink:href="#ArialMT-35" transform="translate(139.013672 0)"/>
      </g>
     </g>
    </g>
    <g id="xtick_7">
     <g id="text_7">
      <!-- 1.50 -->
      <g style="fill: #262626" transform="translate(314.736484 324.957594) scale(0.11 -0.11)">
       <use xlink:href="#ArialMT-31"/>
       <use xlink:href="#ArialMT-2e" transform="translate(55.615234 0)"/>
       <use xlink:href="#ArialMT-35" transform="translate(83.398438 0)"/>
       <use xlink:href="#ArialMT-30" transform="translate(139.013672 0)"/>
      </g>
     </g>
    </g>
    <g id="xtick_8">
     <g id="text_8">
      <!-- 1.75 -->
      <g style="fill: #262626" transform="translate(359.376484 324.957594) scale(0.11 -0.11)">
       <use xlink:href="#ArialMT-31"/>
       <use xlink:href="#ArialMT-2e" transform="translate(55.615234 0)"/>
       <use xlink:href="#ArialMT-37" transform="translate(83.398438 0)"/>
       <use xlink:href="#ArialMT-35" transform="translate(139.013672 0)"/>
      </g>
     </g>
    </g>
    <g id="xtick_9">
     <g id="text_9">
      <!-- 2.00 -->
      <g style="fill: #262626" transform="translate(404.016484 324.957594) scale(0.11 -0.11)">
       <use xlink:href="#ArialMT-32"/>
       <use xlink:href="#ArialMT-2e" transform="translate(55.615234 0)"/>
       <use xlink:href="#ArialMT-30" transform="translate(83.398438 0)"/>
       <use xlink:href="#ArialMT-30" transform="translate(139.013672 0)"/>
      </g>
     </g>
    </g>
    <g id="text_10">
     <!-- standard-adjusted score -->
     <g style="fill: #262626" transform="translate(171.794062 339.733219) scale(0.12 -0.12)">
      <defs>
       <path id="ArialMT-73" d="M 197 991 
L 753 1078 
Q 800 744 1014 566 
Q 1228 388 1613 388 
Q 2000 388 2187 545 
Q 2375 703 2375 916 
Q 2375 1106 2209 1216 
Q 2094 1291 1634 1406 
Q 1016 1563 777 1677 
Q 538 1791 414 1992 
Q 291 2194 291 2438 
Q 291 2659 392 2848 
Q 494 3038 669 3163 
Q 800 3259 1026 3326 
Q 1253 3394 1513 3394 
Q 1903 3394 2198 3281 
Q 2494 3169 2634 2976 
Q 2775 2784 2828 2463 
L 2278 2388 
Q 2241 2644 2061 2787 
Q 1881 2931 1553 2931 
Q 1166 2931 1000 2803 
Q 834 2675 834 2503 
Q 834 2394 903 2306 
Q 972 2216 1119 2156 
Q 1203 2125 1616 2013 
Q 2213 1853 2448 1751 
Q 2684 1650 2818 1456 
Q 2953 1263 2953 975 
Q 2953 694 2789 445 
Q 2625 197 2315 61 
Q 2006 -75 1616 -75 
Q 969 -75 630 194 
Q 291 463 197 991 
z
" transform="scale(0.015625)"/>
       <path id="ArialMT-74" d="M 1650 503 
L 1731 6 
Q 1494 -44 1306 -44 
Q 1000 -44 831 53 
Q 663 150 594 308 
Q 525 466 525 972 
L 525 2881 
L 113 2881 
L 113 3319 
L 525 3319 
L 525 4141 
L 1084 4478 
L 1084 3319 
L 1650 3319 
L 1650 2881 
L 1084 2881 
L 1084 941 
Q 1084 700 1114 631 
Q 1144 563 1211 522 
Q 1278 481 1403 481 
Q 1497 481 1650 503 
z
" transform="scale(0.015625)"/>
       <path id="ArialMT-61" d="M 2588 409 
Q 2275 144 1986 34 
Q 1697 -75 1366 -75 
Q 819 -75 525 192 
Q 231 459 231 875 
Q 231 1119 342 1320 
Q 453 1522 633 1644 
Q 813 1766 1038 1828 
Q 1203 1872 1538 1913 
Q 2219 1994 2541 2106 
Q 2544 2222 2544 2253 
Q 2544 2597 2384 2738 
Q 2169 2928 1744 2928 
Q 1347 2928 1158 2789 
Q 969 2650 878 2297 
L 328 2372 
Q 403 2725 575 2942 
Q 747 3159 1072 3276 
Q 1397 3394 1825 3394 
Q 2250 3394 2515 3294 
Q 2781 3194 2906 3042 
Q 3031 2891 3081 2659 
Q 3109 2516 3109 2141 
L 3109 1391 
Q 3109 606 3145 398 
Q 3181 191 3288 0 
L 2700 0 
Q 2613 175 2588 409 
z
M 2541 1666 
Q 2234 1541 1622 1453 
Q 1275 1403 1131 1340 
Q 988 1278 909 1158 
Q 831 1038 831 891 
Q 831 666 1001 516 
Q 1172 366 1500 366 
Q 1825 366 2078 508 
Q 2331 650 2450 897 
Q 2541 1088 2541 1459 
L 2541 1666 
z
" transform="scale(0.015625)"/>
       <path id="ArialMT-6e" d="M 422 0 
L 422 3319 
L 928 3319 
L 928 2847 
Q 1294 3394 1984 3394 
Q 2284 3394 2536 3286 
Q 2788 3178 2913 3003 
Q 3038 2828 3088 2588 
Q 3119 2431 3119 2041 
L 3119 0 
L 2556 0 
L 2556 2019 
Q 2556 2363 2490 2533 
Q 2425 2703 2258 2804 
Q 2091 2906 1866 2906 
Q 1506 2906 1245 2678 
Q 984 2450 984 1813 
L 984 0 
L 422 0 
z
" transform="scale(0.015625)"/>
       <path id="ArialMT-64" d="M 2575 0 
L 2575 419 
Q 2259 -75 1647 -75 
Q 1250 -75 917 144 
Q 584 363 401 755 
Q 219 1147 219 1656 
Q 219 2153 384 2558 
Q 550 2963 881 3178 
Q 1213 3394 1622 3394 
Q 1922 3394 2156 3267 
Q 2391 3141 2538 2938 
L 2538 4581 
L 3097 4581 
L 3097 0 
L 2575 0 
z
M 797 1656 
Q 797 1019 1065 703 
Q 1334 388 1700 388 
Q 2069 388 2326 689 
Q 2584 991 2584 1609 
Q 2584 2291 2321 2609 
Q 2059 2928 1675 2928 
Q 1300 2928 1048 2622 
Q 797 2316 797 1656 
z
" transform="scale(0.015625)"/>
       <path id="ArialMT-72" d="M 416 0 
L 416 3319 
L 922 3319 
L 922 2816 
Q 1116 3169 1280 3281 
Q 1444 3394 1641 3394 
Q 1925 3394 2219 3213 
L 2025 2691 
Q 1819 2813 1613 2813 
Q 1428 2813 1281 2702 
Q 1134 2591 1072 2394 
Q 978 2094 978 1738 
L 978 0 
L 416 0 
z
" transform="scale(0.015625)"/>
       <path id="ArialMT-2d" d="M 203 1375 
L 203 1941 
L 1931 1941 
L 1931 1375 
L 203 1375 
z
" transform="scale(0.015625)"/>
       <path id="ArialMT-6a" d="M 419 3928 
L 419 4581 
L 981 4581 
L 981 3928 
L 419 3928 
z
M -294 -1288 
L -188 -809 
Q -19 -853 78 -853 
Q 250 -853 334 -739 
Q 419 -625 419 -169 
L 419 3319 
L 981 3319 
L 981 -181 
Q 981 -794 822 -1034 
Q 619 -1347 147 -1347 
Q -81 -1347 -294 -1288 
z
" transform="scale(0.015625)"/>
       <path id="ArialMT-75" d="M 2597 0 
L 2597 488 
Q 2209 -75 1544 -75 
Q 1250 -75 995 37 
Q 741 150 617 320 
Q 494 491 444 738 
Q 409 903 409 1263 
L 409 3319 
L 972 3319 
L 972 1478 
Q 972 1038 1006 884 
Q 1059 663 1231 536 
Q 1403 409 1656 409 
Q 1909 409 2131 539 
Q 2353 669 2445 892 
Q 2538 1116 2538 1541 
L 2538 3319 
L 3100 3319 
L 3100 0 
L 2597 0 
z
" transform="scale(0.015625)"/>
       <path id="ArialMT-65" d="M 2694 1069 
L 3275 997 
Q 3138 488 2766 206 
Q 2394 -75 1816 -75 
Q 1088 -75 661 373 
Q 234 822 234 1631 
Q 234 2469 665 2931 
Q 1097 3394 1784 3394 
Q 2450 3394 2872 2941 
Q 3294 2488 3294 1666 
Q 3294 1616 3291 1516 
L 816 1516 
Q 847 969 1125 678 
Q 1403 388 1819 388 
Q 2128 388 2347 550 
Q 2566 713 2694 1069 
z
M 847 1978 
L 2700 1978 
Q 2663 2397 2488 2606 
Q 2219 2931 1791 2931 
Q 1403 2931 1139 2672 
Q 875 2413 847 1978 
z
" transform="scale(0.015625)"/>
       <path id="ArialMT-20" transform="scale(0.015625)"/>
       <path id="ArialMT-63" d="M 2588 1216 
L 3141 1144 
Q 3050 572 2676 248 
Q 2303 -75 1759 -75 
Q 1078 -75 664 370 
Q 250 816 250 1647 
Q 250 2184 428 2587 
Q 606 2991 970 3192 
Q 1334 3394 1763 3394 
Q 2303 3394 2647 3120 
Q 2991 2847 3088 2344 
L 2541 2259 
Q 2463 2594 2264 2762 
Q 2066 2931 1784 2931 
Q 1359 2931 1093 2626 
Q 828 2322 828 1663 
Q 828 994 1084 691 
Q 1341 388 1753 388 
Q 2084 388 2306 591 
Q 2528 794 2588 1216 
z
" transform="scale(0.015625)"/>
       <path id="ArialMT-6f" d="M 213 1659 
Q 213 2581 725 3025 
Q 1153 3394 1769 3394 
Q 2453 3394 2887 2945 
Q 3322 2497 3322 1706 
Q 3322 1066 3130 698 
Q 2938 331 2570 128 
Q 2203 -75 1769 -75 
Q 1072 -75 642 372 
Q 213 819 213 1659 
z
M 791 1659 
Q 791 1022 1069 705 
Q 1347 388 1769 388 
Q 2188 388 2466 706 
Q 2744 1025 2744 1678 
Q 2744 2294 2464 2611 
Q 2184 2928 1769 2928 
Q 1347 2928 1069 2612 
Q 791 2297 791 1659 
z
" transform="scale(0.015625)"/>
      </defs>
      <use xlink:href="#ArialMT-73"/>
      <use xlink:href="#ArialMT-74" transform="translate(50 0)"/>
      <use xlink:href="#ArialMT-61" transform="translate(77.783203 0)"/>
      <use xlink:href="#ArialMT-6e" transform="translate(133.398438 0)"/>
      <use xlink:href="#ArialMT-64" transform="translate(189.013672 0)"/>
      <use xlink:href="#ArialMT-61" transform="translate(244.628906 0)"/>
      <use xlink:href="#ArialMT-72" transform="translate(300.244141 0)"/>
      <use xlink:href="#ArialMT-64" transform="translate(333.544922 0)"/>
      <use xlink:href="#ArialMT-2d" transform="translate(389.160156 0)"/>
      <use xlink:href="#ArialMT-61" transform="translate(422.460938 0)"/>
      <use xlink:href="#ArialMT-64" transform="translate(478.076172 0)"/>
      <use xlink:href="#ArialMT-6a" transform="translate(533.691406 0)"/>
      <use xlink:href="#ArialMT-75" transform="translate(555.908203 0)"/>
      <use xlink:href="#ArialMT-73" transform="translate(611.523438 0)"/>
      <use xlink:href="#ArialMT-74" transform="translate(661.523438 0)"/>
      <use xlink:href="#ArialMT-65" transform="translate(689.306641 0)"/>
      <use xlink:href="#ArialMT-64" transform="translate(744.921875 0)"/>
      <use xlink:href="#ArialMT-20" transform="translate(800.537109 0)"/>
      <use xlink:href="#ArialMT-73" transform="translate(828.320312 0)"/>
      <use xlink:href="#ArialMT-63" transform="translate(878.320312 0)"/>
      <use xlink:href="#ArialMT-6f" transform="translate(928.320312 0)"/>
      <use xlink:href="#ArialMT-72" transform="translate(983.935547 0)"/>
      <use xlink:href="#ArialMT-65" transform="translate(1017.236328 0)"/>
     </g>
    </g>
   </g>
   <g id="matplotlib.axis_2">
    <g id="ytick_1">
     <g id="text_11">
      <!-- 0.0 -->
      <g style="fill: #262626" transform="translate(32.81 311.520797) scale(0.11 -0.11)">
       <use xlink:href="#ArialMT-30"/>
       <use xlink:href="#ArialMT-2e" transform="translate(55.615234 0)"/>
       <use xlink:href="#ArialMT-30" transform="translate(83.398438 0)"/>
      </g>
     </g>
    </g>
    <g id="ytick_2">
     <g id="text_12">
      <!-- 0.5 -->
      <g style="fill: #262626" transform="translate(32.81 280.126223) scale(0.11 -0.11)">
       <use xlink:href="#ArialMT-30"/>
       <use xlink:href="#ArialMT-2e" transform="translate(55.615234 0)"/>
       <use xlink:href="#ArialMT-35" transform="translate(83.398438 0)"/>
      </g>
     </g>
    </g>
    <g id="ytick_3">
     <g id="text_13">
      <!-- 1.0 -->
      <g style="fill: #262626" transform="translate(32.81 248.731649) scale(0.11 -0.11)">
       <use xlink:href="#ArialMT-31"/>
       <use xlink:href="#ArialMT-2e" transform="translate(55.615234 0)"/>
       <use xlink:href="#ArialMT-30" transform="translate(83.398438 0)"/>
      </g>
     </g>
    </g>
    <g id="ytick_4">
     <g id="text_14">
      <!-- 1.5 -->
      <g style="fill: #262626" transform="translate(32.81 217.337075) scale(0.11 -0.11)">
       <use xlink:href="#ArialMT-31"/>
       <use xlink:href="#ArialMT-2e" transform="translate(55.615234 0)"/>
       <use xlink:href="#ArialMT-35" transform="translate(83.398438 0)"/>
      </g>
     </g>
    </g>
    <g id="ytick_5">
     <g id="text_15">
      <!-- 2.0 -->
      <g style="fill: #262626" transform="translate(32.81 185.9425) scale(0.11 -0.11)">
       <use xlink:href="#ArialMT-32"/>
       <use xlink:href="#ArialMT-2e" transform="translate(55.615234 0)"/>
       <use xlink:href="#ArialMT-30" transform="translate(83.398438 0)"/>
      </g>
     </g>
    </g>
    <g id="ytick_6">
     <g id="text_16">
      <!-- 2.5 -->
      <g style="fill: #262626" transform="translate(32.81 154.547926) scale(0.11 -0.11)">
       <use xlink:href="#ArialMT-32"/>
       <use xlink:href="#ArialMT-2e" transform="translate(55.615234 0)"/>
       <use xlink:href="#ArialMT-35" transform="translate(83.398438 0)"/>
      </g>
     </g>
    </g>
    <g id="ytick_7">
     <g id="text_17">
      <!-- 3.0 -->
      <g style="fill: #262626" transform="translate(32.81 123.153352) scale(0.11 -0.11)">
       <defs>
        <path id="ArialMT-33" d="M 269 1209 
L 831 1284 
Q 928 806 1161 595 
Q 1394 384 1728 384 
Q 2125 384 2398 659 
Q 2672 934 2672 1341 
Q 2672 1728 2419 1979 
Q 2166 2231 1775 2231 
Q 1616 2231 1378 2169 
L 1441 2663 
Q 1497 2656 1531 2656 
Q 1891 2656 2178 2843 
Q 2466 3031 2466 3422 
Q 2466 3731 2256 3934 
Q 2047 4138 1716 4138 
Q 1388 4138 1169 3931 
Q 950 3725 888 3313 
L 325 3413 
Q 428 3978 793 4289 
Q 1159 4600 1703 4600 
Q 2078 4600 2393 4439 
Q 2709 4278 2876 4000 
Q 3044 3722 3044 3409 
Q 3044 3113 2884 2869 
Q 2725 2625 2413 2481 
Q 2819 2388 3044 2092 
Q 3269 1797 3269 1353 
Q 3269 753 2831 336 
Q 2394 -81 1725 -81 
Q 1122 -81 723 278 
Q 325 638 269 1209 
z
" transform="scale(0.015625)"/>
       </defs>
       <use xlink:href="#ArialMT-33"/>
       <use xlink:href="#ArialMT-2e" transform="translate(55.615234 0)"/>
       <use xlink:href="#ArialMT-30" transform="translate(83.398438 0)"/>
      </g>
     </g>
    </g>
    <g id="ytick_8">
     <g id="text_18">
      <!-- 3.5 -->
      <g style="fill: #262626" transform="translate(32.81 91.758778) scale(0.11 -0.11)">
       <use xlink:href="#ArialMT-33"/>
       <use xlink:href="#ArialMT-2e" transform="translate(55.615234 0)"/>
       <use xlink:href="#ArialMT-35" transform="translate(83.398438 0)"/>
      </g>
     </g>
    </g>
    <g id="ytick_9">
     <g id="text_19">
      <!-- 4.0 -->
      <g style="fill: #262626" transform="translate(32.81 60.364204) scale(0.11 -0.11)">
       <defs>
        <path id="ArialMT-34" d="M 2069 0 
L 2069 1097 
L 81 1097 
L 81 1613 
L 2172 4581 
L 2631 4581 
L 2631 1613 
L 3250 1613 
L 3250 1097 
L 2631 1097 
L 2631 0 
L 2069 0 
z
M 2069 1613 
L 2069 3678 
L 634 1613 
L 2069 1613 
z
" transform="scale(0.015625)"/>
       </defs>
       <use xlink:href="#ArialMT-34"/>
       <use xlink:href="#ArialMT-2e" transform="translate(55.615234 0)"/>
       <use xlink:href="#ArialMT-30" transform="translate(83.398438 0)"/>
      </g>
     </g>
    </g>
    <g id="text_20">
     <!-- Density -->
     <g style="fill: #262626" transform="translate(26.284375 194.53425) rotate(-90) scale(0.12 -0.12)">
      <defs>
       <path id="ArialMT-44" d="M 494 0 
L 494 4581 
L 2072 4581 
Q 2606 4581 2888 4516 
Q 3281 4425 3559 4188 
Q 3922 3881 4101 3404 
Q 4281 2928 4281 2316 
Q 4281 1794 4159 1391 
Q 4038 988 3847 723 
Q 3656 459 3429 307 
Q 3203 156 2883 78 
Q 2563 0 2147 0 
L 494 0 
z
M 1100 541 
L 2078 541 
Q 2531 541 2789 625 
Q 3047 709 3200 863 
Q 3416 1078 3536 1442 
Q 3656 1806 3656 2325 
Q 3656 3044 3420 3430 
Q 3184 3816 2847 3947 
Q 2603 4041 2063 4041 
L 1100 4041 
L 1100 541 
z
" transform="scale(0.015625)"/>
       <path id="ArialMT-69" d="M 425 3934 
L 425 4581 
L 988 4581 
L 988 3934 
L 425 3934 
z
M 425 0 
L 425 3319 
L 988 3319 
L 988 0 
L 425 0 
z
" transform="scale(0.015625)"/>
       <path id="ArialMT-79" d="M 397 -1278 
L 334 -750 
Q 519 -800 656 -800 
Q 844 -800 956 -737 
Q 1069 -675 1141 -563 
Q 1194 -478 1313 -144 
Q 1328 -97 1363 -6 
L 103 3319 
L 709 3319 
L 1400 1397 
Q 1534 1031 1641 628 
Q 1738 1016 1872 1384 
L 2581 3319 
L 3144 3319 
L 1881 -56 
Q 1678 -603 1566 -809 
Q 1416 -1088 1222 -1217 
Q 1028 -1347 759 -1347 
Q 597 -1347 397 -1278 
z
" transform="scale(0.015625)"/>
      </defs>
      <use xlink:href="#ArialMT-44"/>
      <use xlink:href="#ArialMT-65" transform="translate(72.216797 0)"/>
      <use xlink:href="#ArialMT-6e" transform="translate(127.832031 0)"/>
      <use xlink:href="#ArialMT-73" transform="translate(183.447266 0)"/>
      <use xlink:href="#ArialMT-69" transform="translate(233.447266 0)"/>
      <use xlink:href="#ArialMT-74" transform="translate(255.664062 0)"/>
      <use xlink:href="#ArialMT-79" transform="translate(283.447266 0)"/>
     </g>
    </g>
   </g>
   <g id="line2d_1">
    <path d="M 40.407882 307.526102 
L 43.166337 307.382587 
L 45.005307 307.160115 
L 46.844277 306.750229 
L 48.683247 306.048306 
L 50.522217 304.930042 
L 51.441702 304.175227 
L 52.361187 303.271469 
L 54.200157 300.980367 
L 56.039126 298.032167 
L 57.878096 294.497237 
L 60.636551 288.481245 
L 64.314491 280.314378 
L 71.670371 264.620289 
L 73.509341 259.74558 
L 75.348311 254.206705 
L 78.106765 244.842031 
L 80.86522 234.498122 
L 82.70419 226.950104 
L 84.54316 218.543797 
L 86.38213 208.88311 
L 88.2211 197.635899 
L 90.06007 184.667262 
L 91.89904 170.097299 
L 94.657495 146.030453 
L 100.174404 96.455936 
L 102.013374 81.827875 
L 103.852344 69.476674 
L 104.771829 64.439106 
L 105.691314 60.304491 
L 106.610799 57.165687 
L 107.530284 55.09593 
L 108.449769 54.143987 
L 109.369254 54.331221 
L 110.288739 55.650942 
L 111.208224 58.0701 
L 112.127709 61.532947 
L 113.047194 65.966029 
L 113.966679 71.283651 
L 115.805648 84.198108 
L 117.644618 99.510498 
L 120.403073 125.296755 
L 125.000498 169.301891 
L 126.839468 185.157595 
L 128.678438 199.29325 
L 130.517408 211.584478 
L 132.356378 222.139949 
L 134.195348 231.201045 
L 136.034317 239.031258 
L 137.873287 245.838366 
L 139.712257 251.748803 
L 141.551227 256.829521 
L 143.390197 261.135973 
L 145.229167 264.757821 
L 147.068137 267.83827 
L 149.826592 271.842004 
L 155.343501 279.502277 
L 159.021441 285.058966 
L 165.457836 295.079393 
L 168.216291 298.84807 
L 170.055261 300.998079 
L 171.894231 302.810253 
L 173.733201 304.272373 
L 175.57217 305.396141 
L 177.41114 306.21398 
L 179.25011 306.773677 
L 181.08908 307.130499 
L 183.847535 307.39994 
L 187.525475 307.452362 
L 191.203415 307.23795 
L 193.96187 306.879427 
L 203.156719 305.413608 
L 204.995689 305.440437 
L 207.754144 305.770557 
L 216.029508 307.207305 
L 219.707448 307.47207 
L 223.385388 307.559776 
L 223.385388 307.559776 
" clip-path="url(#peca4237fd2)" style="fill: none; stroke: #4c72b0; stroke-width: 1.5; stroke-linecap: round"/>
   </g>
   <g id="line2d_2">
    <path d="M 6.931875 307.575322 
L 24.958225 307.495773 
L 36.975792 307.259486 
L 42.984575 307.004569 
L 48.993358 306.596636 
L 55.002142 305.97694 
L 61.010925 305.083056 
L 67.019708 303.858313 
L 73.028492 302.263612 
L 79.037275 300.28907 
L 85.046058 297.962101 
L 91.054842 295.348892 
L 115.089975 284.175473 
L 121.098758 281.722977 
L 127.107541 279.533574 
L 133.116325 277.614264 
L 139.125108 275.944311 
L 145.133891 274.482025 
L 157.151458 271.943662 
L 169.169024 269.44563 
L 175.177808 268.030601 
L 181.186591 266.430802 
L 187.195374 264.626852 
L 199.212941 260.561428 
L 205.221724 258.508698 
L 211.230508 256.656074 
L 217.239291 255.190812 
L 223.248074 254.28874 
L 229.256858 254.085468 
L 235.265641 254.653939 
L 241.274424 255.993234 
L 247.283207 258.030656 
L 253.291991 260.635807 
L 259.300774 263.642733 
L 277.327124 273.381844 
L 283.335907 276.418361 
L 289.344691 279.211949 
L 295.353474 281.730345 
L 301.362257 283.966218 
L 307.37104 285.929508 
L 313.379824 287.64091 
L 319.388607 289.126989 
L 325.39739 290.416723 
L 331.406174 291.538939 
L 337.414957 292.5203 
L 349.432524 294.147723 
L 361.45009 295.428921 
L 373.467657 296.440571 
L 385.485223 297.247157 
L 403.511573 298.225003 
L 433.55549 299.581062 
L 461.8 300.605971 
L 461.8 300.605971 
" clip-path="url(#peca4237fd2)" style="fill: none; stroke: #dd8452; stroke-width: 1.5; stroke-linecap: round"/>
   </g>
   <g id="line2d_3">
    <path d="M 36.938072 307.467453 
L 43.310639 307.234487 
L 46.496923 307.003717 
L 49.683206 306.647138 
L 52.86949 306.112966 
L 56.055773 305.337339 
L 59.242057 304.246022 
L 62.42834 302.758631 
L 65.614624 300.795753 
L 68.800907 298.288909 
L 71.987191 295.192616 
L 75.173474 291.497124 
L 78.359758 287.239722 
L 81.546041 282.51222 
L 94.291175 262.507654 
L 97.477459 258.38583 
L 100.663742 255.053588 
L 103.850026 252.650039 
L 107.036309 251.238524 
L 110.222593 250.799601 
L 113.408876 251.23368 
L 116.59516 252.372306 
L 119.781443 253.995845 
L 126.15401 257.690459 
L 129.340294 259.256222 
L 132.526577 260.331511 
L 135.712861 260.733854 
L 138.899144 260.325322 
L 142.085428 259.015146 
L 145.271711 256.759284 
L 148.457994 253.558009 
L 151.644278 249.45261 
L 154.830561 244.52217 
L 158.016845 238.881107 
L 161.203128 232.677767 
L 173.948262 206.351653 
L 177.134546 200.669976 
L 180.320829 195.919916 
L 183.507113 192.379397 
L 186.693396 190.290232 
L 189.87968 189.835777 
L 193.065963 191.120948 
L 196.252247 194.157877 
L 199.43853 198.859925 
L 202.624814 205.045598 
L 205.811097 212.452396 
L 208.997381 220.759011 
L 221.742515 256.071728 
L 224.928798 263.940246 
L 228.115082 271.033221 
L 231.301365 277.274545 
L 234.487649 282.649822 
L 237.673932 287.194226 
L 240.860216 290.97815 
L 244.046499 294.092787 
L 247.232783 296.637346 
L 250.419066 298.708989 
L 253.60535 300.395944 
L 256.791633 301.773705 
L 259.977917 302.903828 
L 263.1642 303.834642 
L 266.350484 304.603118 
L 272.723051 305.75841 
L 279.095618 306.526279 
L 285.468185 307.012011 
L 291.840752 307.298369 
L 301.399602 307.498755 
L 320.517303 307.580139 
L 371.497839 307.52209 
L 384.242973 307.340258 
L 396.988107 306.959565 
L 422.478375 306.11756 
L 435.223509 305.967639 
L 451.154927 306.036171 
L 461.8 306.146684 
L 461.8 306.146684 
" clip-path="url(#peca4237fd2)" style="fill: none; stroke: #55a868; stroke-width: 1.5; stroke-linecap: round"/>
   </g>
   <g id="line2d_4">
    <path d="M -1 305.802097 
L 10.685632 304.789395 
L 16.851576 304.09109 
L 23.017521 303.265013 
L 29.183465 302.300274 
L 35.349409 301.188096 
L 41.515353 299.922561 
L 47.681297 298.501338 
L 53.847242 296.926315 
L 60.013186 295.20409 
L 66.17913 293.346266 
L 78.511018 289.295278 
L 97.008851 282.762814 
L 109.340739 278.468053 
L 115.506683 276.437343 
L 121.672627 274.524954 
L 127.838572 272.757299 
L 134.004516 271.156609 
L 140.17046 269.740464 
L 146.336404 268.521623 
L 152.502348 267.508169 
L 158.668293 266.703914 
L 164.834237 266.109009 
L 171.000181 265.720675 
L 177.166125 265.533955 
L 183.332069 265.542423 
L 189.498013 265.738755 
L 195.663958 266.115123 
L 201.829902 266.663387 
L 207.995846 267.375078 
L 214.16179 268.241219 
L 220.327734 269.252028 
L 226.493678 270.396564 
L 238.825567 273.035372 
L 251.157455 276.037018 
L 269.655288 280.892664 
L 288.15312 285.684591 
L 300.485009 288.600917 
L 312.816897 291.175925 
L 325.148785 293.359701 
L 337.480674 295.145456 
L 349.812562 296.558576 
L 362.14445 297.642762 
L 374.476339 298.447688 
L 386.808227 299.020914 
L 399.140115 299.404675 
L 417.637948 299.706242 
L 442.301725 299.779508 
L 461.8 299.739294 
L 461.8 299.739294 
" clip-path="url(#peca4237fd2)" style="fill: none; stroke: #c44e52; stroke-width: 1.5; stroke-linecap: round"/>
   </g>
   <g id="line2d_5">
    <path d="M 324.726309 307.584 
L 324.726309 41.472 
" clip-path="url(#peca4237fd2)" style="fill: none; stroke-dasharray: 5.55,2.4; stroke-dashoffset: 0; stroke: #808080; stroke-width: 1.5"/>
   </g>
   <g id="line2d_6">
    <path clip-path="url(#peca4237fd2)" style="fill: none; stroke-dasharray: 5.55,2.4; stroke-dashoffset: 0; stroke: #808080; stroke-width: 1.5"/>
   </g>
   <g id="line2d_7">
    <path clip-path="url(#peca4237fd2)" style="fill: none; stroke-dasharray: 5.55,2.4; stroke-dashoffset: 0; stroke: #808080; stroke-width: 1.5"/>
   </g>
   <g id="line2d_8">
    <path clip-path="url(#peca4237fd2)" style="fill: none; stroke-dasharray: 5.55,2.4; stroke-dashoffset: 0; stroke: #808080; stroke-width: 1.5"/>
   </g>
   <g id="line2d_9">
    <path d="M 91.613712 307.584 
L 91.613712 41.472 
" clip-path="url(#peca4237fd2)" style="fill: none; stroke-dasharray: 5.55,2.4; stroke-dashoffset: 0; stroke: #808080; stroke-width: 1.5"/>
   </g>
   <g id="patch_3">
    <path d="M 57.6 307.584 
L 57.6 41.472 
" style="fill: none; stroke: #262626; stroke-width: 1.25; stroke-linejoin: miter; stroke-linecap: square"/>
   </g>
   <g id="patch_4">
    <path d="M 414.72 307.584 
L 414.72 41.472 
" style="fill: none; stroke: #262626; stroke-width: 1.25; stroke-linejoin: miter; stroke-linecap: square"/>
   </g>
   <g id="patch_5">
    <path d="M 57.6 307.584 
L 414.72 307.584 
" style="fill: none; stroke: #262626; stroke-width: 1.25; stroke-linejoin: miter; stroke-linecap: square"/>
   </g>
   <g id="patch_6">
    <path d="M 57.6 41.472 
L 414.72 41.472 
" style="fill: none; stroke: #262626; stroke-width: 1.25; stroke-linejoin: miter; stroke-linecap: square"/>
   </g>
   <g id="text_21">
    <!-- BRAF_cterm activity -->
    <g style="fill: #262626" transform="translate(181.81875 35.472) scale(0.12 -0.12)">
     <defs>
      <path id="ArialMT-42" d="M 469 0 
L 469 4581 
L 2188 4581 
Q 2713 4581 3030 4442 
Q 3347 4303 3526 4014 
Q 3706 3725 3706 3409 
Q 3706 3116 3547 2856 
Q 3388 2597 3066 2438 
Q 3481 2316 3704 2022 
Q 3928 1728 3928 1328 
Q 3928 1006 3792 729 
Q 3656 453 3456 303 
Q 3256 153 2954 76 
Q 2653 0 2216 0 
L 469 0 
z
M 1075 2656 
L 2066 2656 
Q 2469 2656 2644 2709 
Q 2875 2778 2992 2937 
Q 3109 3097 3109 3338 
Q 3109 3566 3000 3739 
Q 2891 3913 2687 3977 
Q 2484 4041 1991 4041 
L 1075 4041 
L 1075 2656 
z
M 1075 541 
L 2216 541 
Q 2509 541 2628 563 
Q 2838 600 2978 687 
Q 3119 775 3209 942 
Q 3300 1109 3300 1328 
Q 3300 1584 3169 1773 
Q 3038 1963 2805 2039 
Q 2572 2116 2134 2116 
L 1075 2116 
L 1075 541 
z
" transform="scale(0.015625)"/>
      <path id="ArialMT-52" d="M 503 0 
L 503 4581 
L 2534 4581 
Q 3147 4581 3465 4457 
Q 3784 4334 3975 4021 
Q 4166 3709 4166 3331 
Q 4166 2844 3850 2509 
Q 3534 2175 2875 2084 
Q 3116 1969 3241 1856 
Q 3506 1613 3744 1247 
L 4541 0 
L 3778 0 
L 3172 953 
Q 2906 1366 2734 1584 
Q 2563 1803 2427 1890 
Q 2291 1978 2150 2013 
Q 2047 2034 1813 2034 
L 1109 2034 
L 1109 0 
L 503 0 
z
M 1109 2559 
L 2413 2559 
Q 2828 2559 3062 2645 
Q 3297 2731 3419 2920 
Q 3541 3109 3541 3331 
Q 3541 3656 3305 3865 
Q 3069 4075 2559 4075 
L 1109 4075 
L 1109 2559 
z
" transform="scale(0.015625)"/>
      <path id="ArialMT-41" d="M -9 0 
L 1750 4581 
L 2403 4581 
L 4278 0 
L 3588 0 
L 3053 1388 
L 1138 1388 
L 634 0 
L -9 0 
z
M 1313 1881 
L 2866 1881 
L 2388 3150 
Q 2169 3728 2063 4100 
Q 1975 3659 1816 3225 
L 1313 1881 
z
" transform="scale(0.015625)"/>
      <path id="ArialMT-46" d="M 525 0 
L 525 4581 
L 3616 4581 
L 3616 4041 
L 1131 4041 
L 1131 2622 
L 3281 2622 
L 3281 2081 
L 1131 2081 
L 1131 0 
L 525 0 
z
" transform="scale(0.015625)"/>
      <path id="ArialMT-5f" d="M -97 -1272 
L -97 -866 
L 3631 -866 
L 3631 -1272 
L -97 -1272 
z
" transform="scale(0.015625)"/>
      <path id="ArialMT-6d" d="M 422 0 
L 422 3319 
L 925 3319 
L 925 2853 
Q 1081 3097 1340 3245 
Q 1600 3394 1931 3394 
Q 2300 3394 2536 3241 
Q 2772 3088 2869 2813 
Q 3263 3394 3894 3394 
Q 4388 3394 4653 3120 
Q 4919 2847 4919 2278 
L 4919 0 
L 4359 0 
L 4359 2091 
Q 4359 2428 4304 2576 
Q 4250 2725 4106 2815 
Q 3963 2906 3769 2906 
Q 3419 2906 3187 2673 
Q 2956 2441 2956 1928 
L 2956 0 
L 2394 0 
L 2394 2156 
Q 2394 2531 2256 2718 
Q 2119 2906 1806 2906 
Q 1569 2906 1367 2781 
Q 1166 2656 1075 2415 
Q 984 2175 984 1722 
L 984 0 
L 422 0 
z
" transform="scale(0.015625)"/>
      <path id="ArialMT-76" d="M 1344 0 
L 81 3319 
L 675 3319 
L 1388 1331 
Q 1503 1009 1600 663 
Q 1675 925 1809 1294 
L 2547 3319 
L 3125 3319 
L 1869 0 
L 1344 0 
z
" transform="scale(0.015625)"/>
     </defs>
     <use xlink:href="#ArialMT-42"/>
     <use xlink:href="#ArialMT-52" transform="translate(66.699219 0)"/>
     <use xlink:href="#ArialMT-41" transform="translate(138.916016 0)"/>
     <use xlink:href="#ArialMT-46" transform="translate(205.615234 0)"/>
     <use xlink:href="#ArialMT-5f" transform="translate(266.699219 0)"/>
     <use xlink:href="#ArialMT-63" transform="translate(322.314453 0)"/>
     <use xlink:href="#ArialMT-74" transform="translate(372.314453 0)"/>
     <use xlink:href="#ArialMT-65" transform="translate(400.097656 0)"/>
     <use xlink:href="#ArialMT-72" transform="translate(455.712891 0)"/>
     <use xlink:href="#ArialMT-6d" transform="translate(489.013672 0)"/>
     <use xlink:href="#ArialMT-20" transform="translate(572.314453 0)"/>
     <use xlink:href="#ArialMT-61" transform="translate(600.097656 0)"/>
     <use xlink:href="#ArialMT-63" transform="translate(655.712891 0)"/>
     <use xlink:href="#ArialMT-74" transform="translate(705.712891 0)"/>
     <use xlink:href="#ArialMT-69" transform="translate(733.496094 0)"/>
     <use xlink:href="#ArialMT-76" transform="translate(755.712891 0)"/>
     <use xlink:href="#ArialMT-69" transform="translate(805.712891 0)"/>
     <use xlink:href="#ArialMT-74" transform="translate(827.929688 0)"/>
     <use xlink:href="#ArialMT-79" transform="translate(855.712891 0)"/>
    </g>
   </g>
   <g id="legend_1">
    <g id="patch_7">
     <path d="M 177.607344 112.640281 
L 294.712656 112.640281 
Q 296.912656 112.640281 296.912656 110.440281 
L 296.912656 49.172 
Q 296.912656 46.972 294.712656 46.972 
L 177.607344 46.972 
Q 175.407344 46.972 175.407344 49.172 
L 175.407344 110.440281 
Q 175.407344 112.640281 177.607344 112.640281 
z
" style="fill: #ffffff; opacity: 0.8; stroke: #cccccc; stroke-linejoin: miter"/>
    </g>
    <g id="line2d_10">
     <path d="M 179.807344 55.395594 
L 190.807344 55.395594 
L 201.807344 55.395594 
" style="fill: none; stroke: #4c72b0; stroke-width: 1.5; stroke-linecap: round"/>
    </g>
    <g id="text_22">
     <!-- synonymous WT -->
     <g style="fill: #262626" transform="translate(210.607344 59.245594) scale(0.11 -0.11)">
      <defs>
       <path id="ArialMT-57" d="M 1294 0 
L 78 4581 
L 700 4581 
L 1397 1578 
Q 1509 1106 1591 641 
Q 1766 1375 1797 1488 
L 2669 4581 
L 3400 4581 
L 4056 2263 
Q 4303 1400 4413 641 
Q 4500 1075 4641 1638 
L 5359 4581 
L 5969 4581 
L 4713 0 
L 4128 0 
L 3163 3491 
Q 3041 3928 3019 4028 
Q 2947 3713 2884 3491 
L 1913 0 
L 1294 0 
z
" transform="scale(0.015625)"/>
       <path id="ArialMT-54" d="M 1659 0 
L 1659 4041 
L 150 4041 
L 150 4581 
L 3781 4581 
L 3781 4041 
L 2266 4041 
L 2266 0 
L 1659 0 
z
" transform="scale(0.015625)"/>
      </defs>
      <use xlink:href="#ArialMT-73"/>
      <use xlink:href="#ArialMT-79" transform="translate(50 0)"/>
      <use xlink:href="#ArialMT-6e" transform="translate(100 0)"/>
      <use xlink:href="#ArialMT-6f" transform="translate(155.615234 0)"/>
      <use xlink:href="#ArialMT-6e" transform="translate(211.230469 0)"/>
      <use xlink:href="#ArialMT-79" transform="translate(266.845703 0)"/>
      <use xlink:href="#ArialMT-6d" transform="translate(316.845703 0)"/>
      <use xlink:href="#ArialMT-6f" transform="translate(400.146484 0)"/>
      <use xlink:href="#ArialMT-75" transform="translate(455.761719 0)"/>
      <use xlink:href="#ArialMT-73" transform="translate(511.376953 0)"/>
      <use xlink:href="#ArialMT-20" transform="translate(561.376953 0)"/>
      <use xlink:href="#ArialMT-57" transform="translate(589.160156 0)"/>
      <use xlink:href="#ArialMT-54" transform="translate(683.544922 0)"/>
     </g>
    </g>
    <g id="line2d_11">
     <path d="M 179.807344 71.084344 
L 190.807344 71.084344 
L 201.807344 71.084344 
" style="fill: none; stroke: #dd8452; stroke-width: 1.5; stroke-linecap: round"/>
    </g>
    <g id="text_23">
     <!-- missense -->
     <g style="fill: #262626" transform="translate(210.607344 74.934344) scale(0.11 -0.11)">
      <use xlink:href="#ArialMT-6d"/>
      <use xlink:href="#ArialMT-69" transform="translate(83.300781 0)"/>
      <use xlink:href="#ArialMT-73" transform="translate(105.517578 0)"/>
      <use xlink:href="#ArialMT-73" transform="translate(155.517578 0)"/>
      <use xlink:href="#ArialMT-65" transform="translate(205.517578 0)"/>
      <use xlink:href="#ArialMT-6e" transform="translate(261.132812 0)"/>
      <use xlink:href="#ArialMT-73" transform="translate(316.748047 0)"/>
      <use xlink:href="#ArialMT-65" transform="translate(366.748047 0)"/>
     </g>
    </g>
    <g id="line2d_12">
     <path d="M 179.807344 86.644188 
L 190.807344 86.644188 
L 201.807344 86.644188 
" style="fill: none; stroke: #55a868; stroke-width: 1.5; stroke-linecap: round"/>
    </g>
    <g id="text_24">
     <!-- nonsense -->
     <g style="fill: #262626" transform="translate(210.607344 90.494188) scale(0.11 -0.11)">
      <use xlink:href="#ArialMT-6e"/>
      <use xlink:href="#ArialMT-6f" transform="translate(55.615234 0)"/>
      <use xlink:href="#ArialMT-6e" transform="translate(111.230469 0)"/>
      <use xlink:href="#ArialMT-73" transform="translate(166.845703 0)"/>
      <use xlink:href="#ArialMT-65" transform="translate(216.845703 0)"/>
      <use xlink:href="#ArialMT-6e" transform="translate(272.460938 0)"/>
      <use xlink:href="#ArialMT-73" transform="translate(328.076172 0)"/>
      <use xlink:href="#ArialMT-65" transform="translate(378.076172 0)"/>
     </g>
    </g>
    <g id="line2d_13">
     <path d="M 179.807344 102.204031 
L 190.807344 102.204031 
L 201.807344 102.204031 
" style="fill: none; stroke: #c44e52; stroke-width: 1.5; stroke-linecap: round"/>
    </g>
    <g id="text_25">
     <!-- deletion -->
     <g style="fill: #262626" transform="translate(210.607344 106.054031) scale(0.11 -0.11)">
      <defs>
       <path id="ArialMT-6c" d="M 409 0 
L 409 4581 
L 972 4581 
L 972 0 
L 409 0 
z
" transform="scale(0.015625)"/>
      </defs>
      <use xlink:href="#ArialMT-64"/>
      <use xlink:href="#ArialMT-65" transform="translate(55.615234 0)"/>
      <use xlink:href="#ArialMT-6c" transform="translate(111.230469 0)"/>
      <use xlink:href="#ArialMT-65" transform="translate(133.447266 0)"/>
      <use xlink:href="#ArialMT-74" transform="translate(189.0625 0)"/>
      <use xlink:href="#ArialMT-69" transform="translate(216.845703 0)"/>
      <use xlink:href="#ArialMT-6f" transform="translate(239.0625 0)"/>
      <use xlink:href="#ArialMT-6e" transform="translate(294.677734 0)"/>
     </g>
    </g>
   </g>
  </g>
 </g>
 <defs>
  <clipPath id="peca4237fd2">
   <rect x="57.6" y="41.472" width="357.12" height="266.112"/>
  </clipPath>
 </defs>
</svg>
